<?xml version="1.0" encoding="UTF-8" standalone="no"?>
<!-- Created with Inkscape (http://www.inkscape.org/) -->

<svg
   version="1.1"
   id="svg1"
   width="334.89862"
   height="529.9198"
   viewBox="0 0 334.89862 529.9198"
   sodipodi:docname="PSM_reduced_bridle_layout_LE.svg"
   inkscape:version="1.4.3 (0d15f75042, 2025-12-25)"
   xmlns:inkscape="http://www.inkscape.org/namespaces/inkscape"
   xmlns:sodipodi="http://sodipodi.sourceforge.net/DTD/sodipodi-0.dtd"
   xmlns="http://www.w3.org/2000/svg"
   xmlns:svg="http://www.w3.org/2000/svg">
  <defs
     id="defs1">
    <clipPath
       clipPathUnits="userSpaceOnUse"
       id="clipPath2">
      <path
         d="M 0,0 H 361.59998 V 572.15623 H 0 Z"
         clip-rule="evenodd"
         id="path2" />
    </clipPath>
  </defs>
  <sodipodi:namedview
     id="namedview1"
     pagecolor="#ffffff"
     bordercolor="#000000"
     borderopacity="0.25"
     inkscape:showpageshadow="2"
     inkscape:pageopacity="0.0"
     inkscape:pagecheckerboard="0"
     inkscape:deskcolor="#d1d1d1"
     inkscape:zoom="2.0670117"
     inkscape:cx="267.05219"
     inkscape:cy="187.7106"
     inkscape:window-width="3440"
     inkscape:window-height="1371"
     inkscape:window-x="0"
     inkscape:window-y="0"
     inkscape:window-maximized="1"
     inkscape:current-layer="g1">
    <inkscape:page
       x="6.9925377e-08"
       y="9.0229584e-08"
       inkscape:label="1"
       id="page1"
       width="334.89862"
       height="529.9198"
       margin="0"
       bleed="0" />
  </sodipodi:namedview>
  <g
     id="g1"
     inkscape:groupmode="layer"
     inkscape:label="1"
     transform="translate(-13.481553,-17.58724)">
    <path
       id="path7"
       d="m 346.4305,547.50657 0.003,-2.68995 1.47775,4.5e-4 -0.003,2.68994 m -1.47296,-5.38033 0.003,-2.68995 1.47775,4.4e-4 -0.003,2.68995 m -1.47298,-5.38034 0.003,-2.68993 1.47775,4.3e-4 -0.003,2.68994 m -1.47296,-5.38032 0.003,-2.68995 1.47775,4.4e-4 -0.003,2.68994 m -1.47298,-5.38033 0.003,-2.68994 1.47775,4.4e-4 -0.003,2.68994 m -1.47296,-5.38033 0.003,-2.68995 1.47775,4.4e-4 -0.003,2.68995 m -1.47293,-5.38034 0.003,-2.68993 1.47775,4.3e-4 -0.003,2.68995 m -1.47296,-5.38033 0.003,-2.68995 1.47775,4.4e-4 -0.003,2.68995 m -1.47298,-5.38034 0.003,-2.68994 1.47775,4.4e-4 -0.003,2.68995 m -1.47296,-5.38034 0.003,-2.68995 1.47775,4.4e-4 -0.003,2.68995 m -1.47298,-5.38032 0.003,-2.68995 1.47775,4.3e-4 -0.003,2.68995 m -1.47296,-5.38033 0.003,-2.68995 1.47775,4.5e-4 -0.003,2.68994 m -1.47298,-5.38033 0.003,-2.68995 1.47775,4.4e-4 -0.003,2.68995 m -1.47296,-5.38034 0.003,-2.68995 1.47775,4.5e-4 -0.003,2.68994 m -1.47298,-5.38032 0.003,-2.68995 1.47775,4.3e-4 -0.003,2.68995 m -1.47296,-5.38033 0.003,-2.68994 1.47775,4.4e-4 -0.003,2.68994 m -1.47293,-5.38033 0.003,-2.68995 1.47775,4.4e-4 -0.003,2.68995 m -1.47296,-5.38034 0.003,-2.68994 1.47775,4.4e-4 -0.003,2.68994 m -1.47298,-5.38032 0.003,-2.68995 1.47775,4.3e-4 -0.003,2.68995 m -1.47296,-5.38033 0.003,-2.68994 1.47775,4.4e-4 -0.003,2.68995 m -1.47298,-5.38034 0.003,-2.68995 1.47775,4.4e-4 -0.003,2.68995 m -1.47296,-5.38034 0.003,-2.68994 1.47775,4.4e-4 -0.003,2.68995 m -1.47298,-5.38033 0.003,-2.68995 1.47775,4.3e-4 -0.003,2.68995 m -1.47296,-5.38032 0.003,-2.68995 1.47775,4.4e-4 -0.003,2.68995 m -1.47298,-5.38034 0.003,-2.68995 1.47775,4.5e-4 -0.003,2.68994 m -1.47296,-5.38033 0.003,-2.68995 1.47775,4.4e-4 -0.003,2.68995 m -1.47293,-5.38033 0.003,-2.68995 1.47775,4.5e-4 -0.003,2.68993 m -1.47296,-5.38032 0.003,-2.68995 1.47775,4.4e-4 -0.003,2.68995 m -1.47298,-5.38034 0.003,-2.68994 1.47775,4.4e-4 -0.003,2.68994 m -1.47296,-5.38033 0.003,-2.68994 1.47775,4.3e-4 -0.003,2.68995 m -1.47298,-5.38033 0.003,-2.68994 1.47775,4.4e-4 -0.003,2.68993 m -1.47298,-5.38032 0.003,-2.68995 1.47775,4.4e-4 -0.003,2.68995 m -1.47296,-5.38028 0.003,-2.68995 1.47775,4.5e-4 -0.003,2.68994 m -1.47298,-5.38033 0.003,-2.68995 1.47775,4.4e-4 -0.003,2.68995 m -1.47296,-5.38034 0.003,-2.68999 1.47775,4.9e-4 -0.003,2.68994 m -1.47297,-5.38038 0.003,-2.68995 1.47775,4.9e-4 -0.003,2.68995 m -1.47292,-5.38038 0.003,-2.68995 1.47775,5e-4 -0.003,2.68994 m -1.47298,-5.38039 0.003,-2.68994 1.47775,4.9e-4 -0.003,2.68995 m -1.47296,-5.38038 0.003,-2.68995 1.47775,4.9e-4 -0.003,2.68995 m -1.47298,-5.38039 0.003,-2.68995 1.47775,4.9e-4 -0.003,2.68995 m -1.47296,-5.38038 0.003,-2.68995 1.47775,5e-4 -0.003,2.68995 m -1.47298,-5.3804 0.003,-2.68994 1.47775,4.9e-4 -0.003,2.68995 m -1.47296,-5.38038 0.003,-2.68995 1.47775,4.9e-4 -0.003,2.68995 m -1.47298,-5.38039 0.003,-2.68994 1.47775,4.9e-4 -0.003,2.68994 m -1.47296,-5.38038 0.003,-2.68995 1.47775,5e-4 -0.003,2.68995 m -1.47297,-5.38039 0.003,-2.68994 1.47775,4.9e-4 -0.003,2.68994 m -1.47297,-5.38038 0.003,-2.68995 1.47775,4.9e-4 -0.003,2.68995 m -1.47293,-5.38039 0.003,-2.68994 1.47775,5e-4 -0.003,2.68993 m -1.47296,-5.38038 0.003,-2.68995 1.47775,5e-4 -0.003,2.68995 m -1.47298,-5.38038 0.003,-2.68995 1.47775,4.9e-4 -0.003,2.68994 m -1.47296,-5.38038 0.003,-2.68995 1.47776,4.9e-4 -0.003,2.68995 m -1.47298,-5.38038 0.003,-2.68995 1.47775,5e-4 -0.003,2.68994 m -1.47296,-5.38039 0.003,-2.68995 1.47775,5e-4 -0.003,2.68995 m -1.47298,-5.38038 0.003,-2.68995 1.47775,4.9e-4 -0.003,2.68995 m -1.47296,-5.38039 0.003,-2.68995 1.47775,4.9e-4 -0.003,2.68995 m -1.47298,-5.38038 0.003,-2.68995 1.47775,5e-4 -0.003,2.68994 m -1.47296,-5.38039 0.003,-2.68994 1.47775,4.9e-4 -0.003,2.68995 m -1.47293,-5.38038 0.003,-2.68995 1.47775,4.9e-4 -0.003,2.68995 m -1.47296,-5.38039 0.003,-2.68994 1.47775,4.9e-4 -0.003,2.68994 m -1.47298,-5.38038 0.003,-2.68995 1.47775,5e-4 -0.003,2.68994 m -1.47296,-5.38039 0.003,-2.68994 1.47775,5e-4 -0.003,2.68994 m -1.47298,-5.38038 0.003,-2.68995 1.47775,4.9e-4 -0.003,2.68995 m -1.47296,-5.38038 0.003,-2.68995 1.47775,4.9e-4 -0.003,2.68994 m -1.47298,-5.38038 0.003,-2.68995 1.47775,5e-4 -0.003,2.68995 m -1.47296,-5.38037 0.003,-2.68994 1.47775,5e-4 -0.003,2.68994 m -1.47298,-5.38039 0.003,-2.68994 1.47775,4.9e-4 -0.003,2.68995 m -1.47296,-5.38038 0.003,-2.68995 1.47775,4.9e-4 -0.003,2.68994 m -1.47293,-5.38038 0.003,-2.68995 1.47775,4.9e-4 -0.003,2.68995 m -1.47296,-5.38038 0.003,-2.68995 1.47775,5e-4 -0.003,2.68995 m -1.47298,-5.3804 0.003,-2.68994 1.47775,4.9e-4 -0.003,2.68995 m -1.47296,-5.38038 0.003,-2.68995 1.47775,4.9e-4 -0.003,2.68995 m -1.47298,-5.38039 0.003,-2.68994 1.47775,4.9e-4 -0.003,2.68994 m -1.47296,-5.38038 0.003,-2.68995 1.47775,5e-4 -0.003,2.68995 m -1.47298,-5.38039 0.003,-2.68994 1.47775,4.9e-4 -0.003,2.68994 m -1.47296,-5.38038 0.003,-2.68995 1.47775,4.9e-4 -0.003,2.68995 m -1.47298,-5.38039 0.003,-2.68994 1.47775,5e-4 -0.003,2.68993 m -1.47296,-5.38038 0.003,-2.68995 1.47775,5e-4 -0.003,2.68995 m -1.47293,-5.38039 0.003,-2.68994 1.47775,4.9e-4 -0.003,2.68994 m -1.47296,-5.38038 0.003,-2.68995 1.47775,4.9e-4 -0.003,2.68995 m -1.47298,-5.38038 0.003,-2.68995 1.47775,5e-4 -0.003,2.68993 m -1.47296,-5.38038 0.003,-2.68995 1.47775,5e-4 -0.003,2.68995 m -1.47298,-5.38038 0.003,-2.68995 1.47775,4.9e-4 -0.003,2.68995 m -1.47296,-5.38039 0.003,-2.68995 1.47775,4.9e-4 -0.003,2.68995 m -1.47298,-5.38038 0.003,-2.68995 1.47775,4.99e-4 -0.003,2.689941 m -1.47296,-5.380385 0.003,-2.689945 1.47775,4.92e-4 -0.003,2.689947 m -1.47298,-5.380385 0.003,-2.689947 1.47775,4.94e-4 -0.003,2.689946 m -1.47296,-5.380386 0.003,-2.689945 1.47775,4.93e-4 -0.003,2.689945 m -1.47293,-5.380384 0.003,-2.689947 1.47775,4.94e-4 -0.003,2.689946 m -1.47296,-5.380385 0.003,-2.689946 1.47775,4.93e-4 -0.003,2.689945 m -1.47298,-5.380385 0.003,-2.689946 1.47775,4.93e-4 -0.003,2.689947 m -1.47296,-5.380385 0.003,-2.689947 1.47775,4.94e-4 -0.003,2.689946 m -1.47298,-5.380386 0.003,-2.689945 1.47775,4.92e-4 -0.003,2.689946 m -1.47298,-5.380385 0.003,-2.689946 1.47775,4.93e-4 -0.003,2.689947 m -1.47296,-5.380386 0.003,-2.689946 1.47775,4.94e-4 -0.003,2.689945 m -1.47298,-5.380385 0.003,-2.689946 1.47775,4.93e-4 -0.003,2.689946 m -1.47297,-5.380384 0.003,-2.689947 1.47775,4.94e-4 -0.003,2.689945 m -1.47297,-5.380385 0.003,-2.689946 1.47775,4.93e-4 -0.003,2.689946 m -1.47297,-5.380385 0.003,-2.689946 1.47775,4.93e-4 -0.003,2.689947 m -1.47293,-5.380386 0.003,-2.689937 1.47775,4.75e-4 -0.003,2.689955"
       style="fill:#000000;fill-opacity:1;fill-rule:nonzero;stroke:none;stroke-width:1.1511" />
    <path
       id="path8"
       d="m 294,522 69,154"
       style="fill:none;stroke:#000000;stroke-width:1;stroke-linecap:butt;stroke-linejoin:miter;stroke-miterlimit:10;stroke-dasharray:none;stroke-opacity:1"
       transform="matrix(0.95916278,0,0,0.95916278,-2.87739,-118.41824)" />
    <path
       id="path9"
       d="m 366,677 c -3e-5,0.39777 -0.0761,0.78046 -0.22839,1.14801 -0.15226,0.36755 -0.36902,0.69196 -0.6503,0.97327 -0.28134,0.28131 -0.60578,0.49804 -0.9733,0.65027 -0.36755,0.15228 -0.75021,0.22839 -1.14801,0.22845 -0.39786,-6e-5 -0.78055,-0.0762 -1.1481,-0.22845 -0.36752,-0.15223 -0.69196,-0.36896 -0.97324,-0.65027 -0.28131,-0.28131 -0.49808,-0.60572 -0.6503,-0.97327 C 360.07611,677.78046 360,677.39777 360,677 c 0,-0.39789 0.0761,-0.78058 0.22836,-1.14813 0.15222,-0.36756 0.36899,-0.69196 0.6503,-0.97321 0.28128,-0.28131 0.60572,-0.49811 0.97324,-0.65033 C 362.21945,674.07611 362.60214,674 363,674 c 0.3978,0 0.78046,0.0761 1.14801,0.22833 0.36752,0.15222 0.69196,0.36902 0.9733,0.65033 0.28128,0.28125 0.49804,0.60565 0.6503,0.97321 0.15225,0.36755 0.22836,0.75024 0.22839,1.14813 z"
       style="fill:#000000;fill-opacity:1;fill-rule:nonzero;stroke:none"
       transform="matrix(0.95916278,0,0,0.95916278,-2.87739,-118.41824)" />
    <path
       id="path10"
       d="m 296,520 c -3e-5,0.39777 -0.0762,0.78046 -0.22842,1.14801 -0.15226,0.36749 -0.36902,0.69196 -0.6503,0.97327 -0.28131,0.28131 -0.60575,0.49804 -0.97327,0.65033 -0.36752,0.15222 -0.75021,0.22833 -1.14801,0.22839 -0.39786,-6e-5 -0.78055,-0.0762 -1.14807,-0.22839 -0.36755,-0.15229 -0.69199,-0.36902 -0.97327,-0.65033 -0.28131,-0.28131 -0.49808,-0.60578 -0.65033,-0.97327 C 290.07608,520.78046 289.99997,520.39777 290,520 c -3e-5,-0.39789 0.0761,-0.78058 0.22833,-1.14813 0.15225,-0.36749 0.36902,-0.6919 0.65033,-0.97321 0.28128,-0.28131 0.60572,-0.49811 0.97327,-0.65033 C 292.21945,517.07611 292.60214,517 293,517 c 0.3978,0 0.78049,0.0761 1.14801,0.22833 0.36752,0.15222 0.69196,0.36902 0.97327,0.65033 0.28128,0.28131 0.49804,0.60572 0.6503,0.97321 0.15225,0.36755 0.22839,0.75024 0.22842,1.14813 z"
       style="fill:#000000;fill-opacity:1;fill-rule:nonzero;stroke:none"
       transform="matrix(0.95916278,0,0,0.95916278,-2.87739,-118.41824)" />
    <path
       id="path11"
       d="m 190,450 103,71"
       style="fill:none;stroke:#000000;stroke-width:1;stroke-linecap:butt;stroke-linejoin:miter;stroke-miterlimit:10;stroke-dasharray:none;stroke-opacity:1"
       transform="matrix(0.95916278,0,0,0.95916278,-2.87739,-118.41824)" />
    <g
       id="g11" />
    <path
       id="path12"
       d="m 0.50342257,-3.2625993 6.9954e-4,-1.2042668 C 0.91018773,-4.9364376 1.443594,-5.1691584 2.1113948,-5.169101 c 0.2374355,0.00399 0.4841074,0.040277 0.7440883,0.1159008 0.2629621,0.064498 0.630281,0.1957152 1.1110469,0.3931065 0.2727441,0.1058761 0.4817109,0.1827378 0.6193008,0.2255676 0.1335173,0.035776 0.2659434,0.053371 0.4043322,0.048714 0.2520889,0.00494 0.5144663,-0.061898 0.7830595,-0.2075649 0.2715745,-0.1567936 0.5151868,-0.3538743 0.7308367,-0.591242 l -0.00666,1.2265197 C 6.249459,-3.7114953 5.9936291,-3.5355763 5.7339798,-3.4232884 5.4773119,-3.322127 5.192136,-3.2703428 4.8819792,-3.2699721 4.643053,-3.2684031 4.4171433,-3.2931595 4.198687,-3.3457321 3.9832119,-3.4094311 3.6451998,-3.5387584 3.1826143,-3.7372409 2.7230101,-3.9468498 2.3315482,-4.0547231 2.0173188,-4.0614062 c -0.2495071,0.00768 -0.4795963,0.065279 -0.6902678,0.172802 -0.2076902,0.096397 -0.48155421,0.3062409 -0.82362843,0.6260049 z m 0,0"
       style="fill:#000000;fill-opacity:1;fill-rule:nonzero;stroke:none"
       aria-label="~"
       transform="matrix(-0.47958139,0.83065939,-0.83065939,-0.47958139,176.30476,307.91558)" />
    <path
       id="path13"
       d="M 171,396 293,520"
       style="fill:none;stroke:#000000;stroke-width:1;stroke-linecap:butt;stroke-linejoin:miter;stroke-miterlimit:10;stroke-dasharray:none;stroke-opacity:1"
       transform="matrix(0.95916278,0,0,0.95916278,-2.87739,-118.41824)" />
    <path
       id="path14"
       d="m 174,395.95999 c -2e-5,0.3978 -0.0761,0.78046 -0.22839,1.14798 -0.15224,0.36752 -0.36901,0.69196 -0.65032,0.9733 -0.28129,0.28128 -0.60573,0.49801 -0.97326,0.65027 -0.36754,0.15225 -0.75022,0.22842 -1.14803,0.22845 -0.39783,-3e-5 -0.78052,-0.0762 -1.14807,-0.22842 -0.36754,-0.15225 -0.69196,-0.36902 -0.97325,-0.6503 -0.28131,-0.28134 -0.4981,-0.60578 -0.65033,-0.9733 -0.15224,-0.36752 -0.22837,-0.75018 -0.22835,-1.14798 -2e-5,-0.39786 0.0761,-0.78055 0.22835,-1.14807 0.15223,-0.36758 0.36902,-0.69202 0.65033,-0.9733 0.28129,-0.28128 0.60571,-0.49804 0.97325,-0.6503 0.36755,-0.15222 0.75024,-0.22833 1.14807,-0.22833 0.39781,0 0.78049,0.0761 1.14803,0.22833 0.36753,0.15226 0.69197,0.36902 0.97326,0.6503 0.28131,0.28128 0.49808,0.60572 0.65032,0.97327 0.15225,0.36755 0.22837,0.75024 0.22839,1.1481 z"
       style="fill:#000000;fill-opacity:1;fill-rule:nonzero;stroke:none"
       transform="matrix(0.95916278,0,0,0.95916278,-2.87739,-118.41824)" />
    <path
       id="path15"
       d="M 44.754271,262.92748 171,395.95999"
       style="fill:none;stroke:#000000;stroke-width:1;stroke-linecap:butt;stroke-linejoin:miter;stroke-miterlimit:10;stroke-dasharray:none;stroke-opacity:1"
       sodipodi:nodetypes="cc"
       transform="matrix(0.95916278,0,0,0.95916278,-2.87739,-118.41824)" />
    <path
       id="path19"
       d="m 47,262.01001 c -4e-6,0.3978 -0.07613,0.78049 -0.228371,1.14801 -0.15224,0.36752 -0.369011,0.69196 -0.650314,0.9733 -0.281307,0.28128 -0.605732,0.49804 -0.97327,0.6503 -0.367543,0.15225 -0.750222,0.22839 -1.148045,0.22839 -0.397823,0 -0.78051,-0.0761 -1.148056,-0.22836 -0.367538,-0.15226 -0.691959,-0.36905 -0.973267,-0.65033 -0.281307,-0.28134 -0.498081,-0.60578 -0.650322,-0.9733 -0.15224,-0.36752 -0.228359,-0.75021 -0.228355,-1.14801 -4e-6,-0.39786 0.07612,-0.78055 0.228355,-1.14807 0.152241,-0.36756 0.369015,-0.69199 0.650322,-0.97327 0.281308,-0.28131 0.605729,-0.49808 0.973267,-0.65033 0.367546,-0.15222 0.750233,-0.22833 1.148056,-0.22833 0.397823,0 0.780502,0.0761 1.148045,0.22833 0.367538,0.15225 0.691963,0.36902 0.97327,0.65033 0.281303,0.28128 0.498077,0.60571 0.650318,0.97327 0.152241,0.36752 0.228363,0.75021 0.228367,1.14807 z"
       style="fill:#b85450;fill-opacity:1;fill-rule:nonzero;stroke:none"
       transform="matrix(0.95916278,0,0,0.95916278,-2.87739,-118.41824)" />
    <path
       id="path28"
       d="m 145,197.02 c -2e-5,0.39782 -0.0761,0.78048 -0.22838,1.14801 -0.15224,0.36756 -0.369,0.69199 -0.65031,0.9733 -0.2813,0.2813 -0.60573,0.49808 -0.97327,0.65032 -0.36755,0.15223 -0.75023,0.22836 -1.14804,0.22837 -0.39783,-1e-5 -0.78052,-0.0761 -1.14807,-0.22839 -0.36754,-0.15224 -0.69196,-0.369 -0.97325,-0.6503 -0.28133,-0.28131 -0.4981,-0.60573 -0.65033,-0.97326 -0.15224,-0.36756 -0.22837,-0.75023 -0.22835,-1.14805 -2e-5,-0.39784 0.0761,-0.78054 0.22835,-1.14808 0.15223,-0.36754 0.369,-0.69196 0.65033,-0.97325 0.28129,-0.28131 0.60571,-0.49808 0.97325,-0.65032 0.36755,-0.15223 0.75024,-0.22835 1.14807,-0.22835 0.39781,0 0.78049,0.0761 1.14804,0.22835 0.36754,0.15224 0.69197,0.36901 0.97327,0.65032 0.28131,0.28129 0.49807,0.60571 0.65031,0.97325 0.15224,0.36754 0.22836,0.75024 0.22838,1.14808 z"
       style="fill:#b85450;fill-opacity:1;fill-rule:nonzero;stroke:none"
       transform="matrix(0.95916278,0,0,0.95916278,-2.87739,-118.41824)" />
    <path
       id="path30"
       d="M 170.5,393.95999 143.36397,199.87176"
       style="fill:none;stroke:#000000;stroke-width:1;stroke-linecap:butt;stroke-linejoin:miter;stroke-miterlimit:10;stroke-dasharray:none;stroke-opacity:1"
       transform="matrix(0.95916278,0,0,0.95916278,-2.87739,-118.41824)"
       sodipodi:nodetypes="cc" />
    <path
       id="path31"
       d="M 261,386.04001 293,520"
       style="fill:none;stroke:#000000;stroke-width:1;stroke-linecap:butt;stroke-linejoin:miter;stroke-miterlimit:10;stroke-dasharray:none;stroke-opacity:1"
       transform="matrix(0.95916278,0,0,0.95916278,-2.87739,-118.41824)" />
    <path
       id="path32"
       d="M 347.10116,162.20167 261,386.04001"
       style="fill:none;stroke:#000000;stroke-width:1;stroke-linecap:butt;stroke-linejoin:miter;stroke-miterlimit:10;stroke-dasharray:none;stroke-opacity:1"
       transform="matrix(0.95916278,0,0,0.95916278,-2.87739,-118.41824)"
       sodipodi:nodetypes="cc" />
    <path
       id="path34"
       d="M 250.58337,169.50652 261,386.04001"
       style="fill:none;stroke:#000000;stroke-width:1;stroke-linecap:butt;stroke-linejoin:miter;stroke-miterlimit:10;stroke-dasharray:none;stroke-opacity:1"
       transform="matrix(0.95916278,0,0,0.95916278,-2.87739,-118.41824)"
       sodipodi:nodetypes="cc" />
    <path
       id="path35"
       d="m 264,386.04001 c -3e-5,0.3978 -0.0761,0.78049 -0.22839,1.14801 -0.15226,0.36752 -0.36902,0.69195 -0.6503,0.9733 -0.28131,0.28128 -0.60575,0.49804 -0.97327,0.65026 -0.36752,0.15226 -0.75021,0.2284 -1.14804,0.22843 -0.39786,-3e-5 -0.78055,-0.0762 -1.14807,-0.22843 -0.36755,-0.15222 -0.69199,-0.36898 -0.97327,-0.65026 -0.28131,-0.28135 -0.49808,-0.60578 -0.65033,-0.9733 -0.15225,-0.36752 -0.22836,-0.75021 -0.22833,-1.14801 -3e-5,-0.39786 0.0761,-0.78058 0.22833,-1.1481 0.15225,-0.36756 0.36902,-0.69196 0.65033,-0.97324 0.28128,-0.28131 0.60572,-0.49808 0.97327,-0.65033 0.36752,-0.15222 0.75021,-0.22833 1.14807,-0.22833 0.39783,0 0.78052,0.0761 1.14804,0.22833 0.36752,0.15225 0.69196,0.36902 0.97327,0.65033 0.28128,0.28128 0.49804,0.60568 0.6503,0.97324 0.15225,0.36752 0.22836,0.75024 0.22839,1.1481 z"
       style="fill:#000000;fill-opacity:1;fill-rule:nonzero;stroke:none"
       transform="matrix(0.95916278,0,0,0.95916278,-2.87739,-118.41824)" />
    <path
       id="path56"
       d="m 254,170 c -2e-5,0.39781 -0.0762,0.78049 -0.22841,1.14803 -0.15224,0.36753 -0.369,0.69195 -0.6503,0.97328 -0.28132,0.28129 -0.60574,0.49806 -0.97328,0.6503 -0.36754,0.15225 -0.7502,0.22837 -1.14801,0.22839 -0.39784,-2e-5 -0.78053,-0.0761 -1.14807,-0.22839 -0.36754,-0.15224 -0.69197,-0.36901 -0.97327,-0.6503 -0.28131,-0.28133 -0.49809,-0.60575 -0.65033,-0.97328 C 248.0761,170.78049 247.99998,170.39781 248,170 c -2e-5,-0.39784 0.0761,-0.78055 0.22833,-1.14809 0.15224,-0.36753 0.36902,-0.69195 0.65033,-0.97325 0.2813,-0.28129 0.60573,-0.49808 0.97327,-0.65031 C 250.21947,167.07611 250.60216,167 251,167 c 0.39781,0 0.78047,0.0761 1.14801,0.22835 0.36754,0.15223 0.69196,0.36902 0.97328,0.65031 0.2813,0.2813 0.49806,0.60572 0.6503,0.97325 0.15225,0.36754 0.22839,0.75025 0.22841,1.14809 z"
       style="fill:#b85450;fill-opacity:1;fill-rule:nonzero;stroke:none"
       transform="matrix(0.95916278,0,0,0.95916278,-2.87739,-118.41824)" />
    <path
       id="path61"
       d="m 350,162 c -3e-5,0.39781 -0.0762,0.7805 -0.22842,1.14804 -0.15223,0.36754 -0.36899,0.69196 -0.65027,0.97327 -0.28134,0.28129 -0.60578,0.49806 -0.9733,0.6503 -0.36752,0.15225 -0.75021,0.22837 -1.14801,0.22839 -0.39786,-2e-5 -0.78055,-0.0761 -1.1481,-0.22839 -0.36756,-0.15224 -0.69196,-0.36901 -0.97324,-0.6503 -0.28131,-0.28131 -0.49808,-0.60573 -0.65033,-0.97327 C 344.07608,162.7805 343.99997,162.39781 344,162 c -3e-5,-0.39783 0.0761,-0.78052 0.22833,-1.14806 0.15225,-0.36755 0.36902,-0.69197 0.65033,-0.97326 0.28128,-0.28133 0.60568,-0.4981 0.97324,-0.65033 C 346.21945,159.07611 346.60214,159 347,159 c 0.3978,0 0.78049,0.0761 1.14801,0.22835 0.36752,0.15223 0.69196,0.369 0.9733,0.65033 0.28128,0.28129 0.49804,0.60571 0.65027,0.97326 0.15225,0.36754 0.22839,0.75023 0.22842,1.14806 z"
       style="fill:#b85450;fill-opacity:1;fill-rule:nonzero;stroke:none"
       transform="matrix(0.95916278,0,0,0.95916278,-2.87739,-118.41824)" />
    <path
       id="path62"
       d="m 42,0 h 8 c 20,2 54,2 91,2 37,0 76,-2 110,-2 14,0 15,4 19,22 2,6 3,11 3,14 0,8 -5,10 -19,10 -24,2 -46,11 -46,29 0,4 1,9 4,15 1,4 18,33 37,65 l 34,58 H 521 L 533,63 C 523,48 497,47 469,46 h -20 l -4,-3 c -2,-3 -3,-6 -6,-16 -5,-20 -3,-20 4,-27 h 12 c 29,2 76,2 123,2 48,0 88,-2 126,-2 15,0 15,4 19,22 2,8 3,12 3,14 0,10 -6,10 -25,10 -24,0 -61,2 -65,11 -4,5 -57,646 -58,649 0,4 -4,7 -6,10 h -17 c -23,0 -25,0 -32,-12 C 514,691 174,106 164,96 142,64 110,48 62,46 H 48 L 44,43 C 42,40 35,17 35,11 35,6 39,3 42,0 m 474,260 c 0,-1 -47,-1 -103,-1 l -103,1 90,152 c 81,138 90,153 90,150 1,-1 26,-286 26,-302 z"
       style="fill:#000000;fill-opacity:1;fill-rule:nonzero;stroke:#000000;stroke-width:1;stroke-linecap:butt;stroke-linejoin:miter;stroke-miterlimit:10;stroke-dasharray:none;stroke-opacity:0.0304"
       transform="matrix(0.01349729,0,0,-0.01349729,279.59606,474.89678)" />
    <path
       id="path63"
       d="m 108,-11 c 17,0 35,10 43,27 3,6 10,30 38,141 l 33,134 7,12 c 34,58 72,89 119,99 8,2 14,2 26,2 37,0 49,-21 49,-59 0,-13 -1,-28 -3,-38 L 384,161 C 357,56 350,29 350,18 c 0,-4 2,-6 3,-9 5,-13 16,-20 32,-20 17,0 35,10 43,27 3,6 10,30 38,141 l 33,134 7,12 c 34,58 72,89 119,99 8,2 14,2 26,2 37,0 49,-21 49,-59 0,-13 -1,-28 -3,-38 -8,-42 -26,-99 -56,-178 -12,-32 -14,-33 -14,-56 0,-22 12,-45 24,-59 16,-14 37,-24 65,-24 19,0 27,1 43,9 45,25 77,71 94,131 2,7 4,12 4,15 0,9 -6,8 -20,8 -18,0 -18,0 -22,-15 C 796,70 761,26 724,26 c -15,0 -19,6 -20,24 0,18 3,31 18,71 29,80 48,139 55,177 2,10 3,25 3,38 0,71 -50,106 -121,106 -22,0 -43,-4 -63,-11 -32,-13 -60,-33 -86,-64 l -8,-10 -1,3 c -13,54 -51,82 -117,82 -66,0 -106,-27 -141,-64 l -11,-11 c -1,0 -1,1 -1,2 0,3 -7,21 -11,28 -15,27 -46,45 -88,45 -25,0 -37,-8 -53,-24 C 61,401 48,375 35,337 29,321 21,290 21,287 c 0,-3 4,-7 6,-9 h 14 c 19,0 16,0 20,9 18,69 30,97 48,111 6,4 13,7 20,7 18,0 25,-15 25,-36 0,-8 -1,-17 -3,-27 0,-5 -18,-78 -39,-161 C 81,58 74,28 74,17 74,-1 91,-11 108,-11 Z"
       style="fill:#000000;fill-opacity:1;fill-rule:nonzero;stroke:#000000;stroke-width:1;stroke-linecap:butt;stroke-linejoin:miter;stroke-miterlimit:10;stroke-dasharray:none;stroke-opacity:0.0215"
       transform="matrix(0.00954259,0,0,-0.00954259,290.16442,476.92138)" />
    <path
       id="path64"
       d="m 487,153 h -4 c -15,0 -14,-1 -20,-22 -14,-54 -25,-81 -41,-96 -7,-5 -12,-8 -20,-9 -23,0 -28,18 -28,42 0,34 75,299 75,326 0,17 -17,28 -33,28 -21,0 -37,-13 -46,-30 -21,26 -47,49 -90,49 -47,0 -87,-18 -122,-45 C 97,350 44,267 34,179 c -1,-6 -1,-14 -1,-22 0,-48 9,-81 30,-112 24,-31 55,-55 109,-55 10,0 19,0 25,1 32,7 64,26 95,55 7,6 7,7 8,5 0,-2 3,-7 5,-12 15,-29 46,-49 88,-49 15,0 16,0 24,2 12,5 21,10 32,21 22,22 39,58 54,116 2,8 3,12 3,15 0,9 -4,9 -19,9 M 118,106 c 0,8 1,16 1,23 5,36 27,126 41,164 18,50 59,112 117,112 30,0 50,-17 63,-43 4,-8 11,-25 11,-34 0,-11 -50,-213 -53,-218 -5,-10 -40,-49 -57,-60 -22,-16 -43,-24 -62,-24 -42,0 -61,34 -61,80 z"
       style="fill:#000000;fill-opacity:1;fill-rule:nonzero;stroke:#000000;stroke-width:1;stroke-linecap:butt;stroke-linejoin:miter;stroke-miterlimit:10;stroke-dasharray:none;stroke-opacity:0.0215"
       transform="matrix(0.00954259,0,0,-0.00954259,298.54284,476.92138)" />
    <path
       id="path65"
       d="m 184,600 c 0,-26 18,-43 42,-43 33,0 64,33 64,62 0,25 -19,42 -43,42 -33,0 -63,-30 -63,-61 M 161,-11 c 70,0 117,77 138,141 2,6 3,10 3,13 0,10 -5,10 -20,10 -18,0 -18,0 -22,-16 -16,-54 -40,-91 -69,-105 -7,-4 -18,-6 -25,-6 -13,0 -17,10 -17,25 0,9 2,19 5,32 1,3 90,240 91,244 3,10 5,20 5,30 0,53 -40,85 -92,85 -23,0 -41,-8 -58,-21 -32,-22 -60,-68 -76,-120 -2,-7 -3,-11 -3,-14 0,-4 4,-7 6,-9 h 14 c 19,0 16,0 20,9 10,40 27,73 47,94 15,16 29,23 46,23 h 2 c 13,0 17,-9 17,-24 0,-10 -1,-23 -5,-36 C 167,340 77,101 76,97 74,91 74,83 74,74 c 0,-52 35,-85 87,-85 z"
       style="fill:#000000;fill-opacity:1;fill-rule:nonzero;stroke:#000000;stroke-width:1;stroke-linecap:butt;stroke-linejoin:miter;stroke-miterlimit:10;stroke-dasharray:none;stroke-opacity:0.0215"
       transform="matrix(0.00954259,0,0,-0.00954259,303.59085,476.92138)" />
    <path
       id="path66"
       d="m 108,-11 c 17,0 35,10 43,27 3,6 10,30 38,141 l 33,134 7,12 c 34,58 72,89 119,99 8,2 14,2 26,2 37,0 49,-21 49,-59 0,-13 -1,-28 -3,-38 -8,-42 -26,-99 -56,-178 -12,-32 -14,-33 -14,-56 0,-22 12,-45 24,-59 16,-14 37,-24 65,-24 19,0 27,1 43,9 45,25 77,71 94,131 2,7 4,12 4,15 0,9 -6,8 -20,8 -16,0 -18,-1 -20,-8 C 526,93 494,26 444,26 c -14,0 -17,9 -17,26 0,18 3,31 18,71 29,77 48,137 55,175 2,10 3,25 3,38 0,71 -50,106 -121,106 -64,0 -104,-28 -139,-64 l -11,-11 c -1,0 -1,1 -1,2 0,3 -7,21 -11,28 -15,26 -44,45 -85,45 -7,0 -13,-1 -17,-2 -49,-11 -77,-73 -92,-132 -3,-10 -5,-20 -5,-21 0,-3 4,-7 6,-9 h 14 c 15,0 17,1 19,6 0,1 3,11 6,21 6,24 15,51 21,63 11,22 22,37 42,37 18,0 24,-17 24,-39 0,-8 0,-18 -1,-23 C 146,308 74,40 74,17 74,-1 91,-11 108,-11 Z"
       style="fill:#000000;fill-opacity:1;fill-rule:nonzero;stroke:#000000;stroke-width:1;stroke-linecap:butt;stroke-linejoin:miter;stroke-miterlimit:10;stroke-dasharray:none;stroke-opacity:0.0215"
       transform="matrix(0.00954259,0,0,-0.00954259,306.88303,476.92138)" />
    <path
       id="path67"
       d="m 42,0 h 8 c 20,2 54,2 91,2 37,0 76,-2 110,-2 14,0 15,4 19,22 2,6 3,11 3,14 0,8 -5,10 -19,10 -24,2 -46,11 -46,29 0,4 1,9 4,15 1,4 18,33 37,65 l 34,58 H 521 L 533,63 C 523,48 497,47 469,46 h -20 l -4,-3 c -2,-3 -3,-6 -6,-16 -5,-20 -3,-20 4,-27 h 12 c 29,2 76,2 123,2 48,0 88,-2 126,-2 15,0 15,4 19,22 2,8 3,12 3,14 0,10 -6,10 -25,10 -24,0 -61,2 -65,11 -4,5 -57,646 -58,649 0,4 -4,7 -6,10 h -17 c -23,0 -25,0 -32,-12 C 514,691 174,106 164,96 142,64 110,48 62,46 H 48 L 44,43 C 42,40 35,17 35,11 35,6 39,3 42,0 m 474,260 c 0,-1 -47,-1 -103,-1 l -103,1 90,152 c 81,138 90,153 90,150 1,-1 26,-286 26,-302 z"
       style="fill:#000000;fill-opacity:1;fill-rule:nonzero;stroke:#000000;stroke-width:1;stroke-linecap:butt;stroke-linejoin:miter;stroke-miterlimit:10;stroke-dasharray:none;stroke-opacity:0.0304"
       transform="matrix(0.01349503,0,0,-0.01349503,267.12694,306.08366)" />
    <path
       id="path68"
       d="m 43,1 c 42,0 87,1 136,1 50,0 100,0 137,-2 h 16 c 6,6 6,5 10,19 5,21 3,19 -3,27 h -32 c -31,1 -47,2 -55,4 -5,1 -7,4 -7,9 0,0 136,556 143,565 5,6 9,8 19,10 11,1 40,3 64,3 20,0 20,0 23,2 3,3 4,5 7,19 2,7 3,11 3,14 0,5 -4,8 -7,11 h -10 c -9,-2 -41,-2 -73,-2 h -55 c -52,0 -110,1 -146,2 -14,0 -14,0 -17,-2 -3,-3 -4,-5 -7,-19 -5,-17 -4,-19 4,-25 h 20 c 36,0 66,-3 71,-6 0,-1 1,-3 2,-5 0,-2 -16,-66 -70,-282 C 140,38 146,59 136,53 121,46 92,46 60,46 H 54 C 33,46 35,45 29,24 27,16 26,12 26,10 26,2 30,1 43,1 Z"
       style="fill:#000000;fill-opacity:1;fill-rule:nonzero;stroke:#000000;stroke-width:1;stroke-linecap:butt;stroke-linejoin:miter;stroke-miterlimit:10;stroke-dasharray:none;stroke-opacity:0.0215"
       transform="matrix(0.00954099,0,0,-0.00954099,277.69352,308.10794)" />
    <path
       id="path69"
       d="m 42,0 h 8 c 20,2 54,2 91,2 37,0 76,-2 110,-2 14,0 15,4 19,22 2,6 3,11 3,14 0,8 -5,10 -19,10 -24,2 -46,11 -46,29 0,4 1,9 4,15 1,4 18,33 37,65 l 34,58 H 521 L 533,63 C 523,48 497,47 469,46 h -20 l -4,-3 c -2,-3 -3,-6 -6,-16 -5,-20 -3,-20 4,-27 h 12 c 29,2 76,2 123,2 48,0 88,-2 126,-2 15,0 15,4 19,22 2,8 3,12 3,14 0,10 -6,10 -25,10 -24,0 -61,2 -65,11 -4,5 -57,646 -58,649 0,4 -4,7 -6,10 h -17 c -23,0 -25,0 -32,-12 C 514,691 174,106 164,96 142,64 110,48 62,46 H 48 L 44,43 C 42,40 35,17 35,11 35,6 39,3 42,0 m 474,260 c 0,-1 -47,-1 -103,-1 l -103,1 90,152 c 81,138 90,153 90,150 1,-1 26,-286 26,-302 z"
       style="fill:#000000;fill-opacity:1;fill-rule:nonzero;stroke:#000000;stroke-width:1;stroke-linecap:butt;stroke-linejoin:miter;stroke-miterlimit:10;stroke-dasharray:none;stroke-opacity:0.0304"
       transform="matrix(0.01349579,0,0,-0.01349579,213.41382,308.96135)" />
    <path
       id="path70"
       d="m 43,1 c 42,0 87,1 136,1 50,0 100,0 137,-2 h 16 c 6,6 6,5 10,19 5,21 3,19 -3,27 h -32 c -31,1 -47,2 -55,4 -5,1 -7,4 -7,9 0,0 136,556 143,565 5,6 9,8 19,10 11,1 40,3 64,3 20,0 20,0 23,2 3,3 4,5 7,19 2,7 3,11 3,14 0,5 -4,8 -7,11 h -10 c -9,-2 -41,-2 -73,-2 h -55 c -52,0 -110,1 -146,2 -14,0 -14,0 -17,-2 -3,-3 -4,-5 -7,-19 -5,-17 -4,-19 4,-25 h 20 c 36,0 66,-3 71,-6 0,-1 1,-3 2,-5 0,-2 -16,-66 -70,-282 C 140,38 146,59 136,53 121,46 92,46 60,46 H 54 C 33,46 35,45 29,24 27,16 26,12 26,10 26,2 30,1 43,1 Z"
       style="fill:#000000;fill-opacity:1;fill-rule:nonzero;stroke:#000000;stroke-width:1;stroke-linecap:butt;stroke-linejoin:miter;stroke-miterlimit:10;stroke-dasharray:none;stroke-opacity:0.0215"
       transform="matrix(0.00954152,0,0,-0.00954152,223.98102,310.98573)" />
    <path
       id="path71"
       d="m 43,1 c 42,0 87,1 136,1 50,0 100,0 137,-2 h 16 c 6,6 6,5 10,19 5,21 3,19 -3,27 h -32 c -31,1 -47,2 -55,4 -5,1 -7,4 -7,9 0,0 136,556 143,565 5,6 9,8 19,10 11,1 40,3 64,3 20,0 20,0 23,2 3,3 4,5 7,19 2,7 3,11 3,14 0,5 -4,8 -7,11 h -10 c -9,-2 -41,-2 -73,-2 h -55 c -52,0 -110,1 -146,2 -14,0 -14,0 -17,-2 -3,-3 -4,-5 -7,-19 -5,-17 -4,-19 4,-25 h 20 c 36,0 66,-3 71,-6 0,-1 1,-3 2,-5 0,-2 -16,-66 -70,-282 C 140,38 146,59 136,53 121,46 92,46 60,46 H 54 C 33,46 35,45 29,24 27,16 26,12 26,10 26,2 30,1 43,1 Z"
       style="fill:#000000;fill-opacity:1;fill-rule:nonzero;stroke:#000000;stroke-width:1;stroke-linecap:butt;stroke-linejoin:miter;stroke-miterlimit:10;stroke-dasharray:none;stroke-opacity:0.0215"
       transform="matrix(0.00954152,0,0,-0.00954152,228.78995,310.98573)" />
    <path
       id="path72"
       d="m 42,0 h 8 c 20,2 54,2 91,2 37,0 76,-2 110,-2 14,0 15,4 19,22 2,6 3,11 3,14 0,8 -5,10 -19,10 -24,2 -46,11 -46,29 0,4 1,9 4,15 1,4 18,33 37,65 l 34,58 H 521 L 533,63 C 523,48 497,47 469,46 h -20 l -4,-3 c -2,-3 -3,-6 -6,-16 -5,-20 -3,-20 4,-27 h 12 c 29,2 76,2 123,2 48,0 88,-2 126,-2 15,0 15,4 19,22 2,8 3,12 3,14 0,10 -6,10 -25,10 -24,0 -61,2 -65,11 -4,5 -57,646 -58,649 0,4 -4,7 -6,10 h -17 c -23,0 -25,0 -32,-12 C 514,691 174,106 164,96 142,64 110,48 62,46 H 48 L 44,43 C 42,40 35,17 35,11 35,6 39,3 42,0 m 474,260 c 0,-1 -47,-1 -103,-1 l -103,1 90,152 c 81,138 90,153 90,150 1,-1 26,-286 26,-302 z"
       style="fill:#000000;fill-opacity:1;fill-rule:nonzero;stroke:#000000;stroke-width:1;stroke-linecap:butt;stroke-linejoin:miter;stroke-miterlimit:10;stroke-dasharray:none;stroke-opacity:0.0304"
       transform="matrix(0.01116207,0.00758573,0.00758573,-0.01116207,184.99153,335.80327)" />
    <path
       id="path73"
       d="m 43,1 c 42,0 87,1 136,1 50,0 100,0 137,-2 h 16 c 6,6 6,5 10,19 5,21 3,19 -3,27 h -32 c -31,1 -47,2 -55,4 -5,1 -7,4 -7,9 0,0 136,556 143,565 5,6 9,8 19,10 11,1 40,3 64,3 20,0 20,0 23,2 3,3 4,5 7,19 2,7 3,11 3,14 0,5 -4,8 -7,11 h -10 c -9,-2 -41,-2 -73,-2 h -55 c -52,0 -110,1 -146,2 -14,0 -14,0 -17,-2 -3,-3 -4,-5 -7,-19 -5,-17 -4,-19 4,-25 h 20 c 36,0 66,-3 71,-6 0,-1 1,-3 2,-5 0,-2 -16,-66 -70,-282 C 140,38 146,59 136,53 121,46 92,46 60,46 H 54 C 33,46 35,45 29,24 27,16 26,12 26,10 26,2 30,1 43,1 Z"
       style="fill:#000000;fill-opacity:1;fill-rule:nonzero;stroke:#000000;stroke-width:1;stroke-linecap:butt;stroke-linejoin:miter;stroke-miterlimit:10;stroke-dasharray:none;stroke-opacity:0.0215"
       transform="matrix(0.00789158,0.00536311,0.00536311,-0.00789158,192.59357,343.41717)" />
    <path
       id="path74"
       d="m 43,1 c 42,0 87,1 136,1 50,0 100,0 137,-2 h 16 c 6,6 6,5 10,19 5,21 3,19 -3,27 h -32 c -31,1 -47,2 -55,4 -5,1 -7,4 -7,9 0,0 136,556 143,565 5,6 9,8 19,10 11,1 40,3 64,3 20,0 20,0 23,2 3,3 4,5 7,19 2,7 3,11 3,14 0,5 -4,8 -7,11 h -10 c -9,-2 -41,-2 -73,-2 h -55 c -52,0 -110,1 -146,2 -14,0 -14,0 -17,-2 -3,-3 -4,-5 -7,-19 -5,-17 -4,-19 4,-25 h 20 c 36,0 66,-3 71,-6 0,-1 1,-3 2,-5 0,-2 -16,-66 -70,-282 C 140,38 146,59 136,53 121,46 92,46 60,46 H 54 C 33,46 35,45 29,24 27,16 26,12 26,10 26,2 30,1 43,1 Z"
       style="fill:#000000;fill-opacity:1;fill-rule:nonzero;stroke:#000000;stroke-width:1;stroke-linecap:butt;stroke-linejoin:miter;stroke-miterlimit:10;stroke-dasharray:none;stroke-opacity:0.0215"
       transform="matrix(0.00789158,0.00536311,0.00536311,-0.00789158,196.57093,346.12018)" />
    <path
       id="path75"
       d="m 43,1 c 42,0 87,1 136,1 50,0 100,0 137,-2 h 16 c 6,6 6,5 10,19 5,21 3,19 -3,27 h -32 c -31,1 -47,2 -55,4 -5,1 -7,4 -7,9 0,0 136,556 143,565 5,6 9,8 19,10 11,1 40,3 64,3 20,0 20,0 23,2 3,3 4,5 7,19 2,7 3,11 3,14 0,5 -4,8 -7,11 h -10 c -9,-2 -41,-2 -73,-2 h -55 c -52,0 -110,1 -146,2 -14,0 -14,0 -17,-2 -3,-3 -4,-5 -7,-19 -5,-17 -4,-19 4,-25 h 20 c 36,0 66,-3 71,-6 0,-1 1,-3 2,-5 0,-2 -16,-66 -70,-282 C 140,38 146,59 136,53 121,46 92,46 60,46 H 54 C 33,46 35,45 29,24 27,16 26,12 26,10 26,2 30,1 43,1 Z"
       style="fill:#000000;fill-opacity:1;fill-rule:nonzero;stroke:#000000;stroke-width:1;stroke-linecap:butt;stroke-linejoin:miter;stroke-miterlimit:10;stroke-dasharray:none;stroke-opacity:0.0215"
       transform="matrix(0.00789158,0.00536311,0.00536311,-0.00789158,200.54829,348.82323)" />
    <path
       id="path133"
       d="m 47.288815,118.1985 c -0.02698,0 -0.05395,0.0135 -0.08093,0.0405 -0.04046,0.027 -0.05395,0.0674 -0.09441,0.2158 -0.05395,0.21581 -0.05395,0.26976 0.01349,0.32371 0.04046,0.0405 0.04046,0.0405 0.323701,0.0405 0.391138,0.0135 0.660889,-0.027 0.620426,0.28324 0,0.0135 -1.36224,5.48942 -1.36224,5.5164 -0.06744,0.31021 -0.08093,0.47206 -0.08093,0.76879 0,0.98458 0.391139,1.69942 1.052028,1.99615 0.242775,0.12139 0.472063,0.17534 0.741814,0.17534 1.631991,0 3.358395,-1.88826 3.358395,-3.92487 0,-1.18691 -0.620427,-1.94221 -1.537579,-2.15801 -0.08093,-0.0135 -0.202313,-0.027 -0.337188,-0.027 -0.134875,0 -0.256263,0.0135 -0.337188,0.027 -0.337188,0.0809 -0.728327,0.26975 -1.025052,0.51253 -0.05395,0.054 -0.08093,0.0674 -0.08093,0.0405 0,-0.0135 0.229288,-0.87669 0.485552,-1.92872 0.404625,-1.59153 0.458576,-1.86128 0.458576,-1.92871 0,-0.0809 -0.08093,-0.12139 -0.161851,-0.12139 -0.02698,0 -1.928717,0.14836 -1.955692,0.14836 m 3.33142,4.82854 c 0,0.36416 -0.05395,0.67437 -0.242775,1.42968 -0.310214,1.25434 -0.526014,1.75337 -0.98459,2.17149 -0.296726,0.28324 -0.620426,0.4316 -0.903665,0.4316 -0.202312,0 -0.391138,-0.0674 -0.539501,-0.2158 -0.242775,-0.24278 -0.3237,-0.48555 -0.3237,-0.9711 0,-0.28324 0.01349,-0.40463 0.08093,-0.75531 0.04046,-0.2158 0.485551,-1.98266 0.499038,-2.0501 0.01349,-0.0135 0.05395,-0.0809 0.107901,-0.13488 0.404625,-0.5395 0.876689,-0.87668 1.321778,-0.9711 0.04046,0 0.1079,-0.0135 0.16185,-0.0135 0.606939,0 0.822739,0.44508 0.822739,1.079 z"
       style="fill:#b85450;fill-opacity:1;fill-rule:nonzero;stroke:#b85450;stroke-width:0.0134875;stroke-linecap:butt;stroke-linejoin:miter;stroke-miterlimit:10;stroke-dasharray:none;stroke-opacity:0.0303" />
    <path
       id="path134"
       d="m 56.725156,129.43362 h 0.08582 v -0.43864 h -0.276535 c -0.390963,-0.01 -0.476784,-0.0191 -0.543534,-0.0763 -0.05721,-0.0572 -0.05721,-0.0477 -0.05721,-0.57214 v -0.48632 h 0.877283 v -0.43865 h -0.877283 v -4.38641 l -0.05721,-0.0572 h -0.171643 c -0.162107,0 -0.181178,0 -0.200249,0.0191 -0.01907,0.01 -0.572142,0.84868 -1.478032,2.22182 l -1.43989,2.20274 v 0.43865 h 2.469744 v 0.47678 c 0,0.32421 0,0.49586 -0.0095,0.51493 -0.01907,0.0381 -0.06675,0.0858 -0.114428,0.0954 -0.07628,0.0286 -0.200249,0.0381 -0.505391,0.0477 h -0.295607 v 0.43864 h 0.08582 c 0.1335,-0.0286 1.020319,-0.0286 1.277783,-0.0286 0.247928,0 1.096604,0 1.230104,0.0286 m -1.611532,-2.01203 H 54.06474 l -1.03939,-0.01 2.088316,-3.17539 z"
       style="fill:#b85450;fill-opacity:1;fill-rule:nonzero;stroke:#b85450;stroke-width:0.00953569;stroke-linecap:butt;stroke-linejoin:miter;stroke-miterlimit:10;stroke-dasharray:none;stroke-opacity:0.0215" />
    <path
       id="path135"
       d="m 487,153 h -4 c -15,0 -14,-1 -20,-22 -14,-54 -25,-81 -41,-96 -7,-5 -12,-8 -20,-9 -23,0 -28,18 -28,42 0,34 75,299 75,326 0,17 -17,28 -33,28 -21,0 -37,-13 -46,-30 -21,26 -47,49 -90,49 -47,0 -87,-18 -122,-45 C 97,350 44,267 34,179 c -1,-6 -1,-14 -1,-22 0,-48 9,-81 30,-112 24,-31 55,-55 109,-55 10,0 19,0 25,1 32,7 64,26 95,55 7,6 7,7 8,5 0,-2 3,-7 5,-12 15,-29 46,-49 88,-49 15,0 16,0 24,2 12,5 21,10 32,21 22,22 39,58 54,116 2,8 3,12 3,15 0,9 -4,9 -19,9 M 118,106 c 0,8 1,16 1,23 5,36 27,126 41,164 18,50 59,112 117,112 30,0 50,-17 63,-43 4,-8 11,-25 11,-34 0,-11 -50,-213 -53,-218 -5,-10 -40,-49 -57,-60 -22,-16 -43,-24 -62,-24 -42,0 -61,34 -61,80 z"
       style="fill:#b85450;fill-opacity:1;fill-rule:nonzero;stroke:#b85450;stroke-width:1;stroke-linecap:butt;stroke-linejoin:miter;stroke-miterlimit:10;stroke-dasharray:none;stroke-opacity:0.0304"
       transform="matrix(0.01349076,0,0,-0.01349076,32.138021,126.8423)" />
    <path
       id="path136"
       d="m 462,0 h 9 v 46 h -29 c -41,1 -50,2 -57,8 -6,6 -6,5 -6,60 v 51 h 92 v 46 h -92 v 460 l -6,6 h -18 c -17,0 -19,0 -21,-2 -2,-1 -60,-89 -155,-233 L 28,211 v -46 h 259 v -50 c 0,-34 0,-52 -1,-54 -2,-4 -7,-9 -12,-10 -8,-3 -21,-4 -53,-5 H 190 V 0 h 9 c 14,3 107,3 134,3 26,0 115,0 129,-3 M 293,211 H 183 l -109,1 219,333 z"
       style="fill:#b85450;fill-opacity:1;fill-rule:nonzero;stroke:#b85450;stroke-width:1;stroke-linecap:butt;stroke-linejoin:miter;stroke-miterlimit:10;stroke-dasharray:none;stroke-opacity:0.0215"
       transform="matrix(0.00953797,0,0,-0.00953797,39.719827,128.86591)" />
    <path
       id="path137"
       d="m 118.6565,62.023248 c -0.51259,0.02698 -0.94424,0.06745 -0.97122,0.06745 -0.10791,0 -0.13489,0.09442 -0.17536,0.256294 -0.0675,0.296762 -0.0405,0.269783 0.054,0.364207 h 0.28327 c 0.29676,0.01349 0.45863,0.04047 0.53957,0.06745 0.0674,0.04047 0.0809,0.09442 0.0809,0.215827 -0.0135,0.08094 -0.71492,2.900172 -0.7419,2.967617 0,0.02698 -0.0135,0.01349 -0.0674,-0.05396 -0.22931,-0.33723 -0.67446,-0.566545 -1.13309,-0.566545 -0.17536,0 -0.36421,0.02698 -0.55305,0.08094 -0.68795,0.175359 -1.32194,0.620501 -1.86151,1.281471 -0.44514,0.593523 -0.91726,1.497298 -0.91726,2.482007 0,0.64748 0.1214,1.092623 0.40467,1.510787 0.32374,0.418164 0.74191,0.741904 1.47032,0.741904 0.13489,0 0.2563,0 0.33723,-0.01349 0.43165,-0.09442 0.86331,-0.350718 1.28147,-0.741904 0.0944,-0.08094 0.0944,-0.09442 0.10791,-0.06745 0,0.02698 0.0405,0.09442 0.0675,0.16187 0.20234,0.391186 0.6205,0.660969 1.18705,0.660969 0.20234,0 0.21582,0 0.32374,-0.02698 0.16187,-0.06745 0.28327,-0.134892 0.43165,-0.283273 0.29676,-0.296761 0.52608,-0.782371 0.72842,-1.564743 0.027,-0.107914 0.0405,-0.16187 0.0405,-0.215827 0,-0.09442 -0.0674,-0.107913 -0.25629,-0.107913 h -0.054 c -0.20233,0 -0.18885,0.01349 -0.26978,0.296761 -0.18885,0.728416 -0.33723,1.092623 -0.55306,1.294961 -0.0944,0.06745 -0.16187,0.107913 -0.26978,0.121402 -0.31025,0 -0.3777,-0.242805 -0.3777,-0.566545 0,-0.06745 0,-0.134892 0.0135,-0.202337 0.027,-0.188849 1.9964,-7.9721 1.9964,-8.13397 0,-0.08094 -0.0944,-0.107913 -0.16187,-0.107913 -0.0405,0 -0.48561,0.04047 -0.98471,0.08093 m -1.16007,4.883079 -0.72841,2.92715 -0.10792,0.148381 c -0.33723,0.418164 -0.90377,0.97122 -1.49729,0.97122 -0.56655,0 -0.82284,-0.458632 -0.82284,-1.079133 0,-0.107914 0.0135,-0.215827 0.0135,-0.310251 0.0674,-0.48561 0.36421,-1.699636 0.55306,-2.212224 0.24281,-0.674459 0.79586,-1.510787 1.57823,-1.510787 0.59353,0 0.84982,0.48561 1.01169,1.065644 z"
       style="fill:#b85450;fill-opacity:1;fill-rule:nonzero;stroke:#b85450;stroke-width:0.0134892;stroke-linecap:butt;stroke-linejoin:miter;stroke-miterlimit:10;stroke-dasharray:none;stroke-opacity:0.0304" />
    <path
       id="path138"
       d="m 121.41893,68.911619 c 0.34333,0 0.56268,-0.247958 0.56268,-0.5436 0,-0.276568 -0.19074,-0.524526 -0.44823,-0.553137 -0.0382,-0.0095 -0.0668,-0.01907 -0.0668,-0.01907 -0.01,-0.0095 0.11444,-0.133515 0.19074,-0.181199 0.22888,-0.162127 0.55313,-0.257495 0.83924,-0.257495 0.19073,0 0.30518,0.03815 0.44823,0.133516 0.24796,0.152589 0.33379,0.410084 0.33379,0.829705 0,0.7248 -0.27657,1.392378 -0.85832,1.468673 -0.0572,0.0095 -0.52452,0.04768 -0.55313,0.04768 -0.01,0 -0.0286,0.0095 -0.0477,0.02861 -0.0286,0.02861 -0.0286,0.02861 -0.0286,0.143052 0,0.114442 0,0.123979 0.0191,0.15259 l 0.0286,0.01907 0.40054,0.0095 c 0.4387,0.0095 0.4387,0.0095 0.58175,0.06676 0.38147,0.190737 0.61036,0.619895 0.61036,1.211179 v 0.190737 c 0,0.476842 -0.0382,0.7248 -0.16213,0.963221 -0.17166,0.324252 -0.45777,0.505452 -0.79156,0.505452 -0.4673,0 -0.88692,-0.1812 -1.18256,-0.429158 l 0.0667,-0.01907 c 0.27657,-0.06676 0.45777,-0.295642 0.45777,-0.591285 0,-0.343326 -0.25749,-0.60082 -0.61036,-0.60082 -0.32425,0 -0.60082,0.238421 -0.60082,0.60082 0,0.143053 0.0286,0.324253 0.0954,0.467306 0.22889,0.591284 0.93461,0.982294 1.77385,0.982294 0.86786,0 1.61173,-0.486379 1.90737,-1.125347 0.12398,-0.247958 0.1812,-0.495916 0.1812,-0.75341 0,-0.5436 -0.29564,-1.020442 -0.78202,-1.335158 -0.40055,-0.267031 -0.7248,-0.286105 -0.7248,-0.314716 0,-0.0095 0.01,-0.0095 0.0286,-0.01907 0.66758,-0.247958 1.22072,-0.867853 1.22072,-1.640337 0,-0.09537 -0.01,-0.190737 -0.0286,-0.257494 -0.10491,-0.381474 -0.37194,-0.686653 -0.79156,-0.896463 -0.20981,-0.09537 -0.41009,-0.162127 -0.63897,-0.200274 -0.0858,-0.0095 -0.27657,-0.0095 -0.41962,-0.0095 h -0.14305 c -0.69619,0.08583 -1.42099,0.57221 -1.42099,1.344695 0,0.333789 0.20027,0.581747 0.55313,0.581747 z"
       style="fill:#b85450;fill-opacity:1;fill-rule:nonzero;stroke:#b85450;stroke-width:0.00953684;stroke-linecap:butt;stroke-linejoin:miter;stroke-miterlimit:10;stroke-dasharray:none;stroke-opacity:0.0215" />
    <path
       id="path139"
       d="m 102.72671,70.717727 c -0.0405,0 -0.081,0.04048 -0.16191,0.134921 -0.52619,0.607148 -1.24128,0.998421 -2.07779,1.11985 -0.10794,0.01349 -0.26984,0.02699 -0.41826,0.02699 -0.431747,0 -0.63413,-0.107938 -0.836513,-0.323812 -0.242859,-0.215875 -0.350796,-0.499211 -0.350796,-0.93096 0,-0.269844 0.05397,-0.607148 0.148414,-1.011913 0.283335,-1.200803 0.526195,-1.753982 0.998425,-2.226208 0.18889,-0.18889 0.36428,-0.323812 0.58016,-0.418257 0.28333,-0.148414 0.45873,-0.188891 0.76905,-0.188891 0.59366,0 0.82303,0.188891 0.82303,0.229367 l -0.0135,0.01349 c -0.0135,0 -0.0809,0.02699 -0.14842,0.06746 -0.29683,0.134922 -0.48572,0.445242 -0.48572,0.755562 0,0.337304 0.21588,0.539687 0.55318,0.539687 0.5262,0 0.90398,-0.391273 0.90398,-0.944452 0,-0.43175 -0.28334,-0.823023 -0.75556,-1.025405 -0.25636,-0.09445 -0.56668,-0.148414 -0.877,-0.148414 -0.081,0 -0.17539,0 -0.25635,0.01349 -1.335722,0.148414 -2.63097,1.187311 -3.157165,2.536528 -0.175398,0.445242 -0.256351,0.836515 -0.256351,1.268264 0,0.445242 0.08095,0.769054 0.256351,1.106358 0.337305,0.701593 1.025405,1.187311 2.010334,1.187311 0.175401,0 0.377781,-0.01349 0.526191,-0.02698 0.82303,-0.12143 1.5516,-0.43175 2.11827,-0.944452 0.14842,-0.134922 0.41826,-0.404765 0.41826,-0.499211 0,-0.06746 -0.22937,-0.310319 -0.31032,-0.310319 z"
       style="fill:#b85450;fill-opacity:1;fill-rule:nonzero;stroke:#b85450;stroke-width:0.0134922;stroke-linecap:butt;stroke-linejoin:miter;stroke-miterlimit:10;stroke-dasharray:none;stroke-opacity:0.0304" />
    <path
       id="path140"
       d="m 104.74769,69.957553 c 0.3434,0 0.5628,-0.248013 0.5628,-0.543721 0,-0.27663 -0.19078,-0.524644 -0.44833,-0.553261 -0.0382,-0.0095 -0.0668,-0.01908 -0.0668,-0.01908 -0.009,-0.0095 0.11447,-0.133545 0.19078,-0.18124 0.22894,-0.162162 0.55326,-0.257552 0.83943,-0.257552 0.19078,0 0.30525,0.03816 0.44833,0.133545 0.24802,0.152624 0.33387,0.410176 0.33387,0.829891 0,0.724962 -0.27663,1.392689 -0.85851,1.469001 -0.0572,0.0095 -0.52464,0.04769 -0.55326,0.04769 -0.01,0 -0.0286,0.0095 -0.0477,0.02862 -0.0286,0.02862 -0.0286,0.02862 -0.0286,0.143085 0,0.114467 0,0.124006 0.0191,0.152623 l 0.0286,0.01908 0.40064,0.0095 c 0.43879,0.0095 0.43879,0.0095 0.58188,0.06677 0.38156,0.190779 0.61049,0.620033 0.61049,1.211449 v 0.190779 c 0,0.476949 -0.0382,0.724962 -0.16216,0.963436 -0.1717,0.324325 -0.45787,0.505566 -0.79173,0.505566 -0.46741,0 -0.88713,-0.181241 -1.18284,-0.429254 l 0.0668,-0.01908 c 0.27663,-0.06677 0.45787,-0.295708 0.45787,-0.591416 0,-0.343403 -0.25756,-0.600955 -0.61049,-0.600955 -0.32433,0 -0.60096,0.238474 -0.60096,0.600955 0,0.143085 0.0286,0.324325 0.0954,0.46741 0.22894,0.591416 0.93482,0.982513 1.77425,0.982513 0.86804,0 1.61208,-0.486487 1.90779,-1.125598 0.12401,-0.248013 0.18124,-0.496026 0.18124,-0.753579 0,-0.543721 -0.29571,-1.020669 -0.7822,-1.335455 -0.40063,-0.267092 -0.72496,-0.28617 -0.72496,-0.314786 0,-0.0095 0.01,-0.0095 0.0286,-0.01908 0.66773,-0.248014 1.22099,-0.868047 1.22099,-1.640703 0,-0.09539 -0.01,-0.19078 -0.0286,-0.257552 -0.10493,-0.381559 -0.37202,-0.686806 -0.79173,-0.896664 -0.20986,-0.09539 -0.41018,-0.162162 -0.63911,-0.200318 -0.0859,-0.0095 -0.27664,-0.0095 -0.41972,-0.0095 h -0.14308 c -0.69635,0.08585 -1.42131,0.572338 -1.42131,1.344995 0,0.333864 0.20032,0.581877 0.55327,0.581877 z"
       style="fill:#b85450;fill-opacity:1;fill-rule:nonzero;stroke:#b85450;stroke-width:0.00953897;stroke-linecap:butt;stroke-linejoin:miter;stroke-miterlimit:10;stroke-dasharray:none;stroke-opacity:0.0215" />
    <path
       id="path141"
       d="m 83.265606,64.054019 c -0.02698,0 -0.05395,0.01349 -0.08093,0.04046 -0.04046,0.02698 -0.05395,0.06744 -0.09441,0.215801 -0.05395,0.2158 -0.05395,0.26975 0.01349,0.3237 0.04046,0.04046 0.04046,0.04046 0.3237,0.04046 0.391139,0.01349 0.660889,-0.02698 0.620427,0.283238 0,0.01349 -1.362241,5.489425 -1.362241,5.5164 -0.06744,0.310213 -0.08093,0.472063 -0.08093,0.768789 0,0.98459 0.391139,1.699429 1.052027,1.996155 0.242776,0.121387 0.472064,0.175337 0.741815,0.175337 1.631991,0 3.358395,-1.888254 3.358395,-3.924871 0,-1.186902 -0.620427,-1.942204 -1.537579,-2.158005 -0.08092,-0.01349 -0.202313,-0.02698 -0.337188,-0.02698 -0.134875,0 -0.256263,0.01349 -0.337188,0.02698 -0.337189,0.08093 -0.728327,0.269751 -1.025053,0.512527 -0.05395,0.05395 -0.08093,0.06744 -0.08093,0.04046 0,-0.01349 0.229288,-0.876689 0.485551,-1.928717 0.404626,-1.591528 0.458576,-1.861279 0.458576,-1.928716 0,-0.08093 -0.08093,-0.121388 -0.16185,-0.121388 -0.02698,0 -1.928717,0.148363 -1.955692,0.148363 m 3.33142,4.828535 c 0,0.364164 -0.05395,0.674377 -0.242776,1.429679 -0.310213,1.25434 -0.526013,1.753378 -0.984589,2.171492 -0.296726,0.283238 -0.620427,0.431601 -0.903665,0.431601 -0.202313,0 -0.391138,-0.06744 -0.539501,-0.215801 -0.242775,-0.242775 -0.323701,-0.485551 -0.323701,-0.971102 0,-0.283238 0.01349,-0.404626 0.08093,-0.755301 0.04046,-0.215801 0.485551,-1.982667 0.499038,-2.050105 0.01349,-0.01349 0.05395,-0.08093 0.1079,-0.134875 0.404626,-0.539502 0.87669,-0.87669 1.321778,-0.971103 0.04046,0 0.107901,-0.01349 0.161851,-0.01349 0.606939,0 0.822739,0.445088 0.822739,1.079002 z"
       style="fill:#b85450;fill-opacity:1;fill-rule:nonzero;stroke:#b85450;stroke-width:0.0134875;stroke-linecap:butt;stroke-linejoin:miter;stroke-miterlimit:10;stroke-dasharray:none;stroke-opacity:0.0303" />
    <path
       id="path142"
       d="m 89.507499,70.874109 c 0.343284,0 0.562605,-0.247928 0.562605,-0.543534 0,-0.276535 -0.190714,-0.524463 -0.448177,-0.55307 -0.03814,-0.0095 -0.06675,-0.01907 -0.06675,-0.01907 -0.0095,-0.0095 0.114428,-0.133499 0.190714,-0.181178 0.228856,-0.162106 0.55307,-0.257463 0.839141,-0.257463 0.190713,0 0.305142,0.03814 0.448177,0.133499 0.247928,0.152571 0.333749,0.410035 0.333749,0.829605 0,0.724713 -0.276535,1.392211 -0.858212,1.468497 -0.05721,0.0095 -0.524463,0.04768 -0.55307,0.04768 -0.0095,0 -0.02861,0.0095 -0.04768,0.02861 -0.02861,0.02861 -0.02861,0.02861 -0.02861,0.143035 0,0.114429 0,0.123964 0.01907,0.152572 l 0.02861,0.01907 0.400499,0.0095 c 0.438642,0.0095 0.438642,0.0095 0.581677,0.06675 0.381428,0.190714 0.610284,0.61982 0.610284,1.211033 v 0.190714 c 0,0.476784 -0.03814,0.724712 -0.162107,0.963105 -0.171642,0.324213 -0.457713,0.505391 -0.791462,0.505391 -0.467249,0 -0.886819,-0.181178 -1.182425,-0.429106 l 0.06675,-0.01907 c 0.276535,-0.06675 0.457714,-0.295607 0.457714,-0.591213 0,-0.343285 -0.257464,-0.600749 -0.610285,-0.600749 -0.324213,0 -0.600748,0.238393 -0.600748,0.600749 0,0.143035 0.02861,0.324213 0.09536,0.467249 0.228856,0.591213 0.934497,0.982176 1.773638,0.982176 0.867748,0 1.611532,-0.48632 1.907138,-1.125212 0.123964,-0.247928 0.181178,-0.495856 0.181178,-0.753319 0,-0.543534 -0.295606,-1.020319 -0.781926,-1.334997 -0.400499,-0.266999 -0.724713,-0.28607 -0.724713,-0.314678 0,-0.0095 0.0095,-0.0095 0.02861,-0.01907 0.667499,-0.247928 1.220569,-0.867748 1.220569,-1.640139 0,-0.09536 -0.0095,-0.190713 -0.02861,-0.257463 -0.104893,-0.381428 -0.371892,-0.68657 -0.791463,-0.896355 -0.209785,-0.09536 -0.410034,-0.162107 -0.638891,-0.20025 -0.08582,-0.0095 -0.276535,-0.0095 -0.41957,-0.0095 h -0.143036 c -0.696105,0.08582 -1.420817,0.572141 -1.420817,1.344532 0,0.333749 0.200249,0.581677 0.55307,0.581677 z"
       style="fill:#b85450;fill-opacity:1;fill-rule:nonzero;stroke:#b85450;stroke-width:0.00953569;stroke-linecap:butt;stroke-linejoin:miter;stroke-miterlimit:10;stroke-dasharray:none;stroke-opacity:0.0215" />
    <path
       id="path143"
       d="m 71.973457,69.722856 h -0.05396 c -0.202346,0 -0.188856,0.01349 -0.269794,0.296773 -0.188856,0.728445 -0.337243,1.092667 -0.553078,1.295013 -0.09443,0.06745 -0.161877,0.107917 -0.269794,0.121407 -0.310264,0 -0.377712,-0.242815 -0.377712,-0.566568 0,-0.45865 1.011728,-4.033423 1.011728,-4.397645 0,-0.229325 -0.229325,-0.377712 -0.44516,-0.377712 -0.283284,0 -0.49912,0.175366 -0.620527,0.404691 -0.283284,-0.350732 -0.634016,-0.660996 -1.214074,-0.660996 -0.634016,0 -1.173605,0.242815 -1.645745,0.607037 -0.822872,0.620527 -1.537827,1.740173 -1.672724,2.927267 -0.01349,0.08094 -0.01349,0.188856 -0.01349,0.296774 0,0.647506 0.121407,1.092666 0.404691,1.510847 0.323753,0.418182 0.741934,0.741935 1.470378,0.741935 0.134897,0 0.256305,0 0.337243,-0.01349 0.431671,-0.09443 0.863342,-0.350733 1.281523,-0.741934 0.09443,-0.08094 0.09443,-0.09443 0.107917,-0.06745 0,0.02698 0.04047,0.09443 0.06745,0.161877 0.202345,0.391201 0.620526,0.660996 1.187094,0.660996 0.202346,0 0.215836,0 0.323753,-0.02698 0.161877,-0.06745 0.283284,-0.134897 0.431671,-0.283284 0.296774,-0.296773 0.526099,-0.782403 0.728444,-1.564806 0.02698,-0.107918 0.04047,-0.161877 0.04047,-0.202346 0,-0.121407 -0.05396,-0.121407 -0.256304,-0.121407 m -4.977703,0.634016 c 0,-0.107917 0.01349,-0.215835 0.01349,-0.310263 0.06745,-0.48563 0.364222,-1.699704 0.553078,-2.212313 0.242815,-0.674485 0.795893,-1.510847 1.578296,-1.510847 0.404691,0 0.674485,0.229325 0.849852,0.580057 0.05396,0.107918 0.148386,0.337243 0.148386,0.458651 0,0.148386 -0.674485,2.873308 -0.714954,2.940756 -0.06745,0.134897 -0.539589,0.660996 -0.768914,0.809383 -0.296773,0.215835 -0.580057,0.323753 -0.836362,0.323753 -0.566568,0 -0.822872,-0.45865 -0.822872,-1.079177 z"
       style="fill:#b85450;fill-opacity:1;fill-rule:nonzero;stroke:#b85450;stroke-width:0.0134897;stroke-linecap:butt;stroke-linejoin:miter;stroke-miterlimit:10;stroke-dasharray:none;stroke-opacity:0.0304" />
    <path
       id="path144"
       d="m 74.196425,69.394505 c 0.34334,0 0.562696,-0.247968 0.562696,-0.543622 0,-0.276579 -0.190744,-0.524547 -0.448249,-0.553159 -0.03815,-0.0095 -0.06676,-0.01907 -0.06676,-0.01907 -0.0095,-0.0095 0.114447,-0.133521 0.190745,-0.181207 0.228893,-0.162133 0.553158,-0.257505 0.839275,-0.257505 0.190744,0 0.305191,0.03815 0.448249,0.133521 0.247968,0.152595 0.333803,0.4101 0.333803,0.829738 0,0.724829 -0.276579,1.392434 -0.85835,1.468732 -0.05722,0.0095 -0.524547,0.04769 -0.553159,0.04769 -0.0095,0 -0.02861,0.0095 -0.04769,0.02861 -0.02861,0.02861 -0.02861,0.02861 -0.02861,0.143058 0,0.114447 0,0.123984 0.01907,0.152595 l 0.02861,0.01908 0.400563,0.0095 c 0.438712,0.0095 0.438712,0.0095 0.58177,0.06676 0.381489,0.190744 0.610383,0.619919 0.610383,1.211227 v 0.190744 c 0,0.476861 -0.03815,0.724829 -0.162133,0.963259 -0.17167,0.324266 -0.457787,0.505473 -0.791589,0.505473 -0.467324,0 -0.886962,-0.181207 -1.182616,-0.429175 l 0.06676,-0.01908 c 0.276579,-0.06676 0.457786,-0.295653 0.457786,-0.591307 0,-0.34334 -0.257505,-0.600845 -0.610382,-0.600845 -0.324265,0 -0.600845,0.23843 -0.600845,0.600845 0,0.143058 0.02861,0.324265 0.09537,0.467324 0.228893,0.591307 0.934647,0.982333 1.773923,0.982333 0.867887,0 1.61179,-0.486398 1.907444,-1.125392 0.123983,-0.247967 0.181207,-0.495935 0.181207,-0.75344 0,-0.543622 -0.295654,-1.020483 -0.782052,-1.335211 -0.400564,-0.267042 -0.724829,-0.286116 -0.724829,-0.314728 0,-0.0095 0.0095,-0.0095 0.02861,-0.01908 0.667605,-0.247967 1.220764,-0.867887 1.220764,-1.640401 0,-0.09537 -0.0095,-0.190745 -0.02861,-0.257505 -0.104909,-0.381489 -0.371951,-0.68668 -0.791589,-0.896499 -0.209819,-0.09537 -0.410101,-0.162133 -0.638994,-0.200282 -0.08584,-0.0095 -0.276579,-0.0095 -0.419638,-0.0095 h -0.143046 c -0.696217,0.08584 -1.421046,0.572233 -1.421046,1.344748 0,0.333803 0.200282,0.581771 0.553159,0.581771 z"
       style="fill:#b85450;fill-opacity:1;fill-rule:nonzero;stroke:#b85450;stroke-width:0.00953722;stroke-linecap:butt;stroke-linejoin:miter;stroke-miterlimit:10;stroke-dasharray:none;stroke-opacity:0.0215" />
    <path
       id="path145"
       d="m 224.41473,32.64084 c -0.51259,0.02698 -0.94425,0.06745 -0.97122,0.06745 -0.10792,0 -0.1349,0.09442 -0.17536,0.256294 -0.0675,0.296762 -0.0405,0.269783 0.054,0.364207 h 0.28328 c 0.29676,0.01349 0.45863,0.04047 0.53956,0.06745 0.0675,0.04047 0.0809,0.09442 0.0809,0.215827 -0.0135,0.08093 -0.71493,2.900172 -0.74191,2.967617 0,0.02698 -0.0135,0.01349 -0.0674,-0.05396 -0.22932,-0.337229 -0.67446,-0.566545 -1.13309,-0.566545 -0.17536,0 -0.36421,0.02698 -0.55306,0.08094 -0.68795,0.175359 -1.32194,0.620501 -1.8615,1.281471 -0.44515,0.593523 -0.91727,1.497298 -0.91727,2.482007 0,0.64748 0.1214,1.092623 0.40468,1.510787 0.32374,0.418164 0.7419,0.741904 1.47032,0.741904 0.13489,0 0.25629,0 0.33723,-0.01349 0.43165,-0.09442 0.8633,-0.350718 1.28147,-0.741904 0.0944,-0.08094 0.0944,-0.09442 0.10791,-0.06745 0,0.02698 0.0405,0.09442 0.0674,0.16187 0.20233,0.391186 0.6205,0.660969 1.18704,0.660969 0.20234,0 0.21583,0 0.32374,-0.02698 0.16187,-0.06745 0.28328,-0.134892 0.43166,-0.283272 0.29676,-0.296762 0.52607,-0.782372 0.72841,-1.564744 0.027,-0.107914 0.0405,-0.16187 0.0405,-0.215827 0,-0.09442 -0.0674,-0.107913 -0.2563,-0.107913 h -0.054 c -0.20234,0 -0.18885,0.01349 -0.26979,0.296762 -0.18884,0.728415 -0.33722,1.092622 -0.55305,1.29496 -0.0944,0.06745 -0.16187,0.107913 -0.26978,0.121402 -0.31026,0 -0.3777,-0.242805 -0.3777,-0.566545 0,-0.06745 0,-0.134891 0.0135,-0.202337 0.027,-0.188849 1.9964,-7.9721 1.9964,-8.13397 0,-0.08094 -0.0944,-0.107913 -0.16188,-0.107913 -0.0405,0 -0.48561,0.04047 -0.9847,0.08094 m -1.16007,4.883079 -0.72842,2.92715 -0.10791,0.148381 c -0.33723,0.418164 -0.90378,0.97122 -1.4973,0.97122 -0.56654,0 -0.82284,-0.458631 -0.82284,-1.079133 0,-0.107914 0.0135,-0.215827 0.0135,-0.310251 0.0674,-0.48561 0.36421,-1.699636 0.55306,-2.212224 0.2428,-0.674459 0.79586,-1.510787 1.57823,-1.510787 0.59352,0 0.84982,0.48561 1.01169,1.065644 z"
       style="fill:#b85450;fill-opacity:1;fill-rule:nonzero;stroke:#b85450;stroke-width:0.0134892;stroke-linecap:butt;stroke-linejoin:miter;stroke-miterlimit:10;stroke-dasharray:none;stroke-opacity:0.0304" />
    <path
       id="path146"
       d="m 227.01503,39.853462 c 0.35286,0 0.57221,-0.267031 0.57221,-0.57221 0,-0.295642 -0.20027,-0.57221 -0.53406,-0.57221 -0.0286,0 -0.0477,0 -0.0477,-0.0095 0,-0.0095 0.0477,-0.08583 0.0858,-0.162127 0.20981,-0.305178 0.4673,-0.495915 0.89646,-0.495915 0.82017,0 1.24933,0.677115 1.24933,1.47821 0,0.553137 -0.20982,1.010905 -0.63897,1.592652 -0.20981,0.267032 -0.2575,0.33379 -1.33516,1.525895 -0.42916,0.486379 -0.79156,0.896463 -0.8011,0.905999 -0.0191,0.02861 -0.0191,0.05722 -0.0191,0.219348 v 0.1812 h 3.53817 v -0.02861 c 0.0286,-0.05722 0.23842,-1.68802 0.26703,-1.745241 v -0.02861 h -0.38147 v 0.02861 c -0.0763,0.429157 -0.0858,0.514989 -0.13352,0.648505 -0.0286,0.09537 -0.0668,0.190736 -0.0954,0.200273 -0.0572,0.02861 -0.62943,0.04768 -1.59265,0.04768 l -0.7248,-0.0095 0.56267,-0.534063 c 0.64851,-0.619895 0.6199,-0.591284 0.95369,-0.87739 0.62943,-0.5436 0.87739,-0.801094 1.07766,-1.096736 0.22889,-0.33379 0.33379,-0.619895 0.33379,-1.039516 0,-0.114442 -0.01,-0.228884 -0.0191,-0.314716 -0.16213,-0.93461 -0.906,-1.602189 -2.02181,-1.602189 -0.97276,0 -1.76432,0.762948 -1.76432,1.668947 0,0.324253 0.20981,0.591284 0.57221,0.591284 z"
       style="fill:#b85450;fill-opacity:1;fill-rule:nonzero;stroke:#b85450;stroke-width:0.00953684;stroke-linecap:butt;stroke-linejoin:miter;stroke-miterlimit:10;stroke-dasharray:none;stroke-opacity:0.0215" />
    <path
       id="path147"
       d="m 210.92909,37.656429 c -0.0405,0 -0.081,0.04048 -0.16192,0.134933 -0.52623,0.607198 -1.24138,0.998503 -2.07796,1.119943 -0.10795,0.01349 -0.26987,0.02699 -0.4183,0.02699 -0.43178,0 -0.63418,-0.107947 -0.83658,-0.323839 -0.24288,-0.215893 -0.35082,-0.499252 -0.35082,-0.931037 0,-0.269866 0.054,-0.607198 0.14842,-1.011997 0.28336,-1.200903 0.52624,-1.754128 0.9985,-2.226393 0.18891,-0.188906 0.36432,-0.323839 0.58022,-0.418292 0.28336,-0.148426 0.45877,-0.188906 0.76911,-0.188906 0.59371,0 0.82309,0.188906 0.82309,0.229386 l -0.0135,0.01349 c -0.0135,0 -0.081,0.02699 -0.14842,0.06747 -0.29686,0.134933 -0.48576,0.445278 -0.48576,0.755624 0,0.337332 0.21589,0.539731 0.55322,0.539731 0.52624,0 0.90405,-0.391305 0.90405,-0.94453 0,-0.431785 -0.28336,-0.82309 -0.75562,-1.02549 -0.25637,-0.09445 -0.56672,-0.148426 -0.87707,-0.148426 -0.081,0 -0.17541,0 -0.25637,0.01349 -1.33583,0.148426 -2.63119,1.18741 -3.15743,2.536739 -0.17541,0.445278 -0.25637,0.836584 -0.25637,1.268369 0,0.445279 0.081,0.769118 0.25637,1.10645 0.33733,0.701651 1.02549,1.187409 2.0105,1.187409 0.17541,0 0.37781,-0.01349 0.52624,-0.02699 0.82309,-0.12144 1.55173,-0.431786 2.11845,-0.944531 0.14842,-0.134932 0.41829,-0.404798 0.41829,-0.499251 0,-0.06747 -0.22939,-0.310346 -0.31035,-0.310346 z"
       style="fill:#b85450;fill-opacity:1;fill-rule:nonzero;stroke:#b85450;stroke-width:0.0134933;stroke-linecap:butt;stroke-linejoin:miter;stroke-miterlimit:10;stroke-dasharray:none;stroke-opacity:0.0304" />
    <path
       id="path148"
       d="m 212.78809,37.220554 c 0.35297,0 0.57239,-0.267113 0.57239,-0.572385 0,-0.295733 -0.20034,-0.572386 -0.53423,-0.572386 -0.0286,0 -0.0477,0 -0.0477,-0.0095 0,-0.0095 0.0477,-0.08586 0.0859,-0.162176 0.20987,-0.305272 0.46745,-0.496067 0.89674,-0.496067 0.82042,0 1.2497,0.677323 1.2497,1.478663 0,0.553306 -0.20987,1.011214 -0.63916,1.593139 -0.20987,0.267114 -0.25757,0.333892 -1.33557,1.526362 -0.42928,0.486528 -0.7918,0.896737 -0.80134,0.906277 -0.0191,0.02862 -0.0191,0.05724 -0.0191,0.219415 v 0.181255 h 3.53925 v -0.02862 c 0.0286,-0.05724 0.23849,-1.688538 0.26711,-1.745776 v -0.02862 h -0.38159 v 0.02862 c -0.0763,0.429289 -0.0859,0.515147 -0.13356,0.648703 -0.0286,0.0954 -0.0668,0.190796 -0.0954,0.200335 -0.0572,0.02862 -0.62962,0.0477 -1.59314,0.0477 l -0.72502,-0.0095 0.56285,-0.534226 c 0.6487,-0.620084 0.62008,-0.591465 0.95397,-0.877658 0.62963,-0.543766 0.87766,-0.80134 1.078,-1.097072 0.22895,-0.333892 0.33389,-0.620085 0.33389,-1.039834 0,-0.114477 -0.01,-0.228954 -0.0191,-0.314812 -0.16218,-0.934897 -0.90628,-1.60268 -2.02243,-1.60268 -0.97305,0 -1.76485,0.763181 -1.76485,1.669458 0,0.324352 0.20987,0.591465 0.57238,0.591465 z"
       style="fill:#b85450;fill-opacity:1;fill-rule:nonzero;stroke:#b85450;stroke-width:0.00953976;stroke-linecap:butt;stroke-linejoin:miter;stroke-miterlimit:10;stroke-dasharray:none;stroke-opacity:0.0215" />
    <path
       id="path149"
       d="m 194.31186,30.433112 c -0.027,0 -0.0539,0.01349 -0.0809,0.04046 -0.0405,0.02698 -0.054,0.06744 -0.0944,0.215801 -0.0539,0.2158 -0.0539,0.26975 0.0135,0.323701 0.0405,0.04046 0.0405,0.04046 0.3237,0.04046 0.39114,0.01349 0.66089,-0.02698 0.62043,0.283238 0,0.01349 -1.36224,5.489425 -1.36224,5.5164 -0.0674,0.310213 -0.0809,0.472064 -0.0809,0.768789 0,0.98459 0.39114,1.699429 1.05203,1.996155 0.24277,0.121387 0.47206,0.175338 0.74181,0.175338 1.63199,0 3.3584,-1.888255 3.3584,-3.924872 0,-1.186902 -0.62043,-1.942204 -1.53758,-2.158004 -0.0809,-0.01349 -0.20231,-0.02698 -0.33719,-0.02698 -0.13487,0 -0.25626,0.01349 -0.33719,0.02698 -0.33719,0.08093 -0.72832,0.26975 -1.02505,0.512526 -0.054,0.05395 -0.0809,0.06744 -0.0809,0.04046 0,-0.01349 0.22928,-0.876689 0.48555,-1.928716 0.40462,-1.591529 0.45857,-1.86128 0.45857,-1.928717 0,-0.08093 -0.0809,-0.121388 -0.16185,-0.121388 -0.027,0 -1.92871,0.148363 -1.95569,0.148363 m 3.33142,4.828536 c 0,0.364163 -0.054,0.674376 -0.24278,1.429678 -0.31021,1.25434 -0.52601,1.753379 -0.98459,2.171492 -0.29672,0.283238 -0.62042,0.431601 -0.90366,0.431601 -0.20231,0 -0.39114,-0.06744 -0.5395,-0.2158 -0.24278,-0.242776 -0.3237,-0.485552 -0.3237,-0.971103 0,-0.283238 0.0135,-0.404626 0.0809,-0.755301 0.0405,-0.215801 0.48555,-1.982667 0.49904,-2.050105 0.0135,-0.01349 0.054,-0.08093 0.1079,-0.134875 0.40463,-0.539501 0.87669,-0.87669 1.32178,-0.971102 0.0405,0 0.1079,-0.01349 0.16185,-0.01349 0.60694,0 0.82274,0.445089 0.82274,1.079003 z"
       style="fill:#b85450;fill-opacity:1;fill-rule:nonzero;stroke:#b85450;stroke-width:0.0134875;stroke-linecap:butt;stroke-linejoin:miter;stroke-miterlimit:10;stroke-dasharray:none;stroke-opacity:0.0303" />
    <path
       id="path150"
       d="m 200.39163,37.577416 c 0.35282,0 0.57214,-0.267 0.57214,-0.572142 0,-0.295606 -0.20025,-0.572141 -0.534,-0.572141 -0.0286,0 -0.0477,0 -0.0477,-0.0095 0,-0.0095 0.0477,-0.08582 0.0858,-0.162106 0.20979,-0.305143 0.46725,-0.495856 0.89636,-0.495856 0.82007,0 1.24917,0.677034 1.24917,1.478032 0,0.55307 -0.20978,1.010783 -0.63889,1.59246 -0.20978,0.266999 -0.25746,0.333749 -1.335,1.52571 -0.4291,0.48632 -0.79146,0.896355 -0.80099,0.905891 -0.0191,0.02861 -0.0191,0.05721 -0.0191,0.219321 v 0.181178 h 3.53775 v -0.02861 c 0.0286,-0.05721 0.23839,-1.687817 0.26699,-1.745032 v -0.02861 h -0.38142 v 0.02861 c -0.0763,0.429106 -0.0858,0.514928 -0.1335,0.648427 -0.0286,0.09536 -0.0667,0.190714 -0.0954,0.20025 -0.0572,0.02861 -0.62935,0.04768 -1.59246,0.04768 l -0.72471,-0.0095 0.5626,-0.533999 c 0.64843,-0.61982 0.61982,-0.591213 0.95357,-0.877284 0.62936,-0.543534 0.87729,-0.800997 1.07754,-1.096604 0.22885,-0.333749 0.33374,-0.61982 0.33374,-1.03939 0,-0.114428 -0.01,-0.228857 -0.0191,-0.314678 -0.1621,-0.934497 -0.90589,-1.601996 -2.02156,-1.601996 -0.97264,0 -1.76411,0.762855 -1.76411,1.668746 0,0.324213 0.20979,0.591213 0.57215,0.591213 z"
       style="fill:#b85450;fill-opacity:1;fill-rule:nonzero;stroke:#b85450;stroke-width:0.00953569;stroke-linecap:butt;stroke-linejoin:miter;stroke-miterlimit:10;stroke-dasharray:none;stroke-opacity:0.0215" />
    <path
       id="path151"
       d="m 184.99696,37.044284 h -0.054 c -0.20236,0 -0.18887,0.01349 -0.26981,0.296797 -0.18887,0.728501 -0.33727,1.092752 -0.55312,1.295113 -0.0944,0.06745 -0.16189,0.107926 -0.26982,0.121417 -0.31029,0 -0.37774,-0.242834 -0.37774,-0.566612 0,-0.458686 1.01181,-4.033737 1.01181,-4.397988 0,-0.229343 -0.22935,-0.377741 -0.4452,-0.377741 -0.2833,0 -0.49916,0.17538 -0.62057,0.404723 -0.28331,-0.35076 -0.63407,-0.661047 -1.21417,-0.661047 -0.63407,0 -1.1737,0.242833 -1.64587,0.607084 -0.82294,0.620575 -1.53795,1.740308 -1.67286,2.927495 -0.0135,0.08094 -0.0135,0.18887 -0.0135,0.296796 0,0.647557 0.12142,1.092752 0.40472,1.510966 0.32378,0.418213 0.74199,0.741991 1.4705,0.741991 0.1349,0 0.25632,0 0.33726,-0.01349 0.43171,-0.09444 0.86341,-0.35076 1.28163,-0.741992 0.0944,-0.08094 0.0944,-0.09444 0.10792,-0.06745 0,0.02698 0.0405,0.09444 0.0675,0.161889 0.20236,0.391232 0.62057,0.661047 1.18718,0.661047 0.20237,0 0.21586,0 0.32378,-0.02698 0.16189,-0.06745 0.28331,-0.134908 0.43171,-0.283306 0.29679,-0.296797 0.52614,-0.782464 0.7285,-1.564928 0.027,-0.107926 0.0405,-0.161889 0.0405,-0.202362 0,-0.121417 -0.054,-0.121417 -0.25632,-0.121417 m -4.9781,0.634066 c 0,-0.107926 0.0135,-0.215852 0.0135,-0.310287 0.0675,-0.485668 0.36425,-1.699836 0.55312,-2.212485 0.24283,-0.674538 0.79595,-1.510965 1.57842,-1.510965 0.40472,0 0.67453,0.229343 0.84991,0.580103 0.054,0.107926 0.1484,0.337269 0.1484,0.458685 0,0.148399 -0.67454,2.873532 -0.71501,2.940986 -0.0675,0.134908 -0.53963,0.661047 -0.76897,0.809446 -0.2968,0.215852 -0.5801,0.323778 -0.83643,0.323778 -0.56661,0 -0.82294,-0.458686 -0.82294,-1.079261 z"
       style="fill:#b85450;fill-opacity:1;fill-rule:nonzero;stroke:#b85450;stroke-width:0.0134908;stroke-linecap:butt;stroke-linejoin:miter;stroke-miterlimit:10;stroke-dasharray:none;stroke-opacity:0.0304" />
    <path
       id="path152"
       d="m 187.05792,37.040198 c 0.35291,0 0.57228,-0.267064 0.57228,-0.572279 0,-0.295677 -0.2003,-0.572278 -0.53413,-0.572278 -0.0286,0 -0.0477,0 -0.0477,-0.0095 0,-0.0095 0.0477,-0.08584 0.0858,-0.162145 0.20983,-0.305215 0.46736,-0.495975 0.89656,-0.495975 0.82027,0 1.24948,0.677196 1.24948,1.478386 0,0.553202 -0.20984,1.011025 -0.63905,1.592841 -0.20983,0.267063 -0.25752,0.333829 -1.33531,1.526075 -0.42921,0.486436 -0.79165,0.896569 -0.80119,0.906107 -0.0191,0.02861 -0.0191,0.05723 -0.0191,0.219373 v 0.181222 h 3.53859 v -0.02865 c 0.0286,-0.05723 0.23845,-1.688221 0.26706,-1.745449 v -0.02861 h -0.38152 v 0.02861 c -0.0763,0.429209 -0.0858,0.515051 -0.13353,0.648582 -0.0286,0.09538 -0.0668,0.19076 -0.0954,0.200298 -0.0572,0.02861 -0.6295,0.04769 -1.59284,0.04769 l -0.72488,-0.0095 0.56274,-0.534127 c 0.64858,-0.619968 0.61997,-0.591354 0.95379,-0.877493 0.62951,-0.543664 0.8775,-0.801189 1.07779,-1.096867 0.22892,-0.333829 0.33383,-0.619968 0.33383,-1.039638 0,-0.114456 -0.01,-0.228912 -0.0191,-0.314753 -0.16215,-0.934721 -0.90611,-1.602379 -2.02205,-1.602379 -0.97287,0 -1.76453,0.763037 -1.76453,1.669144 0,0.324291 0.20984,0.591355 0.57228,0.591355 z"
       style="fill:#b85450;fill-opacity:1;fill-rule:nonzero;stroke:#b85450;stroke-width:0.00953797;stroke-linecap:butt;stroke-linejoin:miter;stroke-miterlimit:10;stroke-dasharray:none;stroke-opacity:0.0215" />
    <path
       id="path153"
       d="m 317.403,21.698856 c -0.51258,0.02698 -0.94424,0.06745 -0.97122,0.06745 -0.10791,0 -0.13489,0.09442 -0.17535,0.256294 -0.0675,0.296762 -0.0405,0.269783 0.0539,0.364208 h 0.28327 c 0.29677,0.01349 0.45864,0.04047 0.53957,0.06745 0.0675,0.04047 0.0809,0.09442 0.0809,0.215826 -0.0135,0.08094 -0.71493,2.900172 -0.74191,2.967618 0,0.02698 -0.0135,0.01349 -0.0674,-0.05396 -0.22932,-0.337229 -0.67446,-0.566545 -1.13309,-0.566545 -0.17536,0 -0.36421,0.02698 -0.55306,0.08094 -0.68795,0.175359 -1.32194,0.620502 -1.86151,1.281471 -0.44514,0.593523 -0.91726,1.497298 -0.91726,2.482007 0,0.64748 0.1214,1.092623 0.40468,1.510787 0.32374,0.418165 0.7419,0.741905 1.47032,0.741905 0.13489,0 0.25629,0 0.33722,-0.01349 0.43166,-0.09442 0.86331,-0.350718 1.28148,-0.741904 0.0944,-0.08094 0.0944,-0.09442 0.10791,-0.06745 0,0.02698 0.0405,0.09442 0.0674,0.16187 0.20234,0.391186 0.62051,0.66097 1.18705,0.66097 0.20234,0 0.21583,0 0.32374,-0.02698 0.16187,-0.06745 0.28327,-0.134891 0.43166,-0.283272 0.29676,-0.296762 0.52607,-0.782372 0.72841,-1.564744 0.027,-0.107913 0.0405,-0.16187 0.0405,-0.215827 0,-0.09442 -0.0675,-0.107913 -0.2563,-0.107913 h -0.0539 c -0.20234,0 -0.18885,0.01349 -0.26979,0.296762 -0.18884,0.728415 -0.33723,1.092622 -0.55305,1.29496 -0.0944,0.06745 -0.16187,0.107913 -0.26979,0.121403 -0.31025,0 -0.37769,-0.242806 -0.37769,-0.566546 0,-0.06744 0,-0.134891 0.0135,-0.202337 0.027,-0.188849 1.99639,-7.9721 1.99639,-8.13397 0,-0.08094 -0.0944,-0.107913 -0.16187,-0.107913 -0.0405,0 -0.48561,0.04047 -0.98471,0.08094 m -1.16006,4.88308 -0.72842,2.927149 -0.10791,0.148381 c -0.33723,0.418165 -0.90378,0.971221 -1.4973,0.971221 -0.56655,0 -0.82284,-0.458632 -0.82284,-1.079134 0,-0.107913 0.0135,-0.215827 0.0135,-0.310251 0.0675,-0.48561 0.36421,-1.699635 0.55306,-2.212224 0.2428,-0.674458 0.79586,-1.510787 1.57823,-1.510787 0.59352,0 0.84982,0.48561 1.01169,1.065645 z"
       style="fill:#b85450;fill-opacity:1;fill-rule:nonzero;stroke:#b85450;stroke-width:0.0134892;stroke-linecap:butt;stroke-linejoin:miter;stroke-miterlimit:10;stroke-dasharray:none;stroke-opacity:0.0304" />
    <path
       id="path154"
       d="m 322.92158,33.002776 h 0.10491 v -0.438695 h -0.24796 -0.31471 c -0.28611,0 -0.48638,-0.0095 -0.6199,-0.143052 l -0.01,-2.861052 v -2.851515 c -0.0572,-0.04769 -0.0381,-0.05722 -0.16212,-0.05722 -0.0858,0 -0.0954,0 -0.11444,0.02861 -0.0477,0.04768 -0.20982,0.171663 -0.29565,0.219347 -0.35286,0.219348 -0.80109,0.343327 -1.33515,0.3624 h -0.1812 v 0.438695 h 0.1812 c 0.3624,-0.0095 0.70572,-0.0763 0.98229,-0.1812 0.0382,-0.01907 0.0668,-0.02861 0.0763,-0.02861 v 4.930547 c -0.0668,0.04768 -0.11444,0.104905 -0.22888,0.114442 -0.1049,0.01907 -0.43869,0.02861 -0.71526,0.02861 h -0.24796 v 0.438695 h 0.11444 c 0.16213,-0.02861 1.19211,-0.02861 1.49729,-0.02861 0.30517,0 1.35423,0 1.51635,0.02861 z"
       style="fill:#b85450;fill-opacity:1;fill-rule:nonzero;stroke:#b85450;stroke-width:0.00953684;stroke-linecap:butt;stroke-linejoin:miter;stroke-miterlimit:10;stroke-dasharray:none;stroke-opacity:0.0215" />
    <path
       id="path155"
       d="m 306.10286,29.558259 c -0.0405,0 -0.081,0.04048 -0.16192,0.134933 -0.52624,0.607198 -1.24138,0.998503 -2.07797,1.119943 -0.10794,0.01349 -0.26986,0.02699 -0.41829,0.02699 -0.43179,0 -0.63418,-0.107946 -0.83658,-0.323839 -0.24288,-0.215892 -0.35083,-0.499252 -0.35083,-0.931037 0,-0.269866 0.054,-0.607198 0.14843,-1.011997 0.28336,-1.200902 0.52623,-1.754127 0.9985,-2.226392 0.18891,-0.188906 0.36432,-0.323839 0.58021,-0.418292 0.28336,-0.148427 0.45877,-0.188906 0.76912,-0.188906 0.5937,0 0.82309,0.188906 0.82309,0.229385 l -0.0135,0.01349 c -0.0135,0 -0.081,0.02699 -0.14843,0.06747 -0.29685,0.134933 -0.48576,0.445279 -0.48576,0.755624 0,0.337333 0.21589,0.539732 0.55323,0.539732 0.52624,0 0.90405,-0.391305 0.90405,-0.94453 0,-0.431786 -0.28336,-0.823091 -0.75563,-1.02549 -0.25637,-0.09445 -0.56672,-0.148426 -0.87706,-0.148426 -0.081,0 -0.17541,0 -0.25637,0.01349 -1.33584,0.148426 -2.63119,1.187409 -3.15743,2.536738 -0.17542,0.445279 -0.25638,0.836584 -0.25638,1.26837 0,0.445278 0.081,0.769117 0.25638,1.106449 0.33733,0.701651 1.02549,1.18741 2.0105,1.18741 0.17541,0 0.37781,-0.01349 0.52624,-0.02699 0.82309,-0.121439 1.55172,-0.431785 2.11844,-0.94453 0.14843,-0.134933 0.41829,-0.404799 0.41829,-0.499252 0,-0.06747 -0.22938,-0.310345 -0.31034,-0.310345 z"
       style="fill:#b85450;fill-opacity:1;fill-rule:nonzero;stroke:#b85450;stroke-width:0.0134933;stroke-linecap:butt;stroke-linejoin:miter;stroke-miterlimit:10;stroke-dasharray:none;stroke-opacity:0.0304" />
    <path
       id="path156"
       d="m 310.88101,33.214941 h 0.10494 v -0.438829 h -0.24803 -0.31482 c -0.28619,0 -0.48652,-0.0095 -0.62008,-0.143097 l -0.01,-2.861928 v -2.852388 c -0.0572,-0.0477 -0.0382,-0.05724 -0.16218,-0.05724 -0.0858,0 -0.0954,0 -0.11447,0.02862 -0.0477,0.0477 -0.20988,0.171715 -0.29574,0.219414 -0.35297,0.219415 -0.80134,0.343432 -1.33556,0.362511 h -0.18126 v 0.438829 h 0.18126 c 0.36251,-0.0095 0.70594,-0.07632 0.98259,-0.181255 0.0382,-0.01908 0.0668,-0.02862 0.0763,-0.02862 v 4.932056 c -0.0668,0.0477 -0.11448,0.104938 -0.22895,0.114477 -0.10494,0.01908 -0.43883,0.02862 -0.71548,0.02862 h -0.24804 v 0.438829 h 0.11448 c 0.16217,-0.02862 1.19247,-0.02862 1.49774,-0.02862 0.30527,0 1.35465,0 1.51682,0.02862 z"
       style="fill:#b85450;fill-opacity:1;fill-rule:nonzero;stroke:#b85450;stroke-width:0.00953976;stroke-linecap:butt;stroke-linejoin:miter;stroke-miterlimit:10;stroke-dasharray:none;stroke-opacity:0.0215" />
    <path
       id="path157"
       d="m 290.06201,23.226766 c -0.027,0 -0.0539,0.01349 -0.0809,0.04046 -0.0405,0.02698 -0.0539,0.06744 -0.0944,0.215801 -0.0539,0.2158 -0.0539,0.26975 0.0135,0.3237 0.0405,0.04046 0.0405,0.04046 0.3237,0.04046 0.39114,0.01349 0.66089,-0.02698 0.62042,0.283238 0,0.01349 -1.36224,5.489425 -1.36224,5.5164 -0.0674,0.310213 -0.0809,0.472063 -0.0809,0.768789 0,0.98459 0.39114,1.699429 1.05203,1.996154 0.24277,0.121388 0.47206,0.175338 0.74181,0.175338 1.63199,0 3.3584,-1.888254 3.3584,-3.924871 0,-1.186902 -0.62043,-1.942204 -1.53758,-2.158005 -0.0809,-0.01349 -0.20232,-0.02698 -0.33719,-0.02698 -0.13488,0 -0.25626,0.01349 -0.33719,0.02698 -0.33719,0.08093 -0.72833,0.269751 -1.02505,0.512526 -0.0539,0.05395 -0.0809,0.06744 -0.0809,0.04046 0,-0.01349 0.22929,-0.876689 0.48555,-1.928717 0.40463,-1.591528 0.45858,-1.861279 0.45858,-1.928716 0,-0.08093 -0.0809,-0.121388 -0.16185,-0.121388 -0.027,0 -1.92872,0.148363 -1.95569,0.148363 m 3.33142,4.828535 c 0,0.364164 -0.0539,0.674377 -0.24278,1.429678 -0.31021,1.254341 -0.52601,1.753379 -0.98459,2.171493 -0.29672,0.283238 -0.62042,0.431601 -0.90366,0.431601 -0.20231,0 -0.39114,-0.06744 -0.5395,-0.215801 -0.24278,-0.242775 -0.3237,-0.485551 -0.3237,-0.971102 0,-0.283238 0.0135,-0.404626 0.0809,-0.755302 0.0405,-0.2158 0.48555,-1.982666 0.49904,-2.050104 0.0135,-0.01349 0.0539,-0.08093 0.1079,-0.134875 0.40463,-0.539502 0.87669,-0.87669 1.32178,-0.971103 0.0405,0 0.1079,-0.01349 0.16185,-0.01349 0.60694,0 0.82274,0.445088 0.82274,1.079002 z"
       style="fill:#b85450;fill-opacity:1;fill-rule:nonzero;stroke:#b85450;stroke-width:0.0134875;stroke-linecap:butt;stroke-linejoin:miter;stroke-miterlimit:10;stroke-dasharray:none;stroke-opacity:0.0303" />
    <path
       id="path158"
       d="m 299.05969,34.461878 h 0.1049 v -0.438642 h -0.24793 -0.31468 c -0.28607,0 -0.48632,-0.0095 -0.61982,-0.143036 l -0.01,-2.860707 v -2.851171 c -0.0572,-0.04768 -0.0381,-0.05721 -0.16211,-0.05721 -0.0858,0 -0.0954,0 -0.11443,0.02861 -0.0477,0.04768 -0.20978,0.171643 -0.29561,0.219321 -0.35282,0.219321 -0.80099,0.343285 -1.33499,0.362356 h -0.18118 v 0.438642 h 0.18118 c 0.36235,-0.0095 0.70564,-0.07629 0.98217,-0.181178 0.0381,-0.01907 0.0667,-0.02861 0.0763,-0.02861 v 4.929951 c -0.0668,0.04768 -0.11443,0.104893 -0.22886,0.114429 -0.10489,0.01907 -0.43864,0.02861 -0.71517,0.02861 h -0.24793 v 0.438642 h 0.11443 c 0.1621,-0.02861 1.19196,-0.02861 1.4971,-0.02861 0.30514,0 1.35407,0 1.51617,0.02861 z"
       style="fill:#b85450;fill-opacity:1;fill-rule:nonzero;stroke:#b85450;stroke-width:0.00953569;stroke-linecap:butt;stroke-linejoin:miter;stroke-miterlimit:10;stroke-dasharray:none;stroke-opacity:0.0215" />
    <path
       id="path159"
       d="m 281.90606,28.14467 h -0.054 c -0.20236,0 -0.18887,0.01349 -0.26981,0.296796 -0.18887,0.728501 -0.33727,1.092752 -0.55312,1.295113 -0.0944,0.06745 -0.16189,0.107926 -0.26982,0.121417 -0.31029,0 -0.37774,-0.242834 -0.37774,-0.566612 0,-0.458686 1.01181,-4.033737 1.01181,-4.397988 0,-0.229343 -0.22935,-0.377741 -0.4452,-0.377741 -0.2833,0 -0.49916,0.17538 -0.62057,0.404723 -0.28331,-0.35076 -0.63407,-0.661047 -1.21417,-0.661047 -0.63407,0 -1.1737,0.242833 -1.64587,0.607084 -0.82294,0.620575 -1.53795,1.740308 -1.67286,2.927495 -0.0135,0.08094 -0.0135,0.18887 -0.0135,0.296797 0,0.647556 0.12142,1.092751 0.40472,1.510965 0.32378,0.418213 0.742,0.741991 1.4705,0.741991 0.1349,0 0.25632,0 0.33727,-0.01349 0.4317,-0.09444 0.8634,-0.35076 1.28162,-0.741992 0.0944,-0.08094 0.0944,-0.09444 0.10792,-0.06745 0,0.02698 0.0405,0.09444 0.0675,0.161889 0.20236,0.391232 0.62057,0.661047 1.18718,0.661047 0.20237,0 0.21586,0 0.32378,-0.02698 0.16189,-0.06745 0.28331,-0.134908 0.43171,-0.283306 0.29679,-0.296797 0.52614,-0.782464 0.7285,-1.564928 0.027,-0.107926 0.0405,-0.161889 0.0405,-0.202362 0,-0.121416 -0.054,-0.121416 -0.25632,-0.121416 M 276.928,28.77874 c 0,-0.107926 0.0135,-0.215852 0.0135,-0.310287 0.0675,-0.485668 0.36425,-1.699836 0.55312,-2.212485 0.24283,-0.674538 0.79595,-1.510965 1.57842,-1.510965 0.40472,0 0.67453,0.229343 0.84991,0.580103 0.054,0.107926 0.1484,0.337269 0.1484,0.458686 0,0.148398 -0.67454,2.873531 -0.71501,2.940985 -0.0675,0.134908 -0.53963,0.661047 -0.76897,0.809446 -0.2968,0.215852 -0.5801,0.323778 -0.83643,0.323778 -0.56661,0 -0.82293,-0.458686 -0.82293,-1.079261 z"
       style="fill:#b85450;fill-opacity:1;fill-rule:nonzero;stroke:#b85450;stroke-width:0.0134908;stroke-linecap:butt;stroke-linejoin:miter;stroke-miterlimit:10;stroke-dasharray:none;stroke-opacity:0.0304" />
    <path
       id="path160"
       d="m 286.88567,32.232372 h 0.10492 v -0.438747 h -0.24799 -0.31475 c -0.28614,0 -0.48644,-0.0095 -0.61997,-0.143069 l -0.01,-2.861391 v -2.851853 c -0.0572,-0.04769 -0.0382,-0.05723 -0.16214,-0.05723 -0.0858,0 -0.0954,0 -0.11446,0.02861 -0.0477,0.04769 -0.20983,0.171683 -0.29568,0.219373 -0.3529,0.219373 -0.80118,0.343367 -1.33531,0.362443 h -0.18122 v 0.438747 h 0.18122 c 0.36244,-0.0095 0.70581,-0.0763 0.98241,-0.181222 0.0382,-0.01908 0.0668,-0.02861 0.0763,-0.02861 v 4.931131 c -0.0668,0.04769 -0.11445,0.104917 -0.22891,0.114455 -0.10492,0.01908 -0.43874,0.02861 -0.71535,0.02861 h -0.24798 v 0.438747 h 0.11445 c 0.16215,-0.02861 1.19225,-0.02861 1.49746,-0.02861 0.30522,0 1.3544,0 1.51654,0.02861 z"
       style="fill:#b85450;fill-opacity:1;fill-rule:nonzero;stroke:#b85450;stroke-width:0.00953797;stroke-linecap:butt;stroke-linejoin:miter;stroke-miterlimit:10;stroke-dasharray:none;stroke-opacity:0.0215" />
    <path
       id="path172"
       d="M 365,512 H 290"
       style="fill:none;stroke:#808080;stroke-width:3;stroke-linecap:butt;stroke-linejoin:miter;stroke-miterlimit:10;stroke-dasharray:none;stroke-opacity:1"
       transform="matrix(0.95916278,0,0,0.95916278,-2.87739,-118.41824)" />
    <path
       id="path173"
       d="M 302,550 V 511"
       style="fill:none;stroke:#808080;stroke-width:3;stroke-linecap:butt;stroke-linejoin:miter;stroke-miterlimit:10;stroke-dasharray:none;stroke-opacity:1"
       transform="matrix(0.95916278,0,0,0.95916278,-2.87739,-118.41824)" />
    <path
       id="path174"
       d="M 128,619 V 61 C 116,49 115,47 58,46 H 25 V 0 H 36 C 55,3 150,3 182,3 214,3 331,2 348,0 h 12 v 46 h -27 c -15,0 -37,0 -48,1 -38,2 -41,3 -52,14 l -1,278 c 0,199 0,279 1,282 1,6 6,10 12,11 4,1 49,2 89,2 148,0 186,-26 204,-165 2,-11 3,-22 4,-25 v -4 h 40 v 4 c 0,1 -28,231 -28,232 v 4 H 25 v -46 h 33 c 57,-1 58,-3 70,-15 z"
       style="fill:#808080;fill-opacity:1;fill-rule:nonzero;stroke:#808080;stroke-width:1;stroke-linecap:butt;stroke-linejoin:miter;stroke-miterlimit:10;stroke-dasharray:none;stroke-opacity:0.0303"
       transform="matrix(0.01348823,0,0,-0.01348823,295.90557,366.00393)" />
    <path
       id="path175"
       d="m 84,250 c 0,-11 6,-16 14,-20 h 581 c 8,4 15,9 15,20 0,11 -7,16 -15,20 H 98 c -8,-4 -14,-9 -14,-20 z"
       style="fill:#808080;fill-opacity:1;fill-rule:nonzero;stroke:#808080;stroke-width:1;stroke-linecap:butt;stroke-linejoin:miter;stroke-miterlimit:10;stroke-dasharray:none;stroke-opacity:0.0303"
       transform="matrix(0.01348823,0,0,-0.01348823,307.42468,366.00393)" />
    <path
       id="path176"
       d="m 89,683 c -2,0 -4,-1 -6,-3 -3,-2 -4,-5 -7,-16 -4,-16 -4,-20 1,-24 3,-3 3,-3 24,-3 29,-1 49,2 46,-21 C 147,615 46,209 46,207 41,184 40,172 40,150 40,77 69,24 118,2 c 18,-9 35,-13 55,-13 121,0 249,140 249,291 0,88 -46,144 -114,160 -6,1 -15,2 -25,2 -10,0 -19,-1 -25,-2 -25,-6 -54,-20 -76,-38 -4,-4 -6,-5 -6,-3 0,1 17,65 36,143 30,118 34,138 34,143 0,6 -6,9 -12,9 -2,0 -143,-11 -145,-11 M 336,325 C 336,298 332,275 318,219 295,126 279,89 245,58 223,37 199,26 178,26 c -15,0 -29,5 -40,16 -18,18 -24,36 -24,72 0,21 1,30 6,56 3,16 36,147 37,152 1,1 4,6 8,10 30,40 65,65 98,72 3,0 8,1 12,1 45,0 61,-33 61,-80 z"
       style="fill:#808080;fill-opacity:1;fill-rule:nonzero;stroke:#808080;stroke-width:1;stroke-linecap:butt;stroke-linejoin:miter;stroke-miterlimit:10;stroke-dasharray:none;stroke-opacity:0.0303"
       transform="matrix(0.01348823,0,0,-0.01348823,320.91557,366.00393)" />
    <path
       id="path177"
       d="m 487,153 h -4 c -15,0 -14,-1 -20,-22 -14,-54 -25,-81 -41,-96 -7,-5 -12,-8 -20,-9 -23,0 -28,18 -28,42 0,34 75,299 75,326 0,17 -17,28 -33,28 -21,0 -37,-13 -46,-30 -21,26 -47,49 -90,49 -47,0 -87,-18 -122,-45 C 97,350 44,267 34,179 c -1,-6 -1,-14 -1,-22 0,-48 9,-81 30,-112 24,-31 55,-55 109,-55 10,0 19,0 25,1 32,7 64,26 95,55 7,6 7,7 8,5 0,-2 3,-7 5,-12 15,-29 46,-49 88,-49 15,0 16,0 24,2 12,5 21,10 32,21 22,22 39,58 54,116 2,8 3,12 3,15 0,9 -4,9 -19,9 M 118,106 c 0,8 1,16 1,23 5,36 27,126 41,164 18,50 59,112 117,112 30,0 50,-17 63,-43 4,-8 11,-25 11,-34 0,-11 -50,-213 -53,-218 -5,-10 -40,-49 -57,-60 -22,-16 -43,-24 -62,-24 -42,0 -61,34 -61,80 z"
       style="fill:#808080;fill-opacity:1;fill-rule:nonzero;stroke:#808080;stroke-width:1;stroke-linecap:butt;stroke-linejoin:miter;stroke-miterlimit:10;stroke-dasharray:none;stroke-opacity:0.0303"
       transform="matrix(0.01348823,0,0,-0.01348823,326.70204,366.00393)" />
    <path
       id="path178"
       d="m 108,-11 c 17,0 35,10 43,27 3,6 10,31 39,149 39,156 36,145 49,166 19,30 41,53 63,64 13,7 27,10 40,10 18,0 24,-6 36,-13 -29,-8 -56,-28 -56,-64 0,-24 19,-40 44,-40 39,0 64,33 64,75 0,48 -34,78 -83,78 -13,0 -20,0 -26,-1 -32,-7 -61,-25 -85,-51 -9,-10 -8,-10 -11,-1 -4,11 -17,26 -29,35 -16,12 -37,19 -64,19 -25,0 -37,-8 -53,-24 C 61,400 47,374 34,334 28,316 21,290 21,287 c 0,-3 4,-7 6,-9 h 14 c 19,0 16,0 20,9 18,69 30,97 48,111 6,5 12,7 19,7 20,0 26,-16 26,-39 C 154,331 74,45 74,17 74,-1 91,-11 108,-11 Z"
       style="fill:#808080;fill-opacity:1;fill-rule:nonzero;stroke:#808080;stroke-width:1;stroke-linecap:butt;stroke-linejoin:miter;stroke-miterlimit:10;stroke-dasharray:none;stroke-opacity:0.0303"
       transform="matrix(0.01348823,0,0,-0.01348823,333.83729,366.00393)" />
    <text
       xml:space="preserve"
       style="font-style:italic;font-size:11.3386px;line-height:1;font-family:'Adwaita Sans';-inkscape-font-specification:'Adwaita Sans Italic';text-decoration:none;text-decoration-line:none;text-decoration-color:#000000;writing-mode:lr-tb;direction:ltr;fill:#808080;fill-opacity:0.309315;stroke-width:3.02362;stroke-opacity:0.447059"
       x="47.588764"
       y="204.81404"
       id="text185"><tspan
         sodipodi:role="line"
         id="tspan185"
         x="47.588764"
         y="204.81404"
         style="fill:#000000;fill-opacity:1">A4_equiv</tspan></text>
    <text
       xml:space="preserve"
       style="font-style:italic;font-size:11.3386px;line-height:1;font-family:'Adwaita Sans';-inkscape-font-specification:'Adwaita Sans Italic';text-decoration:none;text-decoration-line:none;text-decoration-color:#000000;writing-mode:lr-tb;direction:ltr;fill:#808080;fill-opacity:0.309315;stroke-width:3.02362;stroke-opacity:0.447059"
       x="96.465965"
       y="160.37486"
       id="text185-7"><tspan
         sodipodi:role="line"
         id="tspan185-4"
         x="96.465965"
         y="160.37486"
         style="fill:#000000;fill-opacity:1">A3_equiv</tspan></text>
    <text
       xml:space="preserve"
       style="font-style:italic;font-size:11.3386px;line-height:1;font-family:'Adwaita Sans';-inkscape-font-specification:'Adwaita Sans Italic';text-decoration:none;text-decoration-line:none;text-decoration-color:#000000;writing-mode:lr-tb;direction:ltr;fill:#808080;fill-opacity:0.309315;stroke-width:3.02362;stroke-opacity:0.447059"
       x="188.32132"
       y="132.89108"
       id="text185-75"><tspan
         sodipodi:role="line"
         id="tspan185-3"
         x="188.32132"
         y="132.89108"
         style="fill:#000000;fill-opacity:1">A2_equiv</tspan></text>
    <text
       xml:space="preserve"
       style="font-style:italic;font-size:11.3386px;line-height:1;font-family:'Adwaita Sans';-inkscape-font-specification:'Adwaita Sans Italic';text-decoration:none;text-decoration-line:none;text-decoration-color:#000000;writing-mode:lr-tb;direction:ltr;fill:#808080;fill-opacity:0.309315;stroke-width:3.02362;stroke-opacity:0.447059"
       x="248.85249"
       y="97.858658"
       id="text185-8"><tspan
         sodipodi:role="line"
         id="tspan185-9"
         x="248.85249"
         y="97.858658"
         style="fill:#000000;fill-opacity:1">A1_equiv</tspan></text>
  </g>
</svg>
