<?xml version="1.0" encoding="utf-8" standalone="no"?>
<!DOCTYPE svg PUBLIC "-//W3C//DTD SVG 1.1//EN"
  "http://www.w3.org/Graphics/SVG/1.1/DTD/svg11.dtd">
<svg xmlns:xlink="http://www.w3.org/1999/xlink" width="576pt" height="432pt" viewBox="0 0 576 432" xmlns="http://www.w3.org/2000/svg" version="1.1">
 <metadata>
  <rdf:RDF xmlns:dc="http://purl.org/dc/elements/1.1/" xmlns:cc="http://creativecommons.org/ns#" xmlns:rdf="http://www.w3.org/1999/02/22-rdf-syntax-ns#">
   <cc:Work>
    <dc:type rdf:resource="http://purl.org/dc/dcmitype/StillImage"/>
    <dc:date>2023-06-30T09:24:51.665707</dc:date>
    <dc:format>image/svg+xml</dc:format>
    <dc:creator>
     <cc:Agent>
      <dc:title>Matplotlib v3.6.2, https://matplotlib.org/</dc:title>
     </cc:Agent>
    </dc:creator>
   </cc:Work>
  </rdf:RDF>
 </metadata>
 <defs>
  <style type="text/css">*{stroke-linejoin: round; stroke-linecap: butt}</style>
 </defs>
 <g id="figure_1">
  <g id="patch_1">
   <path d="M 0 432 
L 576 432 
L 576 -0 
L 0 -0 
z
" style="fill: #ffffff"/>
  </g>
  <g id="patch_2">
   <path d="M -133.2 565.2 
L 565.2 565.2 
L 565.2 -133.2 
L -133.2 -133.2 
z
" style="fill: #ffffff"/>
  </g>
  <g id="axes_1">
   <g id="line2d_1">
    <path d="M 225.437838 344.2256 
L 249.208221 301.174888 
" clip-path="url(#p24c4775a37)" style="fill: none"/>
   </g>
   <g id="line2d_2">
    <path d="M 225.437838 344.2256 
L 225.437838 312.345331 
" clip-path="url(#p24c4775a37)" style="fill: none"/>
   </g>
   <g id="line2d_3">
    <path d="M 225.437838 344.2256 
L 201.667455 301.174888 
" clip-path="url(#p24c4775a37)" style="fill: none"/>
   </g>
   <g id="line2d_4">
    <path d="M 225.437838 344.2256 
" clip-path="url(#p24c4775a37)" style="fill: none"/>
   </g>
   <g id="line2d_5">
    <path d="M 50.710407 151.786876 
L 55.105306 112.514382 
" clip-path="url(#p24c4775a37)" style="fill: none; stroke: #000000; stroke-linecap: square"/>
   </g>
   <g id="line2d_6">
    <path d="M 55.105306 112.514382 
L 65.460505 127.019924 
" clip-path="url(#p24c4775a37)" style="fill: none; stroke: #000000; stroke-linecap: square"/>
   </g>
   <g id="line2d_7">
    <path d="M 65.460505 127.019924 
L 61.372706 160.561453 
" clip-path="url(#p24c4775a37)" style="fill: none; stroke: #000000; stroke-linecap: square"/>
   </g>
   <g id="line2d_8">
    <path d="M 61.372706 160.561453 
L 50.710407 151.786876 
" clip-path="url(#p24c4775a37)" style="fill: none; stroke: #000000; stroke-linecap: square"/>
   </g>
   <g id="line2d_9">
    <path d="M 50.710407 151.786876 
L 65.460505 127.019924 
" clip-path="url(#p24c4775a37)" style="fill: none; stroke: #000000; stroke-linecap: square"/>
   </g>
   <g id="line2d_10">
    <path d="M 55.105306 112.514382 
L 61.372706 160.561453 
" clip-path="url(#p24c4775a37)" style="fill: none; stroke: #000000; stroke-linecap: square"/>
   </g>
   <g id="line2d_11">
    <path d="M 55.105306 112.514382 
L 96.540722 76.037345 
" clip-path="url(#p24c4775a37)" style="fill: none; stroke: #000000; stroke-linecap: square"/>
   </g>
   <g id="line2d_12">
    <path d="M 96.540722 76.037345 
L 98.903868 90.571912 
" clip-path="url(#p24c4775a37)" style="fill: none; stroke: #000000; stroke-linecap: square"/>
   </g>
   <g id="line2d_13">
    <path d="M 98.903868 90.571912 
L 65.460505 127.019924 
" clip-path="url(#p24c4775a37)" style="fill: none; stroke: #000000; stroke-linecap: square"/>
   </g>
   <g id="line2d_14">
    <path d="M 65.460505 127.019924 
L 55.105306 112.514382 
" clip-path="url(#p24c4775a37)" style="fill: none; stroke: #000000; stroke-linecap: square"/>
   </g>
   <g id="line2d_15">
    <path d="M 55.105306 112.514382 
L 98.903868 90.571912 
" clip-path="url(#p24c4775a37)" style="fill: none; stroke: #000000; stroke-linecap: square"/>
   </g>
   <g id="line2d_16">
    <path d="M 96.540722 76.037345 
L 65.460505 127.019924 
" clip-path="url(#p24c4775a37)" style="fill: none; stroke: #000000; stroke-linecap: square"/>
   </g>
   <g id="line2d_17">
    <path d="M 96.540722 76.037345 
L 144.800141 52.093995 
" clip-path="url(#p24c4775a37)" style="fill: none; stroke: #000000; stroke-linecap: square"/>
   </g>
   <g id="line2d_18">
    <path d="M 144.800141 52.093995 
L 148.608008 73.029156 
" clip-path="url(#p24c4775a37)" style="fill: none; stroke: #000000; stroke-linecap: square"/>
   </g>
   <g id="line2d_19">
    <path d="M 148.608008 73.029156 
L 98.903868 90.571912 
" clip-path="url(#p24c4775a37)" style="fill: none; stroke: #000000; stroke-linecap: square"/>
   </g>
   <g id="line2d_20">
    <path d="M 98.903868 90.571912 
L 96.540722 76.037345 
" clip-path="url(#p24c4775a37)" style="fill: none; stroke: #000000; stroke-linecap: square"/>
   </g>
   <g id="line2d_21">
    <path d="M 96.540722 76.037345 
L 148.608008 73.029156 
" clip-path="url(#p24c4775a37)" style="fill: none; stroke: #000000; stroke-linecap: square"/>
   </g>
   <g id="line2d_22">
    <path d="M 144.800141 52.093995 
L 98.903868 90.571912 
" clip-path="url(#p24c4775a37)" style="fill: none; stroke: #000000; stroke-linecap: square"/>
   </g>
   <g id="line2d_23">
    <path d="M 144.800141 52.093995 
L 198.36387 44.037848 
" clip-path="url(#p24c4775a37)" style="fill: none; stroke: #000000; stroke-linecap: square"/>
   </g>
   <g id="line2d_24">
    <path d="M 198.36387 44.037848 
L 199.28106 63.216784 
" clip-path="url(#p24c4775a37)" style="fill: none; stroke: #000000; stroke-linecap: square"/>
   </g>
   <g id="line2d_25">
    <path d="M 199.28106 63.216784 
L 148.608008 73.029156 
" clip-path="url(#p24c4775a37)" style="fill: none; stroke: #000000; stroke-linecap: square"/>
   </g>
   <g id="line2d_26">
    <path d="M 148.608008 73.029156 
L 144.800141 52.093995 
" clip-path="url(#p24c4775a37)" style="fill: none; stroke: #000000; stroke-linecap: square"/>
   </g>
   <g id="line2d_27">
    <path d="M 144.800141 52.093995 
L 199.28106 63.216784 
" clip-path="url(#p24c4775a37)" style="fill: none; stroke: #000000; stroke-linecap: square"/>
   </g>
   <g id="line2d_28">
    <path d="M 198.36387 44.037848 
L 148.608008 73.029156 
" clip-path="url(#p24c4775a37)" style="fill: none; stroke: #000000; stroke-linecap: square"/>
   </g>
   <g id="line2d_29">
    <path d="M 198.36387 44.037848 
L 252.511805 44.037848 
" clip-path="url(#p24c4775a37)" style="fill: none; stroke: #000000; stroke-linecap: square"/>
   </g>
   <g id="line2d_30">
    <path d="M 252.511805 44.037848 
L 251.594616 63.216784 
" clip-path="url(#p24c4775a37)" style="fill: none; stroke: #000000; stroke-linecap: square"/>
   </g>
   <g id="line2d_31">
    <path d="M 251.594616 63.216784 
L 199.28106 63.216784 
" clip-path="url(#p24c4775a37)" style="fill: none; stroke: #000000; stroke-linecap: square"/>
   </g>
   <g id="line2d_32">
    <path d="M 199.28106 63.216784 
L 198.36387 44.037848 
" clip-path="url(#p24c4775a37)" style="fill: none; stroke: #000000; stroke-linecap: square"/>
   </g>
   <g id="line2d_33">
    <path d="M 198.36387 44.037848 
L 251.594616 63.216784 
" clip-path="url(#p24c4775a37)" style="fill: none; stroke: #000000; stroke-linecap: square"/>
   </g>
   <g id="line2d_34">
    <path d="M 252.511805 44.037848 
L 199.28106 63.216784 
" clip-path="url(#p24c4775a37)" style="fill: none; stroke: #000000; stroke-linecap: square"/>
   </g>
   <g id="line2d_35">
    <path d="M 252.511805 44.037848 
L 306.075535 52.093995 
" clip-path="url(#p24c4775a37)" style="fill: none; stroke: #000000; stroke-linecap: square"/>
   </g>
   <g id="line2d_36">
    <path d="M 306.075535 52.093995 
L 302.267668 73.029156 
" clip-path="url(#p24c4775a37)" style="fill: none; stroke: #000000; stroke-linecap: square"/>
   </g>
   <g id="line2d_37">
    <path d="M 302.267668 73.029156 
L 251.594616 63.216784 
" clip-path="url(#p24c4775a37)" style="fill: none; stroke: #000000; stroke-linecap: square"/>
   </g>
   <g id="line2d_38">
    <path d="M 251.594616 63.216784 
L 252.511805 44.037848 
" clip-path="url(#p24c4775a37)" style="fill: none; stroke: #000000; stroke-linecap: square"/>
   </g>
   <g id="line2d_39">
    <path d="M 252.511805 44.037848 
L 302.267668 73.029156 
" clip-path="url(#p24c4775a37)" style="fill: none; stroke: #000000; stroke-linecap: square"/>
   </g>
   <g id="line2d_40">
    <path d="M 306.075535 52.093995 
L 251.594616 63.216784 
" clip-path="url(#p24c4775a37)" style="fill: none; stroke: #000000; stroke-linecap: square"/>
   </g>
   <g id="line2d_41">
    <path d="M 306.075535 52.093995 
L 354.334954 76.037345 
" clip-path="url(#p24c4775a37)" style="fill: none; stroke: #000000; stroke-linecap: square"/>
   </g>
   <g id="line2d_42">
    <path d="M 354.334954 76.037345 
L 351.971808 90.571912 
" clip-path="url(#p24c4775a37)" style="fill: none; stroke: #000000; stroke-linecap: square"/>
   </g>
   <g id="line2d_43">
    <path d="M 351.971808 90.571912 
L 302.267668 73.029156 
" clip-path="url(#p24c4775a37)" style="fill: none; stroke: #000000; stroke-linecap: square"/>
   </g>
   <g id="line2d_44">
    <path d="M 302.267668 73.029156 
L 306.075535 52.093995 
" clip-path="url(#p24c4775a37)" style="fill: none; stroke: #000000; stroke-linecap: square"/>
   </g>
   <g id="line2d_45">
    <path d="M 306.075535 52.093995 
L 351.971808 90.571912 
" clip-path="url(#p24c4775a37)" style="fill: none; stroke: #000000; stroke-linecap: square"/>
   </g>
   <g id="line2d_46">
    <path d="M 354.334954 76.037345 
L 302.267668 73.029156 
" clip-path="url(#p24c4775a37)" style="fill: none; stroke: #000000; stroke-linecap: square"/>
   </g>
   <g id="line2d_47">
    <path d="M 354.334954 76.037345 
L 395.770369 112.514382 
" clip-path="url(#p24c4775a37)" style="fill: none; stroke: #000000; stroke-linecap: square"/>
   </g>
   <g id="line2d_48">
    <path d="M 395.770369 112.514382 
L 385.41517 127.019924 
" clip-path="url(#p24c4775a37)" style="fill: none; stroke: #000000; stroke-linecap: square"/>
   </g>
   <g id="line2d_49">
    <path d="M 385.41517 127.019924 
L 351.971808 90.571912 
" clip-path="url(#p24c4775a37)" style="fill: none; stroke: #000000; stroke-linecap: square"/>
   </g>
   <g id="line2d_50">
    <path d="M 351.971808 90.571912 
L 354.334954 76.037345 
" clip-path="url(#p24c4775a37)" style="fill: none; stroke: #000000; stroke-linecap: square"/>
   </g>
   <g id="line2d_51">
    <path d="M 354.334954 76.037345 
L 385.41517 127.019924 
" clip-path="url(#p24c4775a37)" style="fill: none; stroke: #000000; stroke-linecap: square"/>
   </g>
   <g id="line2d_52">
    <path d="M 395.770369 112.514382 
L 351.971808 90.571912 
" clip-path="url(#p24c4775a37)" style="fill: none; stroke: #000000; stroke-linecap: square"/>
   </g>
   <g id="line2d_53">
    <path d="M 395.770369 112.514382 
L 400.165268 151.786876 
" clip-path="url(#p24c4775a37)" style="fill: none; stroke: #000000; stroke-linecap: square"/>
   </g>
   <g id="line2d_54">
    <path d="M 400.165268 151.786876 
L 389.502969 160.561453 
" clip-path="url(#p24c4775a37)" style="fill: none; stroke: #000000; stroke-linecap: square"/>
   </g>
   <g id="line2d_55">
    <path d="M 389.502969 160.561453 
L 385.41517 127.019924 
" clip-path="url(#p24c4775a37)" style="fill: none; stroke: #000000; stroke-linecap: square"/>
   </g>
   <g id="line2d_56">
    <path d="M 385.41517 127.019924 
L 395.770369 112.514382 
" clip-path="url(#p24c4775a37)" style="fill: none; stroke: #000000; stroke-linecap: square"/>
   </g>
   <g id="line2d_57">
    <path d="M 395.770369 112.514382 
L 389.502969 160.561453 
" clip-path="url(#p24c4775a37)" style="fill: none; stroke: #000000; stroke-linecap: square"/>
   </g>
   <g id="line2d_58">
    <path d="M 400.165268 151.786876 
L 385.41517 127.019924 
" clip-path="url(#p24c4775a37)" style="fill: none; stroke: #000000; stroke-linecap: square"/>
   </g>
   <g id="line2d_59">
    <path d="M 225.437838 372.161836 
L 225.437838 344.2256 
" clip-path="url(#p24c4775a37)" style="fill: none"/>
   </g>
   <g id="line2d_60">
    <path d="M 225.437838 344.2256 
L 225.437838 312.345331 
" clip-path="url(#p24c4775a37)" style="fill: none"/>
   </g>
   <g id="line2d_61">
    <path d="M 225.437838 344.2256 
L 201.667455 301.174888 
" clip-path="url(#p24c4775a37)" style="fill: none"/>
   </g>
   <g id="line2d_62">
    <path d="M 225.437838 344.2256 
L 249.208221 301.174888 
" clip-path="url(#p24c4775a37)" style="fill: none"/>
   </g>
   <g id="line2d_63">
    <path d="M 225.437838 312.345331 
L 179.38707 236.802689 
" clip-path="url(#p24c4775a37)" style="fill: none"/>
   </g>
   <g id="line2d_64">
    <path d="M 225.437838 312.345331 
L 271.488606 236.802689 
" clip-path="url(#p24c4775a37)" style="fill: none"/>
   </g>
   <g id="line2d_65">
    <path d="M 201.667455 301.174888 
L 179.38707 236.802689 
" clip-path="url(#p24c4775a37)" style="fill: none"/>
   </g>
   <g id="line2d_66">
    <path d="M 201.667455 301.174888 
L 61.372706 160.561453 
" clip-path="url(#p24c4775a37)" style="fill: none"/>
   </g>
   <g id="line2d_67">
    <path d="M 249.208221 301.174888 
L 271.488606 236.802689 
" clip-path="url(#p24c4775a37)" style="fill: none"/>
   </g>
   <g id="line2d_68">
    <path d="M 249.208221 301.174888 
L 389.502969 160.561453 
" clip-path="url(#p24c4775a37)" style="fill: none"/>
   </g>
   <g id="line2d_69">
    <path d="M 179.38707 236.802689 
L 115.252681 157.693243 
" clip-path="url(#p24c4775a37)" style="fill: none"/>
   </g>
   <g id="line2d_70">
    <path d="M 179.38707 236.802689 
L 174.927355 147.330575 
" clip-path="url(#p24c4775a37)" style="fill: none"/>
   </g>
   <g id="line2d_71">
    <path d="M 271.488606 236.802689 
L 335.622995 157.693243 
" clip-path="url(#p24c4775a37)" style="fill: none"/>
   </g>
   <g id="line2d_72">
    <path d="M 271.488606 236.802689 
L 275.948321 147.330575 
" clip-path="url(#p24c4775a37)" style="fill: none"/>
   </g>
   <g id="line2d_73">
    <path d="M 115.252681 157.693243 
L 65.460505 127.019924 
" clip-path="url(#p24c4775a37)" style="fill: none"/>
   </g>
   <g id="line2d_74">
    <path d="M 115.252681 157.693243 
L 98.903868 90.571912 
" clip-path="url(#p24c4775a37)" style="fill: none"/>
   </g>
   <g id="line2d_75">
    <path d="M 335.622995 157.693243 
L 385.41517 127.019924 
" clip-path="url(#p24c4775a37)" style="fill: none"/>
   </g>
   <g id="line2d_76">
    <path d="M 335.622995 157.693243 
L 351.971808 90.571912 
" clip-path="url(#p24c4775a37)" style="fill: none"/>
   </g>
   <g id="line2d_77">
    <path d="M 174.927355 147.330575 
L 148.608008 73.029156 
" clip-path="url(#p24c4775a37)" style="fill: none"/>
   </g>
   <g id="line2d_78">
    <path d="M 174.927355 147.330575 
L 199.28106 63.216784 
" clip-path="url(#p24c4775a37)" style="fill: none"/>
   </g>
   <g id="line2d_79">
    <path d="M 275.948321 147.330575 
L 302.267668 73.029156 
" clip-path="url(#p24c4775a37)" style="fill: none"/>
   </g>
   <g id="line2d_80">
    <path d="M 275.948321 147.330575 
L 251.594616 63.216784 
" clip-path="url(#p24c4775a37)" style="fill: none"/>
   </g>
   <g id="line2d_81">
    <path d="M 225.437838 372.161836 
L 160.105269 206.230133 
" clip-path="url(#p24c4775a37)" style="fill: none"/>
   </g>
   <g id="line2d_82">
    <path d="M 225.437838 372.161836 
L 290.770407 206.230133 
" clip-path="url(#p24c4775a37)" style="fill: none"/>
   </g>
   <g id="line2d_83">
    <path d="M 160.105269 206.230133 
L 123.234598 157.254717 
" clip-path="url(#p24c4775a37)" style="fill: none"/>
   </g>
   <g id="line2d_84">
    <path d="M 160.105269 206.230133 
L 165.571117 136.886356 
" clip-path="url(#p24c4775a37)" style="fill: none"/>
   </g>
   <g id="line2d_85">
    <path d="M 290.770407 206.230133 
L 327.641077 157.254717 
" clip-path="url(#p24c4775a37)" style="fill: none"/>
   </g>
   <g id="line2d_86">
    <path d="M 290.770407 206.230133 
L 285.304558 136.886356 
" clip-path="url(#p24c4775a37)" style="fill: none"/>
   </g>
   <g id="line2d_87">
    <path d="M 123.234598 157.254717 
L 55.105306 112.514382 
" clip-path="url(#p24c4775a37)" style="fill: none"/>
   </g>
   <g id="line2d_88">
    <path d="M 123.234598 157.254717 
L 96.540722 76.037345 
" clip-path="url(#p24c4775a37)" style="fill: none"/>
   </g>
   <g id="line2d_89">
    <path d="M 327.641077 157.254717 
L 395.770369 112.514382 
" clip-path="url(#p24c4775a37)" style="fill: none"/>
   </g>
   <g id="line2d_90">
    <path d="M 327.641077 157.254717 
L 354.334954 76.037345 
" clip-path="url(#p24c4775a37)" style="fill: none"/>
   </g>
   <g id="line2d_91">
    <path d="M 165.571117 136.886356 
L 144.800141 52.093995 
" clip-path="url(#p24c4775a37)" style="fill: none"/>
   </g>
   <g id="line2d_92">
    <path d="M 165.571117 136.886356 
L 198.36387 44.037848 
" clip-path="url(#p24c4775a37)" style="fill: none"/>
   </g>
   <g id="line2d_93">
    <path d="M 285.304558 136.886356 
L 306.075535 52.093995 
" clip-path="url(#p24c4775a37)" style="fill: none"/>
   </g>
   <g id="line2d_94">
    <path d="M 285.304558 136.886356 
L 252.511805 44.037848 
" clip-path="url(#p24c4775a37)" style="fill: none"/>
   </g>
   <g id="line2d_95">
    <path d="M 179.38707 236.802689 
L 50.710407 151.786876 
" clip-path="url(#p24c4775a37)" style="fill: none"/>
   </g>
   <g id="line2d_96">
    <path d="M 271.488606 236.802689 
L 400.165268 151.786876 
" clip-path="url(#p24c4775a37)" style="fill: none"/>
   </g>
   <g id="line2d_97">
    <path d="M 160.105269 206.230133 
L 50.710407 151.786876 
" clip-path="url(#p24c4775a37)" style="fill: none"/>
   </g>
   <g id="line2d_98">
    <path d="M 290.770407 206.230133 
L 400.165268 151.786876 
" clip-path="url(#p24c4775a37)" style="fill: none"/>
   </g>
   <g id="line2d_99">
    <path d="M 201.667455 301.174888 
" clip-path="url(#p24c4775a37)" style="fill: none"/>
   </g>
   <g id="line2d_100">
    <path d="M 249.208221 301.174888 
" clip-path="url(#p24c4775a37)" style="fill: none"/>
   </g>
   <g id="line2d_101">
    <path d="M 225.437838 345.614773 
L 250.16584 305.179808 
" clip-path="url(#p24c4775a37)" style="fill: none"/>
   </g>
   <g id="line2d_102">
    <path d="M 225.437838 345.614773 
L 225.437838 306.942303 
" clip-path="url(#p24c4775a37)" style="fill: none"/>
   </g>
   <g id="line2d_103">
    <path d="M 225.437838 345.614773 
L 200.709836 305.179808 
" clip-path="url(#p24c4775a37)" style="fill: none"/>
   </g>
   <g id="line2d_104">
    <path d="M 225.437838 345.614773 
" clip-path="url(#p24c4775a37)" style="fill: none"/>
   </g>
   <g id="line2d_105">
    <path d="M 54.390829 160.866142 
L 56.536019 121.213257 
" clip-path="url(#p24c4775a37)" style="fill: none; stroke: #ff0000; stroke-linecap: square"/>
   </g>
   <g id="line2d_106">
    <path d="M 56.536019 121.213257 
L 71.012249 137.892073 
" clip-path="url(#p24c4775a37)" style="fill: none; stroke: #ff0000; stroke-linecap: square"/>
   </g>
   <g id="line2d_107">
    <path d="M 71.012249 137.892073 
L 71.977098 169.105039 
" clip-path="url(#p24c4775a37)" style="fill: none; stroke: #ff0000; stroke-linecap: square"/>
   </g>
   <g id="line2d_108">
    <path d="M 71.977098 169.105039 
L 54.390829 160.866142 
" clip-path="url(#p24c4775a37)" style="fill: none; stroke: #ff0000; stroke-linecap: square"/>
   </g>
   <g id="line2d_109">
    <path d="M 54.390829 160.866142 
L 71.012249 137.892073 
" clip-path="url(#p24c4775a37)" style="fill: none; stroke: #ff0000; stroke-linecap: square"/>
   </g>
   <g id="line2d_110">
    <path d="M 56.536019 121.213257 
L 71.977098 169.105039 
" clip-path="url(#p24c4775a37)" style="fill: none; stroke: #ff0000; stroke-linecap: square"/>
   </g>
   <g id="line2d_111">
    <path d="M 56.536019 121.213257 
L 97.416732 85.07373 
" clip-path="url(#p24c4775a37)" style="fill: none; stroke: #ff0000; stroke-linecap: square"/>
   </g>
   <g id="line2d_112">
    <path d="M 97.416732 85.07373 
L 102.694642 101.159459 
" clip-path="url(#p24c4775a37)" style="fill: none; stroke: #ff0000; stroke-linecap: square"/>
   </g>
   <g id="line2d_113">
    <path d="M 102.694642 101.159459 
L 71.012249 137.892073 
" clip-path="url(#p24c4775a37)" style="fill: none; stroke: #ff0000; stroke-linecap: square"/>
   </g>
   <g id="line2d_114">
    <path d="M 71.012249 137.892073 
L 56.536019 121.213257 
" clip-path="url(#p24c4775a37)" style="fill: none; stroke: #ff0000; stroke-linecap: square"/>
   </g>
   <g id="line2d_115">
    <path d="M 56.536019 121.213257 
L 102.694642 101.159459 
" clip-path="url(#p24c4775a37)" style="fill: none; stroke: #ff0000; stroke-linecap: square"/>
   </g>
   <g id="line2d_116">
    <path d="M 97.416732 85.07373 
L 71.012249 137.892073 
" clip-path="url(#p24c4775a37)" style="fill: none; stroke: #ff0000; stroke-linecap: square"/>
   </g>
   <g id="line2d_117">
    <path d="M 97.416732 85.07373 
L 145.445578 61.622547 
" clip-path="url(#p24c4775a37)" style="fill: none; stroke: #ff0000; stroke-linecap: square"/>
   </g>
   <g id="line2d_118">
    <path d="M 145.445578 61.622547 
L 152.051484 82.870576 
" clip-path="url(#p24c4775a37)" style="fill: none; stroke: #ff0000; stroke-linecap: square"/>
   </g>
   <g id="line2d_119">
    <path d="M 152.051484 82.870576 
L 102.694642 101.159459 
" clip-path="url(#p24c4775a37)" style="fill: none; stroke: #ff0000; stroke-linecap: square"/>
   </g>
   <g id="line2d_120">
    <path d="M 102.694642 101.159459 
L 97.416732 85.07373 
" clip-path="url(#p24c4775a37)" style="fill: none; stroke: #ff0000; stroke-linecap: square"/>
   </g>
   <g id="line2d_121">
    <path d="M 97.416732 85.07373 
L 152.051484 82.870576 
" clip-path="url(#p24c4775a37)" style="fill: none; stroke: #ff0000; stroke-linecap: square"/>
   </g>
   <g id="line2d_122">
    <path d="M 145.445578 61.622547 
L 102.694642 101.159459 
" clip-path="url(#p24c4775a37)" style="fill: none; stroke: #ff0000; stroke-linecap: square"/>
   </g>
   <g id="line2d_123">
    <path d="M 145.445578 61.622547 
L 198.614205 54.125033 
" clip-path="url(#p24c4775a37)" style="fill: none; stroke: #ff0000; stroke-linecap: square"/>
   </g>
   <g id="line2d_124">
    <path d="M 198.614205 54.125033 
L 202.363042 72.711786 
" clip-path="url(#p24c4775a37)" style="fill: none; stroke: #ff0000; stroke-linecap: square"/>
   </g>
   <g id="line2d_125">
    <path d="M 202.363042 72.711786 
L 152.051484 82.870576 
" clip-path="url(#p24c4775a37)" style="fill: none; stroke: #ff0000; stroke-linecap: square"/>
   </g>
   <g id="line2d_126">
    <path d="M 152.051484 82.870576 
L 145.445578 61.622547 
" clip-path="url(#p24c4775a37)" style="fill: none; stroke: #ff0000; stroke-linecap: square"/>
   </g>
   <g id="line2d_127">
    <path d="M 145.445578 61.622547 
L 202.363042 72.711786 
" clip-path="url(#p24c4775a37)" style="fill: none; stroke: #ff0000; stroke-linecap: square"/>
   </g>
   <g id="line2d_128">
    <path d="M 198.614205 54.125033 
L 152.051484 82.870576 
" clip-path="url(#p24c4775a37)" style="fill: none; stroke: #ff0000; stroke-linecap: square"/>
   </g>
   <g id="line2d_129">
    <path d="M 198.614205 54.125033 
L 252.261471 54.125033 
" clip-path="url(#p24c4775a37)" style="fill: none; stroke: #ff0000; stroke-linecap: square"/>
   </g>
   <g id="line2d_130">
    <path d="M 252.261471 54.125033 
L 248.512634 72.711786 
" clip-path="url(#p24c4775a37)" style="fill: none; stroke: #ff0000; stroke-linecap: square"/>
   </g>
   <g id="line2d_131">
    <path d="M 248.512634 72.711786 
L 202.363042 72.711786 
" clip-path="url(#p24c4775a37)" style="fill: none; stroke: #ff0000; stroke-linecap: square"/>
   </g>
   <g id="line2d_132">
    <path d="M 202.363042 72.711786 
L 198.614205 54.125033 
" clip-path="url(#p24c4775a37)" style="fill: none; stroke: #ff0000; stroke-linecap: square"/>
   </g>
   <g id="line2d_133">
    <path d="M 198.614205 54.125033 
L 248.512634 72.711786 
" clip-path="url(#p24c4775a37)" style="fill: none; stroke: #ff0000; stroke-linecap: square"/>
   </g>
   <g id="line2d_134">
    <path d="M 252.261471 54.125033 
L 202.363042 72.711786 
" clip-path="url(#p24c4775a37)" style="fill: none; stroke: #ff0000; stroke-linecap: square"/>
   </g>
   <g id="line2d_135">
    <path d="M 252.261471 54.125033 
L 305.430097 61.622547 
" clip-path="url(#p24c4775a37)" style="fill: none; stroke: #ff0000; stroke-linecap: square"/>
   </g>
   <g id="line2d_136">
    <path d="M 305.430097 61.622547 
L 298.824191 82.870576 
" clip-path="url(#p24c4775a37)" style="fill: none; stroke: #ff0000; stroke-linecap: square"/>
   </g>
   <g id="line2d_137">
    <path d="M 298.824191 82.870576 
L 248.512634 72.711786 
" clip-path="url(#p24c4775a37)" style="fill: none; stroke: #ff0000; stroke-linecap: square"/>
   </g>
   <g id="line2d_138">
    <path d="M 248.512634 72.711786 
L 252.261471 54.125033 
" clip-path="url(#p24c4775a37)" style="fill: none; stroke: #ff0000; stroke-linecap: square"/>
   </g>
   <g id="line2d_139">
    <path d="M 252.261471 54.125033 
L 298.824191 82.870576 
" clip-path="url(#p24c4775a37)" style="fill: none; stroke: #ff0000; stroke-linecap: square"/>
   </g>
   <g id="line2d_140">
    <path d="M 305.430097 61.622547 
L 248.512634 72.711786 
" clip-path="url(#p24c4775a37)" style="fill: none; stroke: #ff0000; stroke-linecap: square"/>
   </g>
   <g id="line2d_141">
    <path d="M 305.430097 61.622547 
L 353.458944 85.07373 
" clip-path="url(#p24c4775a37)" style="fill: none; stroke: #ff0000; stroke-linecap: square"/>
   </g>
   <g id="line2d_142">
    <path d="M 353.458944 85.07373 
L 348.181034 101.159459 
" clip-path="url(#p24c4775a37)" style="fill: none; stroke: #ff0000; stroke-linecap: square"/>
   </g>
   <g id="line2d_143">
    <path d="M 348.181034 101.159459 
L 298.824191 82.870576 
" clip-path="url(#p24c4775a37)" style="fill: none; stroke: #ff0000; stroke-linecap: square"/>
   </g>
   <g id="line2d_144">
    <path d="M 298.824191 82.870576 
L 305.430097 61.622547 
" clip-path="url(#p24c4775a37)" style="fill: none; stroke: #ff0000; stroke-linecap: square"/>
   </g>
   <g id="line2d_145">
    <path d="M 305.430097 61.622547 
L 348.181034 101.159459 
" clip-path="url(#p24c4775a37)" style="fill: none; stroke: #ff0000; stroke-linecap: square"/>
   </g>
   <g id="line2d_146">
    <path d="M 353.458944 85.07373 
L 298.824191 82.870576 
" clip-path="url(#p24c4775a37)" style="fill: none; stroke: #ff0000; stroke-linecap: square"/>
   </g>
   <g id="line2d_147">
    <path d="M 353.458944 85.07373 
L 394.339656 121.213257 
" clip-path="url(#p24c4775a37)" style="fill: none; stroke: #ff0000; stroke-linecap: square"/>
   </g>
   <g id="line2d_148">
    <path d="M 394.339656 121.213257 
L 379.863427 137.892073 
" clip-path="url(#p24c4775a37)" style="fill: none; stroke: #ff0000; stroke-linecap: square"/>
   </g>
   <g id="line2d_149">
    <path d="M 379.863427 137.892073 
L 348.181034 101.159459 
" clip-path="url(#p24c4775a37)" style="fill: none; stroke: #ff0000; stroke-linecap: square"/>
   </g>
   <g id="line2d_150">
    <path d="M 348.181034 101.159459 
L 353.458944 85.07373 
" clip-path="url(#p24c4775a37)" style="fill: none; stroke: #ff0000; stroke-linecap: square"/>
   </g>
   <g id="line2d_151">
    <path d="M 353.458944 85.07373 
L 379.863427 137.892073 
" clip-path="url(#p24c4775a37)" style="fill: none; stroke: #ff0000; stroke-linecap: square"/>
   </g>
   <g id="line2d_152">
    <path d="M 394.339656 121.213257 
L 348.181034 101.159459 
" clip-path="url(#p24c4775a37)" style="fill: none; stroke: #ff0000; stroke-linecap: square"/>
   </g>
   <g id="line2d_153">
    <path d="M 394.339656 121.213257 
L 396.484847 160.866142 
" clip-path="url(#p24c4775a37)" style="fill: none; stroke: #ff0000; stroke-linecap: square"/>
   </g>
   <g id="line2d_154">
    <path d="M 396.484847 160.866142 
L 378.898578 169.105039 
" clip-path="url(#p24c4775a37)" style="fill: none; stroke: #ff0000; stroke-linecap: square"/>
   </g>
   <g id="line2d_155">
    <path d="M 378.898578 169.105039 
L 379.863427 137.892073 
" clip-path="url(#p24c4775a37)" style="fill: none; stroke: #ff0000; stroke-linecap: square"/>
   </g>
   <g id="line2d_156">
    <path d="M 379.863427 137.892073 
L 394.339656 121.213257 
" clip-path="url(#p24c4775a37)" style="fill: none; stroke: #ff0000; stroke-linecap: square"/>
   </g>
   <g id="line2d_157">
    <path d="M 394.339656 121.213257 
L 378.898578 169.105039 
" clip-path="url(#p24c4775a37)" style="fill: none; stroke: #ff0000; stroke-linecap: square"/>
   </g>
   <g id="line2d_158">
    <path d="M 396.484847 160.866142 
L 379.863427 137.892073 
" clip-path="url(#p24c4775a37)" style="fill: none; stroke: #ff0000; stroke-linecap: square"/>
   </g>
   <g id="line2d_159">
    <path d="M 225.437838 372.161836 
L 225.437838 345.614773 
" clip-path="url(#p24c4775a37)" style="fill: none"/>
   </g>
   <g id="line2d_160">
    <path d="M 225.437838 345.614773 
L 225.437838 306.942303 
" clip-path="url(#p24c4775a37)" style="fill: none"/>
   </g>
   <g id="line2d_161">
    <path d="M 225.437838 345.614773 
L 200.709836 305.179808 
" clip-path="url(#p24c4775a37)" style="fill: none"/>
   </g>
   <g id="line2d_162">
    <path d="M 225.437838 345.614773 
L 250.16584 305.179808 
" clip-path="url(#p24c4775a37)" style="fill: none"/>
   </g>
   <g id="line2d_163">
    <path d="M 225.437838 306.942303 
L 184.456312 239.117348 
" clip-path="url(#p24c4775a37)" style="fill: none"/>
   </g>
   <g id="line2d_164">
    <path d="M 225.437838 306.942303 
L 266.419363 239.117348 
" clip-path="url(#p24c4775a37)" style="fill: none"/>
   </g>
   <g id="line2d_165">
    <path d="M 200.709836 305.179808 
L 184.456312 239.117348 
" clip-path="url(#p24c4775a37)" style="fill: none"/>
   </g>
   <g id="line2d_166">
    <path d="M 200.709836 305.179808 
L 71.977098 169.105039 
" clip-path="url(#p24c4775a37)" style="fill: none"/>
   </g>
   <g id="line2d_167">
    <path d="M 250.16584 305.179808 
L 266.419363 239.117348 
" clip-path="url(#p24c4775a37)" style="fill: none"/>
   </g>
   <g id="line2d_168">
    <path d="M 250.16584 305.179808 
L 378.898578 169.105039 
" clip-path="url(#p24c4775a37)" style="fill: none"/>
   </g>
   <g id="line2d_169">
    <path d="M 184.456312 239.117348 
L 120.77015 165.236616 
" clip-path="url(#p24c4775a37)" style="fill: none"/>
   </g>
   <g id="line2d_170">
    <path d="M 184.456312 239.117348 
L 177.916574 153.948014 
" clip-path="url(#p24c4775a37)" style="fill: none"/>
   </g>
   <g id="line2d_171">
    <path d="M 266.419363 239.117348 
L 330.105525 165.236616 
" clip-path="url(#p24c4775a37)" style="fill: none"/>
   </g>
   <g id="line2d_172">
    <path d="M 266.419363 239.117348 
L 272.959102 153.948014 
" clip-path="url(#p24c4775a37)" style="fill: none"/>
   </g>
   <g id="line2d_173">
    <path d="M 120.77015 165.236616 
L 71.012249 137.892073 
" clip-path="url(#p24c4775a37)" style="fill: none"/>
   </g>
   <g id="line2d_174">
    <path d="M 120.77015 165.236616 
L 102.694642 101.159459 
" clip-path="url(#p24c4775a37)" style="fill: none"/>
   </g>
   <g id="line2d_175">
    <path d="M 330.105525 165.236616 
L 379.863427 137.892073 
" clip-path="url(#p24c4775a37)" style="fill: none"/>
   </g>
   <g id="line2d_176">
    <path d="M 330.105525 165.236616 
L 348.181034 101.159459 
" clip-path="url(#p24c4775a37)" style="fill: none"/>
   </g>
   <g id="line2d_177">
    <path d="M 177.916574 153.948014 
L 152.051484 82.870576 
" clip-path="url(#p24c4775a37)" style="fill: none"/>
   </g>
   <g id="line2d_178">
    <path d="M 177.916574 153.948014 
L 202.363042 72.711786 
" clip-path="url(#p24c4775a37)" style="fill: none"/>
   </g>
   <g id="line2d_179">
    <path d="M 272.959102 153.948014 
L 298.824191 82.870576 
" clip-path="url(#p24c4775a37)" style="fill: none"/>
   </g>
   <g id="line2d_180">
    <path d="M 272.959102 153.948014 
L 248.512634 72.711786 
" clip-path="url(#p24c4775a37)" style="fill: none"/>
   </g>
   <g id="line2d_181">
    <path d="M 225.437838 372.161836 
L 156.225878 212.118014 
" clip-path="url(#p24c4775a37)" style="fill: none"/>
   </g>
   <g id="line2d_182">
    <path d="M 225.437838 372.161836 
L 294.649798 212.118014 
" clip-path="url(#p24c4775a37)" style="fill: none"/>
   </g>
   <g id="line2d_183">
    <path d="M 156.225878 212.118014 
L 121.350533 164.423189 
" clip-path="url(#p24c4775a37)" style="fill: none"/>
   </g>
   <g id="line2d_184">
    <path d="M 156.225878 212.118014 
L 163.733208 144.376763 
" clip-path="url(#p24c4775a37)" style="fill: none"/>
   </g>
   <g id="line2d_185">
    <path d="M 294.649798 212.118014 
L 329.525143 164.423189 
" clip-path="url(#p24c4775a37)" style="fill: none"/>
   </g>
   <g id="line2d_186">
    <path d="M 294.649798 212.118014 
L 287.142467 144.376763 
" clip-path="url(#p24c4775a37)" style="fill: none"/>
   </g>
   <g id="line2d_187">
    <path d="M 121.350533 164.423189 
L 56.536019 121.213257 
" clip-path="url(#p24c4775a37)" style="fill: none"/>
   </g>
   <g id="line2d_188">
    <path d="M 121.350533 164.423189 
L 97.416732 85.07373 
" clip-path="url(#p24c4775a37)" style="fill: none"/>
   </g>
   <g id="line2d_189">
    <path d="M 329.525143 164.423189 
L 394.339656 121.213257 
" clip-path="url(#p24c4775a37)" style="fill: none"/>
   </g>
   <g id="line2d_190">
    <path d="M 329.525143 164.423189 
L 353.458944 85.07373 
" clip-path="url(#p24c4775a37)" style="fill: none"/>
   </g>
   <g id="line2d_191">
    <path d="M 163.733208 144.376763 
L 145.445578 61.622547 
" clip-path="url(#p24c4775a37)" style="fill: none"/>
   </g>
   <g id="line2d_192">
    <path d="M 163.733208 144.376763 
L 198.614205 54.125033 
" clip-path="url(#p24c4775a37)" style="fill: none"/>
   </g>
   <g id="line2d_193">
    <path d="M 287.142467 144.376763 
L 305.430097 61.622547 
" clip-path="url(#p24c4775a37)" style="fill: none"/>
   </g>
   <g id="line2d_194">
    <path d="M 287.142467 144.376763 
L 252.261471 54.125033 
" clip-path="url(#p24c4775a37)" style="fill: none"/>
   </g>
   <g id="line2d_195">
    <path d="M 184.456312 239.117348 
L 54.390829 160.866142 
" clip-path="url(#p24c4775a37)" style="fill: none"/>
   </g>
   <g id="line2d_196">
    <path d="M 266.419363 239.117348 
L 396.484847 160.866142 
" clip-path="url(#p24c4775a37)" style="fill: none"/>
   </g>
   <g id="line2d_197">
    <path d="M 156.225878 212.118014 
L 54.390829 160.866142 
" clip-path="url(#p24c4775a37)" style="fill: none"/>
   </g>
   <g id="line2d_198">
    <path d="M 294.649798 212.118014 
L 396.484847 160.866142 
" clip-path="url(#p24c4775a37)" style="fill: none"/>
   </g>
   <g id="line2d_199">
    <path d="M 200.709836 305.179808 
" clip-path="url(#p24c4775a37)" style="fill: none"/>
   </g>
   <g id="line2d_200">
    <path d="M 250.16584 305.179808 
" clip-path="url(#p24c4775a37)" style="fill: none"/>
   </g>
   <g id="line2d_201">
    <path d="M 225.437838 372.161836 
L 225.437838 372.161836 
" clip-path="url(#p24c4775a37)" style="fill: none; stroke: #000000; stroke-width: 0.5; stroke-linecap: square"/>
    <defs>
     <path id="mc3374a3dad" d="M 0 0.025 
C 0.00663 0.025 0.012989 0.022366 0.017678 0.017678 
C 0.022366 0.012989 0.025 0.00663 0.025 0 
C 0.025 -0.00663 0.022366 -0.012989 0.017678 -0.017678 
C 0.012989 -0.022366 0.00663 -0.025 0 -0.025 
C -0.00663 -0.025 -0.012989 -0.022366 -0.017678 -0.017678 
C -0.022366 -0.012989 -0.025 -0.00663 -0.025 0 
C -0.025 0.00663 -0.022366 0.012989 -0.017678 0.017678 
C -0.012989 0.022366 -0.00663 0.025 0 0.025 
z
" style="stroke: #000000"/>
    </defs>
    <g clip-path="url(#p24c4775a37)">
     <use xlink:href="#mc3374a3dad" x="225.437838" y="372.161836" style="stroke: #000000"/>
     <use xlink:href="#mc3374a3dad" x="225.437838" y="372.161836" style="stroke: #000000"/>
    </g>
   </g>
   <g id="Poly3DCollection_1">
    <path d="M 54.390829 160.866142 
L 56.536019 121.213257 
L 71.012249 137.892073 
L 71.977098 169.105039 
z
" clip-path="url(#p24c4775a37)" style="fill: #ff0000; fill-opacity: 0.15"/>
   </g>
   <g id="Line3DCollection_1">
    <path d="M 54.390829 160.866142 
L 56.536019 121.213257 
" clip-path="url(#p24c4775a37)" style="fill: none; stroke: #ff0000; stroke-width: 2.2"/>
   </g>
   <g id="Poly3DCollection_2">
    <path d="M 394.339656 121.213257 
L 396.484847 160.866142 
L 378.898578 169.105039 
L 379.863427 137.892073 
z
" clip-path="url(#p24c4775a37)" style="fill: #ff0000; fill-opacity: 0.15"/>
   </g>
   <g id="Line3DCollection_2">
    <path d="M 394.339656 121.213257 
L 396.484847 160.866142 
" clip-path="url(#p24c4775a37)" style="fill: none; stroke: #ff0000; stroke-width: 2.2"/>
   </g>
   <g id="Poly3DCollection_3">
    <path d="M 56.536019 121.213257 
L 97.416732 85.07373 
L 102.694642 101.159459 
L 71.012249 137.892073 
z
" clip-path="url(#p24c4775a37)" style="fill: #ff0000; fill-opacity: 0.15"/>
   </g>
   <g id="Line3DCollection_3">
    <path d="M 56.536019 121.213257 
L 97.416732 85.07373 
" clip-path="url(#p24c4775a37)" style="fill: none; stroke: #ff0000; stroke-width: 2.2"/>
   </g>
   <g id="Poly3DCollection_4">
    <path d="M 353.458944 85.07373 
L 394.339656 121.213257 
L 379.863427 137.892073 
L 348.181034 101.159459 
z
" clip-path="url(#p24c4775a37)" style="fill: #ff0000; fill-opacity: 0.15"/>
   </g>
   <g id="Line3DCollection_4">
    <path d="M 353.458944 85.07373 
L 394.339656 121.213257 
" clip-path="url(#p24c4775a37)" style="fill: none; stroke: #ff0000; stroke-width: 2.2"/>
   </g>
   <g id="Poly3DCollection_5">
    <path d="M 97.416732 85.07373 
L 145.445578 61.622547 
L 152.051484 82.870576 
L 102.694642 101.159459 
z
" clip-path="url(#p24c4775a37)" style="fill: #ff0000; fill-opacity: 0.15"/>
   </g>
   <g id="Line3DCollection_5">
    <path d="M 97.416732 85.07373 
L 145.445578 61.622547 
" clip-path="url(#p24c4775a37)" style="fill: none; stroke: #ff0000; stroke-width: 2.2"/>
   </g>
   <g id="Poly3DCollection_6">
    <path d="M 305.430097 61.622547 
L 353.458944 85.07373 
L 348.181034 101.159459 
L 298.824191 82.870576 
z
" clip-path="url(#p24c4775a37)" style="fill: #ff0000; fill-opacity: 0.15"/>
   </g>
   <g id="Line3DCollection_6">
    <path d="M 305.430097 61.622547 
L 353.458944 85.07373 
" clip-path="url(#p24c4775a37)" style="fill: none; stroke: #ff0000; stroke-width: 2.2"/>
   </g>
   <g id="Poly3DCollection_7">
    <path d="M 145.445578 61.622547 
L 198.614205 54.125033 
L 202.363042 72.711786 
L 152.051484 82.870576 
z
" clip-path="url(#p24c4775a37)" style="fill: #ff0000; fill-opacity: 0.15"/>
   </g>
   <g id="Line3DCollection_7">
    <path d="M 145.445578 61.622547 
L 198.614205 54.125033 
" clip-path="url(#p24c4775a37)" style="fill: none; stroke: #ff0000; stroke-width: 2.2"/>
   </g>
   <g id="Poly3DCollection_8">
    <path d="M 198.614205 54.125033 
L 252.261471 54.125033 
L 248.512634 72.711786 
L 202.363042 72.711786 
z
" clip-path="url(#p24c4775a37)" style="fill: #ff0000; fill-opacity: 0.15"/>
   </g>
   <g id="Line3DCollection_8">
    <path d="M 198.614205 54.125033 
L 252.261471 54.125033 
" clip-path="url(#p24c4775a37)" style="fill: none; stroke: #ff0000; stroke-width: 2.2"/>
   </g>
   <g id="Poly3DCollection_9">
    <path d="M 252.261471 54.125033 
L 305.430097 61.622547 
L 298.824191 82.870576 
L 248.512634 72.711786 
z
" clip-path="url(#p24c4775a37)" style="fill: #ff0000; fill-opacity: 0.15"/>
   </g>
   <g id="Line3DCollection_9">
    <path d="M 252.261471 54.125033 
L 305.430097 61.622547 
" clip-path="url(#p24c4775a37)" style="fill: none; stroke: #ff0000; stroke-width: 2.2"/>
   </g>
   <g id="Poly3DCollection_10">
    <path d="M 50.710407 151.786876 
L 55.105306 112.514382 
L 65.460505 127.019924 
L 61.372706 160.561453 
z
" clip-path="url(#p24c4775a37)" style="fill: #808080; fill-opacity: 0.15"/>
   </g>
   <g id="Line3DCollection_10">
    <path d="M 50.710407 151.786876 
L 55.105306 112.514382 
" clip-path="url(#p24c4775a37)" style="fill: none; stroke: #000000; stroke-width: 2.2"/>
   </g>
   <g id="Poly3DCollection_11">
    <path d="M 395.770369 112.514382 
L 400.165268 151.786876 
L 389.502969 160.561453 
L 385.41517 127.019924 
z
" clip-path="url(#p24c4775a37)" style="fill: #808080; fill-opacity: 0.15"/>
   </g>
   <g id="Line3DCollection_11">
    <path d="M 395.770369 112.514382 
L 400.165268 151.786876 
" clip-path="url(#p24c4775a37)" style="fill: none; stroke: #000000; stroke-width: 2.2"/>
   </g>
   <g id="Poly3DCollection_12">
    <path d="M 144.800141 52.093995 
L 198.36387 44.037848 
L 199.28106 63.216784 
L 148.608008 73.029156 
z
" clip-path="url(#p24c4775a37)" style="fill: #808080; fill-opacity: 0.15"/>
   </g>
   <g id="Line3DCollection_12">
    <path d="M 144.800141 52.093995 
L 198.36387 44.037848 
" clip-path="url(#p24c4775a37)" style="fill: none; stroke: #000000; stroke-width: 2.2"/>
   </g>
   <g id="Poly3DCollection_13">
    <path d="M 198.36387 44.037848 
L 252.511805 44.037848 
L 251.594616 63.216784 
L 199.28106 63.216784 
z
" clip-path="url(#p24c4775a37)" style="fill: #808080; fill-opacity: 0.15"/>
   </g>
   <g id="Line3DCollection_13">
    <path d="M 198.36387 44.037848 
L 252.511805 44.037848 
" clip-path="url(#p24c4775a37)" style="fill: none; stroke: #000000; stroke-width: 2.2"/>
   </g>
   <g id="Poly3DCollection_14">
    <path d="M 252.511805 44.037848 
L 306.075535 52.093995 
L 302.267668 73.029156 
L 251.594616 63.216784 
z
" clip-path="url(#p24c4775a37)" style="fill: #808080; fill-opacity: 0.15"/>
   </g>
   <g id="Line3DCollection_14">
    <path d="M 252.511805 44.037848 
L 306.075535 52.093995 
" clip-path="url(#p24c4775a37)" style="fill: none; stroke: #000000; stroke-width: 2.2"/>
   </g>
   <g id="Poly3DCollection_15">
    <path d="M 55.105306 112.514382 
L 96.540722 76.037345 
L 98.903868 90.571912 
L 65.460505 127.019924 
z
" clip-path="url(#p24c4775a37)" style="fill: #808080; fill-opacity: 0.15"/>
   </g>
   <g id="Line3DCollection_15">
    <path d="M 55.105306 112.514382 
L 96.540722 76.037345 
" clip-path="url(#p24c4775a37)" style="fill: none; stroke: #000000; stroke-width: 2.2"/>
   </g>
   <g id="Poly3DCollection_16">
    <path d="M 96.540722 76.037345 
L 144.800141 52.093995 
L 148.608008 73.029156 
L 98.903868 90.571912 
z
" clip-path="url(#p24c4775a37)" style="fill: #808080; fill-opacity: 0.15"/>
   </g>
   <g id="Line3DCollection_16">
    <path d="M 96.540722 76.037345 
L 144.800141 52.093995 
" clip-path="url(#p24c4775a37)" style="fill: none; stroke: #000000; stroke-width: 2.2"/>
   </g>
   <g id="Poly3DCollection_17">
    <path d="M 306.075535 52.093995 
L 354.334954 76.037345 
L 351.971808 90.571912 
L 302.267668 73.029156 
z
" clip-path="url(#p24c4775a37)" style="fill: #808080; fill-opacity: 0.15"/>
   </g>
   <g id="Line3DCollection_17">
    <path d="M 306.075535 52.093995 
L 354.334954 76.037345 
" clip-path="url(#p24c4775a37)" style="fill: none; stroke: #000000; stroke-width: 2.2"/>
   </g>
   <g id="Poly3DCollection_18">
    <path d="M 354.334954 76.037345 
L 395.770369 112.514382 
L 385.41517 127.019924 
L 351.971808 90.571912 
z
" clip-path="url(#p24c4775a37)" style="fill: #808080; fill-opacity: 0.15"/>
   </g>
   <g id="Line3DCollection_18">
    <path d="M 354.334954 76.037345 
L 395.770369 112.514382 
" clip-path="url(#p24c4775a37)" style="fill: none; stroke: #000000; stroke-width: 2.2"/>
   </g>
  </g>
 </g>
 <defs>
  <clipPath id="p24c4775a37">
   <rect x="-133.2" y="-133.2" width="698.4" height="698.4"/>
  </clipPath>
 </defs>
</svg>
