<?xml version="1.0" encoding="utf-8" standalone="no"?>
<!DOCTYPE svg PUBLIC "-//W3C//DTD SVG 1.1//EN"
  "http://www.w3.org/Graphics/SVG/1.1/DTD/svg11.dtd">
<svg xmlns:xlink="http://www.w3.org/1999/xlink" width="576pt" height="432pt" viewBox="0 0 576 432" xmlns="http://www.w3.org/2000/svg" version="1.1">
 <metadata>
  <rdf:RDF xmlns:dc="http://purl.org/dc/elements/1.1/" xmlns:cc="http://creativecommons.org/ns#" xmlns:rdf="http://www.w3.org/1999/02/22-rdf-syntax-ns#">
   <cc:Work>
    <dc:type rdf:resource="http://purl.org/dc/dcmitype/StillImage"/>
    <dc:date>2023-06-30T09:23:29.083947</dc:date>
    <dc:format>image/svg+xml</dc:format>
    <dc:creator>
     <cc:Agent>
      <dc:title>Matplotlib v3.6.2, https://matplotlib.org/</dc:title>
     </cc:Agent>
    </dc:creator>
   </cc:Work>
  </rdf:RDF>
 </metadata>
 <defs>
  <style type="text/css">*{stroke-linejoin: round; stroke-linecap: butt}</style>
 </defs>
 <g id="figure_1">
  <g id="patch_1">
   <path d="M 0 432 
L 576 432 
L 576 -0 
L 0 -0 
z
" style="fill: #ffffff"/>
  </g>
  <g id="patch_2">
   <path d="M -133.2 565.2 
L 565.2 565.2 
L 565.2 -133.2 
L -133.2 -133.2 
z
" style="fill: #ffffff"/>
  </g>
  <g id="axes_1">
   <g id="line2d_1">
    <path d="M 205.141519 339.991815 
L 227.091963 300.3233 
" clip-path="url(#pc013bbf31f)" style="fill: none"/>
   </g>
   <g id="line2d_2">
    <path d="M 205.141519 339.991815 
L 212.307918 308.049674 
" clip-path="url(#pc013bbf31f)" style="fill: none"/>
   </g>
   <g id="line2d_3">
    <path d="M 205.141519 339.991815 
L 201.154713 291.585844 
" clip-path="url(#pc013bbf31f)" style="fill: none"/>
   </g>
   <g id="line2d_4">
    <path d="M 205.141519 339.991815 
" clip-path="url(#pc013bbf31f)" style="fill: none"/>
   </g>
   <g id="line2d_5">
    <path d="M 123.299063 120.804287 
L 100.569009 96.951256 
" clip-path="url(#pc013bbf31f)" style="fill: none; stroke: #000000; stroke-linecap: square"/>
   </g>
   <g id="line2d_6">
    <path d="M 100.569009 96.951256 
L 152.863467 87.369472 
" clip-path="url(#pc013bbf31f)" style="fill: none; stroke: #000000; stroke-linecap: square"/>
   </g>
   <g id="line2d_7">
    <path d="M 152.863467 87.369472 
L 144.330092 121.543422 
" clip-path="url(#pc013bbf31f)" style="fill: none; stroke: #000000; stroke-linecap: square"/>
   </g>
   <g id="line2d_8">
    <path d="M 144.330092 121.543422 
L 123.299063 120.804287 
" clip-path="url(#pc013bbf31f)" style="fill: none; stroke: #000000; stroke-linecap: square"/>
   </g>
   <g id="line2d_9">
    <path d="M 123.299063 120.804287 
L 152.863467 87.369472 
" clip-path="url(#pc013bbf31f)" style="fill: none; stroke: #000000; stroke-linecap: square"/>
   </g>
   <g id="line2d_10">
    <path d="M 100.569009 96.951256 
L 144.330092 121.543422 
" clip-path="url(#pc013bbf31f)" style="fill: none; stroke: #000000; stroke-linecap: square"/>
   </g>
   <g id="line2d_11">
    <path d="M 100.569009 96.951256 
L 113.670197 66.364788 
" clip-path="url(#pc013bbf31f)" style="fill: none; stroke: #000000; stroke-linecap: square"/>
   </g>
   <g id="line2d_12">
    <path d="M 113.670197 66.364788 
L 182.067699 54.896451 
" clip-path="url(#pc013bbf31f)" style="fill: none; stroke: #000000; stroke-linecap: square"/>
   </g>
   <g id="line2d_13">
    <path d="M 182.067699 54.896451 
L 152.863467 87.369472 
" clip-path="url(#pc013bbf31f)" style="fill: none; stroke: #000000; stroke-linecap: square"/>
   </g>
   <g id="line2d_14">
    <path d="M 152.863467 87.369472 
L 100.569009 96.951256 
" clip-path="url(#pc013bbf31f)" style="fill: none; stroke: #000000; stroke-linecap: square"/>
   </g>
   <g id="line2d_15">
    <path d="M 100.569009 96.951256 
L 182.067699 54.896451 
" clip-path="url(#pc013bbf31f)" style="fill: none; stroke: #000000; stroke-linecap: square"/>
   </g>
   <g id="line2d_16">
    <path d="M 113.670197 66.364788 
L 152.863467 87.369472 
" clip-path="url(#pc013bbf31f)" style="fill: none; stroke: #000000; stroke-linecap: square"/>
   </g>
   <g id="line2d_17">
    <path d="M 113.670197 66.364788 
L 137.89131 52.290543 
" clip-path="url(#pc013bbf31f)" style="fill: none; stroke: #000000; stroke-linecap: square"/>
   </g>
   <g id="line2d_18">
    <path d="M 137.89131 52.290543 
L 214.240701 40.03379 
" clip-path="url(#pc013bbf31f)" style="fill: none; stroke: #000000; stroke-linecap: square"/>
   </g>
   <g id="line2d_19">
    <path d="M 214.240701 40.03379 
L 182.067699 54.896451 
" clip-path="url(#pc013bbf31f)" style="fill: none; stroke: #000000; stroke-linecap: square"/>
   </g>
   <g id="line2d_20">
    <path d="M 182.067699 54.896451 
L 113.670197 66.364788 
" clip-path="url(#pc013bbf31f)" style="fill: none; stroke: #000000; stroke-linecap: square"/>
   </g>
   <g id="line2d_21">
    <path d="M 113.670197 66.364788 
L 214.240701 40.03379 
" clip-path="url(#pc013bbf31f)" style="fill: none; stroke: #000000; stroke-linecap: square"/>
   </g>
   <g id="line2d_22">
    <path d="M 137.89131 52.290543 
L 182.067699 54.896451 
" clip-path="url(#pc013bbf31f)" style="fill: none; stroke: #000000; stroke-linecap: square"/>
   </g>
   <g id="line2d_23">
    <path d="M 137.89131 52.290543 
L 168.085287 51.438144 
" clip-path="url(#pc013bbf31f)" style="fill: none; stroke: #000000; stroke-linecap: square"/>
   </g>
   <g id="line2d_24">
    <path d="M 168.085287 51.438144 
L 248.204312 38.628519 
" clip-path="url(#pc013bbf31f)" style="fill: none; stroke: #000000; stroke-linecap: square"/>
   </g>
   <g id="line2d_25">
    <path d="M 248.204312 38.628519 
L 214.240701 40.03379 
" clip-path="url(#pc013bbf31f)" style="fill: none; stroke: #000000; stroke-linecap: square"/>
   </g>
   <g id="line2d_26">
    <path d="M 214.240701 40.03379 
L 137.89131 52.290543 
" clip-path="url(#pc013bbf31f)" style="fill: none; stroke: #000000; stroke-linecap: square"/>
   </g>
   <g id="line2d_27">
    <path d="M 137.89131 52.290543 
L 248.204312 38.628519 
" clip-path="url(#pc013bbf31f)" style="fill: none; stroke: #000000; stroke-linecap: square"/>
   </g>
   <g id="line2d_28">
    <path d="M 168.085287 51.438144 
L 214.240701 40.03379 
" clip-path="url(#pc013bbf31f)" style="fill: none; stroke: #000000; stroke-linecap: square"/>
   </g>
   <g id="line2d_29">
    <path d="M 168.085287 51.438144 
L 202.12353 60.485344 
" clip-path="url(#pc013bbf31f)" style="fill: none; stroke: #000000; stroke-linecap: square"/>
   </g>
   <g id="line2d_30">
    <path d="M 202.12353 60.485344 
L 282.303352 47.339709 
" clip-path="url(#pc013bbf31f)" style="fill: none; stroke: #000000; stroke-linecap: square"/>
   </g>
   <g id="line2d_31">
    <path d="M 282.303352 47.339709 
L 248.204312 38.628519 
" clip-path="url(#pc013bbf31f)" style="fill: none; stroke: #000000; stroke-linecap: square"/>
   </g>
   <g id="line2d_32">
    <path d="M 248.204312 38.628519 
L 168.085287 51.438144 
" clip-path="url(#pc013bbf31f)" style="fill: none; stroke: #000000; stroke-linecap: square"/>
   </g>
   <g id="line2d_33">
    <path d="M 168.085287 51.438144 
L 282.303352 47.339709 
" clip-path="url(#pc013bbf31f)" style="fill: none; stroke: #000000; stroke-linecap: square"/>
   </g>
   <g id="line2d_34">
    <path d="M 202.12353 60.485344 
L 248.204312 38.628519 
" clip-path="url(#pc013bbf31f)" style="fill: none; stroke: #000000; stroke-linecap: square"/>
   </g>
   <g id="line2d_35">
    <path d="M 202.12353 60.485344 
L 238.286758 79.254401 
" clip-path="url(#pc013bbf31f)" style="fill: none; stroke: #000000; stroke-linecap: square"/>
   </g>
   <g id="line2d_36">
    <path d="M 238.286758 79.254401 
L 314.641333 65.992584 
" clip-path="url(#pc013bbf31f)" style="fill: none; stroke: #000000; stroke-linecap: square"/>
   </g>
   <g id="line2d_37">
    <path d="M 314.641333 65.992584 
L 282.303352 47.339709 
" clip-path="url(#pc013bbf31f)" style="fill: none; stroke: #000000; stroke-linecap: square"/>
   </g>
   <g id="line2d_38">
    <path d="M 282.303352 47.339709 
L 202.12353 60.485344 
" clip-path="url(#pc013bbf31f)" style="fill: none; stroke: #000000; stroke-linecap: square"/>
   </g>
   <g id="line2d_39">
    <path d="M 202.12353 60.485344 
L 314.641333 65.992584 
" clip-path="url(#pc013bbf31f)" style="fill: none; stroke: #000000; stroke-linecap: square"/>
   </g>
   <g id="line2d_40">
    <path d="M 238.286758 79.254401 
L 282.303352 47.339709 
" clip-path="url(#pc013bbf31f)" style="fill: none; stroke: #000000; stroke-linecap: square"/>
   </g>
   <g id="line2d_41">
    <path d="M 238.286758 79.254401 
L 274.109956 110.497463 
" clip-path="url(#pc013bbf31f)" style="fill: none; stroke: #000000; stroke-linecap: square"/>
   </g>
   <g id="line2d_42">
    <path d="M 274.109956 110.497463 
L 342.58163 97.547472 
" clip-path="url(#pc013bbf31f)" style="fill: none; stroke: #000000; stroke-linecap: square"/>
   </g>
   <g id="line2d_43">
    <path d="M 342.58163 97.547472 
L 314.641333 65.992584 
" clip-path="url(#pc013bbf31f)" style="fill: none; stroke: #000000; stroke-linecap: square"/>
   </g>
   <g id="line2d_44">
    <path d="M 314.641333 65.992584 
L 238.286758 79.254401 
" clip-path="url(#pc013bbf31f)" style="fill: none; stroke: #000000; stroke-linecap: square"/>
   </g>
   <g id="line2d_45">
    <path d="M 238.286758 79.254401 
L 342.58163 97.547472 
" clip-path="url(#pc013bbf31f)" style="fill: none; stroke: #000000; stroke-linecap: square"/>
   </g>
   <g id="line2d_46">
    <path d="M 274.109956 110.497463 
L 314.641333 65.992584 
" clip-path="url(#pc013bbf31f)" style="fill: none; stroke: #000000; stroke-linecap: square"/>
   </g>
   <g id="line2d_47">
    <path d="M 274.109956 110.497463 
L 303.339434 154.925639 
" clip-path="url(#pc013bbf31f)" style="fill: none; stroke: #000000; stroke-linecap: square"/>
   </g>
   <g id="line2d_48">
    <path d="M 303.339434 154.925639 
L 355.949182 143.88035 
" clip-path="url(#pc013bbf31f)" style="fill: none; stroke: #000000; stroke-linecap: square"/>
   </g>
   <g id="line2d_49">
    <path d="M 355.949182 143.88035 
L 342.58163 97.547472 
" clip-path="url(#pc013bbf31f)" style="fill: none; stroke: #000000; stroke-linecap: square"/>
   </g>
   <g id="line2d_50">
    <path d="M 342.58163 97.547472 
L 274.109956 110.497463 
" clip-path="url(#pc013bbf31f)" style="fill: none; stroke: #000000; stroke-linecap: square"/>
   </g>
   <g id="line2d_51">
    <path d="M 274.109956 110.497463 
L 355.949182 143.88035 
" clip-path="url(#pc013bbf31f)" style="fill: none; stroke: #000000; stroke-linecap: square"/>
   </g>
   <g id="line2d_52">
    <path d="M 303.339434 154.925639 
L 342.58163 97.547472 
" clip-path="url(#pc013bbf31f)" style="fill: none; stroke: #000000; stroke-linecap: square"/>
   </g>
   <g id="line2d_53">
    <path d="M 303.339434 154.925639 
L 334.919002 182.464697 
" clip-path="url(#pc013bbf31f)" style="fill: none; stroke: #000000; stroke-linecap: square"/>
   </g>
   <g id="line2d_54">
    <path d="M 334.919002 182.464697 
L 354.912684 182.546776 
" clip-path="url(#pc013bbf31f)" style="fill: none; stroke: #000000; stroke-linecap: square"/>
   </g>
   <g id="line2d_55">
    <path d="M 354.912684 182.546776 
L 355.949182 143.88035 
" clip-path="url(#pc013bbf31f)" style="fill: none; stroke: #000000; stroke-linecap: square"/>
   </g>
   <g id="line2d_56">
    <path d="M 355.949182 143.88035 
L 303.339434 154.925639 
" clip-path="url(#pc013bbf31f)" style="fill: none; stroke: #000000; stroke-linecap: square"/>
   </g>
   <g id="line2d_57">
    <path d="M 303.339434 154.925639 
L 354.912684 182.546776 
" clip-path="url(#pc013bbf31f)" style="fill: none; stroke: #000000; stroke-linecap: square"/>
   </g>
   <g id="line2d_58">
    <path d="M 334.919002 182.464697 
L 355.949182 143.88035 
" clip-path="url(#pc013bbf31f)" style="fill: none; stroke: #000000; stroke-linecap: square"/>
   </g>
   <g id="line2d_59">
    <path d="M 199.78761 367.548067 
L 205.141519 339.991815 
" clip-path="url(#pc013bbf31f)" style="fill: none"/>
   </g>
   <g id="line2d_60">
    <path d="M 205.141519 339.991815 
L 212.307918 308.049674 
" clip-path="url(#pc013bbf31f)" style="fill: none"/>
   </g>
   <g id="line2d_61">
    <path d="M 205.141519 339.991815 
L 201.154713 291.585844 
" clip-path="url(#pc013bbf31f)" style="fill: none"/>
   </g>
   <g id="line2d_62">
    <path d="M 205.141519 339.991815 
L 227.091963 300.3233 
" clip-path="url(#pc013bbf31f)" style="fill: none"/>
   </g>
   <g id="line2d_63">
    <path d="M 212.307918 308.049674 
L 208.57604 221.607452 
" clip-path="url(#pc013bbf31f)" style="fill: none"/>
   </g>
   <g id="line2d_64">
    <path d="M 212.307918 308.049674 
L 252.06554 235.291601 
" clip-path="url(#pc013bbf31f)" style="fill: none"/>
   </g>
   <g id="line2d_65">
    <path d="M 201.154713 291.585844 
L 208.57604 221.607452 
" clip-path="url(#pc013bbf31f)" style="fill: none"/>
   </g>
   <g id="line2d_66">
    <path d="M 201.154713 291.585844 
L 144.330092 121.543422 
" clip-path="url(#pc013bbf31f)" style="fill: none"/>
   </g>
   <g id="line2d_67">
    <path d="M 227.091963 300.3233 
L 252.06554 235.291601 
" clip-path="url(#pc013bbf31f)" style="fill: none"/>
   </g>
   <g id="line2d_68">
    <path d="M 227.091963 300.3233 
L 354.912684 182.546776 
" clip-path="url(#pc013bbf31f)" style="fill: none"/>
   </g>
   <g id="line2d_69">
    <path d="M 208.57604 221.607452 
L 175.483934 129.369721 
" clip-path="url(#pc013bbf31f)" style="fill: none"/>
   </g>
   <g id="line2d_70">
    <path d="M 208.57604 221.607452 
L 212.054766 125.083005 
" clip-path="url(#pc013bbf31f)" style="fill: none"/>
   </g>
   <g id="line2d_71">
    <path d="M 252.06554 235.291601 
L 314.07895 169.467664 
" clip-path="url(#pc013bbf31f)" style="fill: none"/>
   </g>
   <g id="line2d_72">
    <path d="M 252.06554 235.291601 
L 280.58785 144.598851 
" clip-path="url(#pc013bbf31f)" style="fill: none"/>
   </g>
   <g id="line2d_73">
    <path d="M 175.483934 129.369721 
L 152.863467 87.369472 
" clip-path="url(#pc013bbf31f)" style="fill: none"/>
   </g>
   <g id="line2d_74">
    <path d="M 175.483934 129.369721 
L 182.067699 54.896451 
" clip-path="url(#pc013bbf31f)" style="fill: none"/>
   </g>
   <g id="line2d_75">
    <path d="M 314.07895 169.467664 
L 355.949182 143.88035 
" clip-path="url(#pc013bbf31f)" style="fill: none"/>
   </g>
   <g id="line2d_76">
    <path d="M 314.07895 169.467664 
L 342.58163 97.547472 
" clip-path="url(#pc013bbf31f)" style="fill: none"/>
   </g>
   <g id="line2d_77">
    <path d="M 212.054766 125.083005 
L 214.240701 40.03379 
" clip-path="url(#pc013bbf31f)" style="fill: none"/>
   </g>
   <g id="line2d_78">
    <path d="M 212.054766 125.083005 
L 248.204312 38.628519 
" clip-path="url(#pc013bbf31f)" style="fill: none"/>
   </g>
   <g id="line2d_79">
    <path d="M 280.58785 144.598851 
L 314.641333 65.992584 
" clip-path="url(#pc013bbf31f)" style="fill: none"/>
   </g>
   <g id="line2d_80">
    <path d="M 280.58785 144.598851 
L 282.303352 47.339709 
" clip-path="url(#pc013bbf31f)" style="fill: none"/>
   </g>
   <g id="line2d_81">
    <path d="M 199.78761 367.548067 
L 164.306194 200.62325 
" clip-path="url(#pc013bbf31f)" style="fill: none"/>
   </g>
   <g id="line2d_82">
    <path d="M 199.78761 367.548067 
L 231.363612 221.576153 
" clip-path="url(#pc013bbf31f)" style="fill: none"/>
   </g>
   <g id="line2d_83">
    <path d="M 164.306194 200.62325 
L 146.805871 145.94634 
" clip-path="url(#pc013bbf31f)" style="fill: none"/>
   </g>
   <g id="line2d_84">
    <path d="M 164.306194 200.62325 
L 164.694781 135.609669 
" clip-path="url(#pc013bbf31f)" style="fill: none"/>
   </g>
   <g id="line2d_85">
    <path d="M 231.363612 221.576153 
L 251.064425 176.920344 
" clip-path="url(#pc013bbf31f)" style="fill: none"/>
   </g>
   <g id="line2d_86">
    <path d="M 231.363612 221.576153 
L 229.041467 154.413431 
" clip-path="url(#pc013bbf31f)" style="fill: none"/>
   </g>
   <g id="line2d_87">
    <path d="M 146.805871 145.94634 
L 100.569009 96.951256 
" clip-path="url(#pc013bbf31f)" style="fill: none"/>
   </g>
   <g id="line2d_88">
    <path d="M 146.805871 145.94634 
L 113.670197 66.364788 
" clip-path="url(#pc013bbf31f)" style="fill: none"/>
   </g>
   <g id="line2d_89">
    <path d="M 251.064425 176.920344 
L 303.339434 154.925639 
" clip-path="url(#pc013bbf31f)" style="fill: none"/>
   </g>
   <g id="line2d_90">
    <path d="M 251.064425 176.920344 
L 274.109956 110.497463 
" clip-path="url(#pc013bbf31f)" style="fill: none"/>
   </g>
   <g id="line2d_91">
    <path d="M 164.694781 135.609669 
L 137.89131 52.290543 
" clip-path="url(#pc013bbf31f)" style="fill: none"/>
   </g>
   <g id="line2d_92">
    <path d="M 164.694781 135.609669 
L 168.085287 51.438144 
" clip-path="url(#pc013bbf31f)" style="fill: none"/>
   </g>
   <g id="line2d_93">
    <path d="M 229.041467 154.413431 
L 238.286758 79.254401 
" clip-path="url(#pc013bbf31f)" style="fill: none"/>
   </g>
   <g id="line2d_94">
    <path d="M 229.041467 154.413431 
L 202.12353 60.485344 
" clip-path="url(#pc013bbf31f)" style="fill: none"/>
   </g>
   <g id="line2d_95">
    <path d="M 208.57604 221.607452 
L 123.299063 120.804287 
" clip-path="url(#pc013bbf31f)" style="fill: none"/>
   </g>
   <g id="line2d_96">
    <path d="M 252.06554 235.291601 
L 334.919002 182.464697 
" clip-path="url(#pc013bbf31f)" style="fill: none"/>
   </g>
   <g id="line2d_97">
    <path d="M 164.306194 200.62325 
L 123.299063 120.804287 
" clip-path="url(#pc013bbf31f)" style="fill: none"/>
   </g>
   <g id="line2d_98">
    <path d="M 231.363612 221.576153 
L 334.919002 182.464697 
" clip-path="url(#pc013bbf31f)" style="fill: none"/>
   </g>
   <g id="line2d_99">
    <path d="M 201.154713 291.585844 
" clip-path="url(#pc013bbf31f)" style="fill: none"/>
   </g>
   <g id="line2d_100">
    <path d="M 227.091963 300.3233 
" clip-path="url(#pc013bbf31f)" style="fill: none"/>
   </g>
   <g id="line2d_101">
    <path d="M 209.242812 339.882309 
L 240.143864 303.108033 
" clip-path="url(#pc013bbf31f)" style="fill: none"/>
   </g>
   <g id="line2d_102">
    <path d="M 209.242812 339.882309 
L 219.978144 308.045192 
" clip-path="url(#pc013bbf31f)" style="fill: none"/>
   </g>
   <g id="line2d_103">
    <path d="M 209.242812 339.882309 
L 207.304131 292.061414 
" clip-path="url(#pc013bbf31f)" style="fill: none"/>
   </g>
   <g id="line2d_104">
    <path d="M 209.242812 339.882309 
" clip-path="url(#pc013bbf31f)" style="fill: none"/>
   </g>
   <g id="line2d_105">
    <path d="M 146.737421 116.244166 
L 132.746062 85.85913 
" clip-path="url(#pc013bbf31f)" style="fill: none; stroke: #ff0000; stroke-linecap: square"/>
   </g>
   <g id="line2d_106">
    <path d="M 132.746062 85.85913 
L 186.321423 87.457503 
" clip-path="url(#pc013bbf31f)" style="fill: none; stroke: #ff0000; stroke-linecap: square"/>
   </g>
   <g id="line2d_107">
    <path d="M 186.321423 87.457503 
L 171.005292 121.805935 
" clip-path="url(#pc013bbf31f)" style="fill: none; stroke: #ff0000; stroke-linecap: square"/>
   </g>
   <g id="line2d_108">
    <path d="M 171.005292 121.805935 
L 146.737421 116.244166 
" clip-path="url(#pc013bbf31f)" style="fill: none; stroke: #ff0000; stroke-linecap: square"/>
   </g>
   <g id="line2d_109">
    <path d="M 146.737421 116.244166 
L 186.321423 87.457503 
" clip-path="url(#pc013bbf31f)" style="fill: none; stroke: #ff0000; stroke-linecap: square"/>
   </g>
   <g id="line2d_110">
    <path d="M 132.746062 85.85913 
L 171.005292 121.805935 
" clip-path="url(#pc013bbf31f)" style="fill: none; stroke: #ff0000; stroke-linecap: square"/>
   </g>
   <g id="line2d_111">
    <path d="M 132.746062 85.85913 
L 151.410049 61.293849 
" clip-path="url(#pc013bbf31f)" style="fill: none; stroke: #ff0000; stroke-linecap: square"/>
   </g>
   <g id="line2d_112">
    <path d="M 151.410049 61.293849 
L 217.317364 56.106865 
" clip-path="url(#pc013bbf31f)" style="fill: none; stroke: #ff0000; stroke-linecap: square"/>
   </g>
   <g id="line2d_113">
    <path d="M 217.317364 56.106865 
L 186.321423 87.457503 
" clip-path="url(#pc013bbf31f)" style="fill: none; stroke: #ff0000; stroke-linecap: square"/>
   </g>
   <g id="line2d_114">
    <path d="M 186.321423 87.457503 
L 132.746062 85.85913 
" clip-path="url(#pc013bbf31f)" style="fill: none; stroke: #ff0000; stroke-linecap: square"/>
   </g>
   <g id="line2d_115">
    <path d="M 132.746062 85.85913 
L 217.317364 56.106865 
" clip-path="url(#pc013bbf31f)" style="fill: none; stroke: #ff0000; stroke-linecap: square"/>
   </g>
   <g id="line2d_116">
    <path d="M 151.410049 61.293849 
L 186.321423 87.457503 
" clip-path="url(#pc013bbf31f)" style="fill: none; stroke: #ff0000; stroke-linecap: square"/>
   </g>
   <g id="line2d_117">
    <path d="M 151.410049 61.293849 
L 176.540932 48.08041 
" clip-path="url(#pc013bbf31f)" style="fill: none; stroke: #ff0000; stroke-linecap: square"/>
   </g>
   <g id="line2d_118">
    <path d="M 176.540932 48.08041 
L 251.237011 45.674604 
" clip-path="url(#pc013bbf31f)" style="fill: none; stroke: #ff0000; stroke-linecap: square"/>
   </g>
   <g id="line2d_119">
    <path d="M 251.237011 45.674604 
L 217.317364 56.106865 
" clip-path="url(#pc013bbf31f)" style="fill: none; stroke: #ff0000; stroke-linecap: square"/>
   </g>
   <g id="line2d_120">
    <path d="M 217.317364 56.106865 
L 151.410049 61.293849 
" clip-path="url(#pc013bbf31f)" style="fill: none; stroke: #ff0000; stroke-linecap: square"/>
   </g>
   <g id="line2d_121">
    <path d="M 151.410049 61.293849 
L 251.237011 45.674604 
" clip-path="url(#pc013bbf31f)" style="fill: none; stroke: #ff0000; stroke-linecap: square"/>
   </g>
   <g id="line2d_122">
    <path d="M 176.540932 48.08041 
L 217.317364 56.106865 
" clip-path="url(#pc013bbf31f)" style="fill: none; stroke: #ff0000; stroke-linecap: square"/>
   </g>
   <g id="line2d_123">
    <path d="M 176.540932 48.08041 
L 205.05902 50.396559 
" clip-path="url(#pc013bbf31f)" style="fill: none; stroke: #ff0000; stroke-linecap: square"/>
   </g>
   <g id="line2d_124">
    <path d="M 205.05902 50.396559 
L 283.431714 44.296748 
" clip-path="url(#pc013bbf31f)" style="fill: none; stroke: #ff0000; stroke-linecap: square"/>
   </g>
   <g id="line2d_125">
    <path d="M 283.431714 44.296748 
L 251.237011 45.674604 
" clip-path="url(#pc013bbf31f)" style="fill: none; stroke: #ff0000; stroke-linecap: square"/>
   </g>
   <g id="line2d_126">
    <path d="M 251.237011 45.674604 
L 176.540932 48.08041 
" clip-path="url(#pc013bbf31f)" style="fill: none; stroke: #ff0000; stroke-linecap: square"/>
   </g>
   <g id="line2d_127">
    <path d="M 176.540932 48.08041 
L 283.431714 44.296748 
" clip-path="url(#pc013bbf31f)" style="fill: none; stroke: #ff0000; stroke-linecap: square"/>
   </g>
   <g id="line2d_128">
    <path d="M 205.05902 50.396559 
L 251.237011 45.674604 
" clip-path="url(#pc013bbf31f)" style="fill: none; stroke: #ff0000; stroke-linecap: square"/>
   </g>
   <g id="line2d_129">
    <path d="M 205.05902 50.396559 
L 239.355052 59.397901 
" clip-path="url(#pc013bbf31f)" style="fill: none; stroke: #ff0000; stroke-linecap: square"/>
   </g>
   <g id="line2d_130">
    <path d="M 239.355052 59.397901 
L 317.610815 52.994276 
" clip-path="url(#pc013bbf31f)" style="fill: none; stroke: #ff0000; stroke-linecap: square"/>
   </g>
   <g id="line2d_131">
    <path d="M 317.610815 52.994276 
L 283.431714 44.296748 
" clip-path="url(#pc013bbf31f)" style="fill: none; stroke: #ff0000; stroke-linecap: square"/>
   </g>
   <g id="line2d_132">
    <path d="M 283.431714 44.296748 
L 205.05902 50.396559 
" clip-path="url(#pc013bbf31f)" style="fill: none; stroke: #ff0000; stroke-linecap: square"/>
   </g>
   <g id="line2d_133">
    <path d="M 205.05902 50.396559 
L 317.610815 52.994276 
" clip-path="url(#pc013bbf31f)" style="fill: none; stroke: #ff0000; stroke-linecap: square"/>
   </g>
   <g id="line2d_134">
    <path d="M 239.355052 59.397901 
L 283.431714 44.296748 
" clip-path="url(#pc013bbf31f)" style="fill: none; stroke: #ff0000; stroke-linecap: square"/>
   </g>
   <g id="line2d_135">
    <path d="M 239.355052 59.397901 
L 278.280791 74.945848 
" clip-path="url(#pc013bbf31f)" style="fill: none; stroke: #ff0000; stroke-linecap: square"/>
   </g>
   <g id="line2d_136">
    <path d="M 278.280791 74.945848 
L 351.737714 71.539937 
" clip-path="url(#pc013bbf31f)" style="fill: none; stroke: #ff0000; stroke-linecap: square"/>
   </g>
   <g id="line2d_137">
    <path d="M 351.737714 71.539937 
L 317.610815 52.994276 
" clip-path="url(#pc013bbf31f)" style="fill: none; stroke: #ff0000; stroke-linecap: square"/>
   </g>
   <g id="line2d_138">
    <path d="M 317.610815 52.994276 
L 239.355052 59.397901 
" clip-path="url(#pc013bbf31f)" style="fill: none; stroke: #ff0000; stroke-linecap: square"/>
   </g>
   <g id="line2d_139">
    <path d="M 239.355052 59.397901 
L 351.737714 71.539937 
" clip-path="url(#pc013bbf31f)" style="fill: none; stroke: #ff0000; stroke-linecap: square"/>
   </g>
   <g id="line2d_140">
    <path d="M 278.280791 74.945848 
L 317.610815 52.994276 
" clip-path="url(#pc013bbf31f)" style="fill: none; stroke: #ff0000; stroke-linecap: square"/>
   </g>
   <g id="line2d_141">
    <path d="M 278.280791 74.945848 
L 314.357771 105.330888 
" clip-path="url(#pc013bbf31f)" style="fill: none; stroke: #ff0000; stroke-linecap: square"/>
   </g>
   <g id="line2d_142">
    <path d="M 314.357771 105.330888 
L 382.095361 99.480097 
" clip-path="url(#pc013bbf31f)" style="fill: none; stroke: #ff0000; stroke-linecap: square"/>
   </g>
   <g id="line2d_143">
    <path d="M 382.095361 99.480097 
L 351.737714 71.539937 
" clip-path="url(#pc013bbf31f)" style="fill: none; stroke: #ff0000; stroke-linecap: square"/>
   </g>
   <g id="line2d_144">
    <path d="M 351.737714 71.539937 
L 278.280791 74.945848 
" clip-path="url(#pc013bbf31f)" style="fill: none; stroke: #ff0000; stroke-linecap: square"/>
   </g>
   <g id="line2d_145">
    <path d="M 278.280791 74.945848 
L 382.095361 99.480097 
" clip-path="url(#pc013bbf31f)" style="fill: none; stroke: #ff0000; stroke-linecap: square"/>
   </g>
   <g id="line2d_146">
    <path d="M 314.357771 105.330888 
L 351.737714 71.539937 
" clip-path="url(#pc013bbf31f)" style="fill: none; stroke: #ff0000; stroke-linecap: square"/>
   </g>
   <g id="line2d_147">
    <path d="M 314.357771 105.330888 
L 348.995971 146.310468 
" clip-path="url(#pc013bbf31f)" style="fill: none; stroke: #ff0000; stroke-linecap: square"/>
   </g>
   <g id="line2d_148">
    <path d="M 348.995971 146.310468 
L 395.313591 145.017126 
" clip-path="url(#pc013bbf31f)" style="fill: none; stroke: #ff0000; stroke-linecap: square"/>
   </g>
   <g id="line2d_149">
    <path d="M 395.313591 145.017126 
L 382.095361 99.480097 
" clip-path="url(#pc013bbf31f)" style="fill: none; stroke: #ff0000; stroke-linecap: square"/>
   </g>
   <g id="line2d_150">
    <path d="M 382.095361 99.480097 
L 314.357771 105.330888 
" clip-path="url(#pc013bbf31f)" style="fill: none; stroke: #ff0000; stroke-linecap: square"/>
   </g>
   <g id="line2d_151">
    <path d="M 314.357771 105.330888 
L 395.313591 145.017126 
" clip-path="url(#pc013bbf31f)" style="fill: none; stroke: #ff0000; stroke-linecap: square"/>
   </g>
   <g id="line2d_152">
    <path d="M 348.995971 146.310468 
L 382.095361 99.480097 
" clip-path="url(#pc013bbf31f)" style="fill: none; stroke: #ff0000; stroke-linecap: square"/>
   </g>
   <g id="line2d_153">
    <path d="M 348.995971 146.310468 
L 371.303278 180.877586 
" clip-path="url(#pc013bbf31f)" style="fill: none; stroke: #ff0000; stroke-linecap: square"/>
   </g>
   <g id="line2d_154">
    <path d="M 371.303278 180.877586 
L 380.997787 182.152274 
" clip-path="url(#pc013bbf31f)" style="fill: none; stroke: #ff0000; stroke-linecap: square"/>
   </g>
   <g id="line2d_155">
    <path d="M 380.997787 182.152274 
L 395.313591 145.017126 
" clip-path="url(#pc013bbf31f)" style="fill: none; stroke: #ff0000; stroke-linecap: square"/>
   </g>
   <g id="line2d_156">
    <path d="M 395.313591 145.017126 
L 348.995971 146.310468 
" clip-path="url(#pc013bbf31f)" style="fill: none; stroke: #ff0000; stroke-linecap: square"/>
   </g>
   <g id="line2d_157">
    <path d="M 348.995971 146.310468 
L 380.997787 182.152274 
" clip-path="url(#pc013bbf31f)" style="fill: none; stroke: #ff0000; stroke-linecap: square"/>
   </g>
   <g id="line2d_158">
    <path d="M 371.303278 180.877586 
L 395.313591 145.017126 
" clip-path="url(#pc013bbf31f)" style="fill: none; stroke: #ff0000; stroke-linecap: square"/>
   </g>
   <g id="line2d_159">
    <path d="M 199.78761 367.548067 
L 209.242812 339.882309 
" clip-path="url(#pc013bbf31f)" style="fill: none"/>
   </g>
   <g id="line2d_160">
    <path d="M 209.242812 339.882309 
L 219.978144 308.045192 
" clip-path="url(#pc013bbf31f)" style="fill: none"/>
   </g>
   <g id="line2d_161">
    <path d="M 209.242812 339.882309 
L 207.304131 292.061414 
" clip-path="url(#pc013bbf31f)" style="fill: none"/>
   </g>
   <g id="line2d_162">
    <path d="M 209.242812 339.882309 
L 240.143864 303.108033 
" clip-path="url(#pc013bbf31f)" style="fill: none"/>
   </g>
   <g id="line2d_163">
    <path d="M 219.978144 308.045192 
L 212.323779 222.912587 
" clip-path="url(#pc013bbf31f)" style="fill: none"/>
   </g>
   <g id="line2d_164">
    <path d="M 219.978144 308.045192 
L 277.007192 243.267981 
" clip-path="url(#pc013bbf31f)" style="fill: none"/>
   </g>
   <g id="line2d_165">
    <path d="M 207.304131 292.061414 
L 212.323779 222.912587 
" clip-path="url(#pc013bbf31f)" style="fill: none"/>
   </g>
   <g id="line2d_166">
    <path d="M 207.304131 292.061414 
L 171.005292 121.805935 
" clip-path="url(#pc013bbf31f)" style="fill: none"/>
   </g>
   <g id="line2d_167">
    <path d="M 240.143864 303.108033 
L 277.007192 243.267981 
" clip-path="url(#pc013bbf31f)" style="fill: none"/>
   </g>
   <g id="line2d_168">
    <path d="M 240.143864 303.108033 
L 380.997787 182.152274 
" clip-path="url(#pc013bbf31f)" style="fill: none"/>
   </g>
   <g id="line2d_169">
    <path d="M 212.323779 222.912587 
L 204.28269 129.400615 
" clip-path="url(#pc013bbf31f)" style="fill: none"/>
   </g>
   <g id="line2d_170">
    <path d="M 212.323779 222.912587 
L 240.758792 129.474156 
" clip-path="url(#pc013bbf31f)" style="fill: none"/>
   </g>
   <g id="line2d_171">
    <path d="M 277.007192 243.267981 
L 350.07273 171.208778 
" clip-path="url(#pc013bbf31f)" style="fill: none"/>
   </g>
   <g id="line2d_172">
    <path d="M 277.007192 243.267981 
L 310.2917 149.194885 
" clip-path="url(#pc013bbf31f)" style="fill: none"/>
   </g>
   <g id="line2d_173">
    <path d="M 204.28269 129.400615 
L 186.321423 87.457503 
" clip-path="url(#pc013bbf31f)" style="fill: none"/>
   </g>
   <g id="line2d_174">
    <path d="M 204.28269 129.400615 
L 217.317364 56.106865 
" clip-path="url(#pc013bbf31f)" style="fill: none"/>
   </g>
   <g id="line2d_175">
    <path d="M 350.07273 171.208778 
L 395.313591 145.017126 
" clip-path="url(#pc013bbf31f)" style="fill: none"/>
   </g>
   <g id="line2d_176">
    <path d="M 350.07273 171.208778 
L 382.095361 99.480097 
" clip-path="url(#pc013bbf31f)" style="fill: none"/>
   </g>
   <g id="line2d_177">
    <path d="M 240.758792 129.474156 
L 251.237011 45.674604 
" clip-path="url(#pc013bbf31f)" style="fill: none"/>
   </g>
   <g id="line2d_178">
    <path d="M 240.758792 129.474156 
L 283.431714 44.296748 
" clip-path="url(#pc013bbf31f)" style="fill: none"/>
   </g>
   <g id="line2d_179">
    <path d="M 310.2917 149.194885 
L 351.737714 71.539937 
" clip-path="url(#pc013bbf31f)" style="fill: none"/>
   </g>
   <g id="line2d_180">
    <path d="M 310.2917 149.194885 
L 317.610815 52.994276 
" clip-path="url(#pc013bbf31f)" style="fill: none"/>
   </g>
   <g id="line2d_181">
    <path d="M 199.78761 367.548067 
L 176.524844 197.292307 
" clip-path="url(#pc013bbf31f)" style="fill: none"/>
   </g>
   <g id="line2d_182">
    <path d="M 199.78761 367.548067 
L 263.098788 224.151808 
" clip-path="url(#pc013bbf31f)" style="fill: none"/>
   </g>
   <g id="line2d_183">
    <path d="M 176.524844 197.292307 
L 161.151843 143.262176 
" clip-path="url(#pc013bbf31f)" style="fill: none"/>
   </g>
   <g id="line2d_184">
    <path d="M 176.524844 197.292307 
L 183.409436 133.435185 
" clip-path="url(#pc013bbf31f)" style="fill: none"/>
   </g>
   <g id="line2d_185">
    <path d="M 263.098788 224.151808 
L 293.161912 182.195632 
" clip-path="url(#pc013bbf31f)" style="fill: none"/>
   </g>
   <g id="line2d_186">
    <path d="M 263.098788 224.151808 
L 260.365588 155.742068 
" clip-path="url(#pc013bbf31f)" style="fill: none"/>
   </g>
   <g id="line2d_187">
    <path d="M 161.151843 143.262176 
L 132.746062 85.85913 
" clip-path="url(#pc013bbf31f)" style="fill: none"/>
   </g>
   <g id="line2d_188">
    <path d="M 161.151843 143.262176 
L 151.410049 61.293849 
" clip-path="url(#pc013bbf31f)" style="fill: none"/>
   </g>
   <g id="line2d_189">
    <path d="M 293.161912 182.195632 
L 348.995971 146.310468 
" clip-path="url(#pc013bbf31f)" style="fill: none"/>
   </g>
   <g id="line2d_190">
    <path d="M 293.161912 182.195632 
L 314.357771 105.330888 
" clip-path="url(#pc013bbf31f)" style="fill: none"/>
   </g>
   <g id="line2d_191">
    <path d="M 183.409436 133.435185 
L 176.540932 48.08041 
" clip-path="url(#pc013bbf31f)" style="fill: none"/>
   </g>
   <g id="line2d_192">
    <path d="M 183.409436 133.435185 
L 205.05902 50.396559 
" clip-path="url(#pc013bbf31f)" style="fill: none"/>
   </g>
   <g id="line2d_193">
    <path d="M 260.365588 155.742068 
L 278.280791 74.945848 
" clip-path="url(#pc013bbf31f)" style="fill: none"/>
   </g>
   <g id="line2d_194">
    <path d="M 260.365588 155.742068 
L 239.355052 59.397901 
" clip-path="url(#pc013bbf31f)" style="fill: none"/>
   </g>
   <g id="line2d_195">
    <path d="M 212.323779 222.912587 
L 146.737421 116.244166 
" clip-path="url(#pc013bbf31f)" style="fill: none"/>
   </g>
   <g id="line2d_196">
    <path d="M 277.007192 243.267981 
L 371.303278 180.877586 
" clip-path="url(#pc013bbf31f)" style="fill: none"/>
   </g>
   <g id="line2d_197">
    <path d="M 176.524844 197.292307 
L 146.737421 116.244166 
" clip-path="url(#pc013bbf31f)" style="fill: none"/>
   </g>
   <g id="line2d_198">
    <path d="M 263.098788 224.151808 
L 371.303278 180.877586 
" clip-path="url(#pc013bbf31f)" style="fill: none"/>
   </g>
   <g id="line2d_199">
    <path d="M 207.304131 292.061414 
" clip-path="url(#pc013bbf31f)" style="fill: none"/>
   </g>
   <g id="line2d_200">
    <path d="M 240.143864 303.108033 
" clip-path="url(#pc013bbf31f)" style="fill: none"/>
   </g>
   <g id="line2d_201">
    <path d="M 199.78761 367.548067 
L 199.78761 367.548067 
" clip-path="url(#pc013bbf31f)" style="fill: none; stroke: #000000; stroke-width: 0.5; stroke-linecap: square"/>
    <defs>
     <path id="ma4827a2003" d="M 0 0.025 
C 0.00663 0.025 0.012989 0.022366 0.017678 0.017678 
C 0.022366 0.012989 0.025 0.00663 0.025 0 
C 0.025 -0.00663 0.022366 -0.012989 0.017678 -0.017678 
C 0.012989 -0.022366 0.00663 -0.025 0 -0.025 
C -0.00663 -0.025 -0.012989 -0.022366 -0.017678 -0.017678 
C -0.022366 -0.012989 -0.025 -0.00663 -0.025 0 
C -0.025 0.00663 -0.022366 0.012989 -0.017678 0.017678 
C -0.012989 0.022366 -0.00663 0.025 0 0.025 
z
" style="stroke: #000000"/>
    </defs>
    <g clip-path="url(#pc013bbf31f)">
     <use xlink:href="#ma4827a2003" x="199.78761" y="367.548067" style="stroke: #000000"/>
     <use xlink:href="#ma4827a2003" x="199.78761" y="367.548067" style="stroke: #000000"/>
    </g>
   </g>
   <g id="Poly3DCollection_1">
    <path d="M 146.737421 116.244166 
L 132.746062 85.85913 
L 186.321423 87.457503 
L 171.005292 121.805935 
z
" clip-path="url(#pc013bbf31f)" style="fill: #ff0000; fill-opacity: 0.15"/>
   </g>
   <g id="Line3DCollection_1">
    <path d="M 146.737421 116.244166 
L 132.746062 85.85913 
" clip-path="url(#pc013bbf31f)" style="fill: none; stroke: #ff0000; stroke-width: 2.2"/>
   </g>
   <g id="Poly3DCollection_2">
    <path d="M 123.299063 120.804287 
L 100.569009 96.951256 
L 152.863467 87.369472 
L 144.330092 121.543422 
z
" clip-path="url(#pc013bbf31f)" style="fill: #808080; fill-opacity: 0.15"/>
   </g>
   <g id="Line3DCollection_2">
    <path d="M 123.299063 120.804287 
L 100.569009 96.951256 
" clip-path="url(#pc013bbf31f)" style="fill: none; stroke: #000000; stroke-width: 2.2"/>
   </g>
   <g id="Poly3DCollection_3">
    <path d="M 132.746062 85.85913 
L 151.410049 61.293849 
L 217.317364 56.106865 
L 186.321423 87.457503 
z
" clip-path="url(#pc013bbf31f)" style="fill: #ff0000; fill-opacity: 0.15"/>
   </g>
   <g id="Line3DCollection_3">
    <path d="M 132.746062 85.85913 
L 151.410049 61.293849 
" clip-path="url(#pc013bbf31f)" style="fill: none; stroke: #ff0000; stroke-width: 2.2"/>
   </g>
   <g id="Poly3DCollection_4">
    <path d="M 100.569009 96.951256 
L 113.670197 66.364788 
L 182.067699 54.896451 
L 152.863467 87.369472 
z
" clip-path="url(#pc013bbf31f)" style="fill: #808080; fill-opacity: 0.15"/>
   </g>
   <g id="Line3DCollection_4">
    <path d="M 100.569009 96.951256 
L 113.670197 66.364788 
" clip-path="url(#pc013bbf31f)" style="fill: none; stroke: #000000; stroke-width: 2.2"/>
   </g>
   <g id="Poly3DCollection_5">
    <path d="M 151.410049 61.293849 
L 176.540932 48.08041 
L 251.237011 45.674604 
L 217.317364 56.106865 
z
" clip-path="url(#pc013bbf31f)" style="fill: #ff0000; fill-opacity: 0.15"/>
   </g>
   <g id="Line3DCollection_5">
    <path d="M 151.410049 61.293849 
L 176.540932 48.08041 
" clip-path="url(#pc013bbf31f)" style="fill: none; stroke: #ff0000; stroke-width: 2.2"/>
   </g>
   <g id="Poly3DCollection_6">
    <path d="M 113.670197 66.364788 
L 137.89131 52.290543 
L 214.240701 40.03379 
L 182.067699 54.896451 
z
" clip-path="url(#pc013bbf31f)" style="fill: #808080; fill-opacity: 0.15"/>
   </g>
   <g id="Line3DCollection_6">
    <path d="M 113.670197 66.364788 
L 137.89131 52.290543 
" clip-path="url(#pc013bbf31f)" style="fill: none; stroke: #000000; stroke-width: 2.2"/>
   </g>
   <g id="Poly3DCollection_7">
    <path d="M 176.540932 48.08041 
L 205.05902 50.396559 
L 283.431714 44.296748 
L 251.237011 45.674604 
z
" clip-path="url(#pc013bbf31f)" style="fill: #ff0000; fill-opacity: 0.15"/>
   </g>
   <g id="Line3DCollection_7">
    <path d="M 176.540932 48.08041 
L 205.05902 50.396559 
" clip-path="url(#pc013bbf31f)" style="fill: none; stroke: #ff0000; stroke-width: 2.2"/>
   </g>
   <g id="Poly3DCollection_8">
    <path d="M 137.89131 52.290543 
L 168.085287 51.438144 
L 248.204312 38.628519 
L 214.240701 40.03379 
z
" clip-path="url(#pc013bbf31f)" style="fill: #808080; fill-opacity: 0.15"/>
   </g>
   <g id="Line3DCollection_8">
    <path d="M 137.89131 52.290543 
L 168.085287 51.438144 
" clip-path="url(#pc013bbf31f)" style="fill: none; stroke: #000000; stroke-width: 2.2"/>
   </g>
   <g id="Poly3DCollection_9">
    <path d="M 205.05902 50.396559 
L 239.355052 59.397901 
L 317.610815 52.994276 
L 283.431714 44.296748 
z
" clip-path="url(#pc013bbf31f)" style="fill: #ff0000; fill-opacity: 0.15"/>
   </g>
   <g id="Line3DCollection_9">
    <path d="M 205.05902 50.396559 
L 239.355052 59.397901 
" clip-path="url(#pc013bbf31f)" style="fill: none; stroke: #ff0000; stroke-width: 2.2"/>
   </g>
   <g id="Poly3DCollection_10">
    <path d="M 168.085287 51.438144 
L 202.12353 60.485344 
L 282.303352 47.339709 
L 248.204312 38.628519 
z
" clip-path="url(#pc013bbf31f)" style="fill: #808080; fill-opacity: 0.15"/>
   </g>
   <g id="Line3DCollection_10">
    <path d="M 168.085287 51.438144 
L 202.12353 60.485344 
" clip-path="url(#pc013bbf31f)" style="fill: none; stroke: #000000; stroke-width: 2.2"/>
   </g>
   <g id="Poly3DCollection_11">
    <path d="M 239.355052 59.397901 
L 278.280791 74.945848 
L 351.737714 71.539937 
L 317.610815 52.994276 
z
" clip-path="url(#pc013bbf31f)" style="fill: #ff0000; fill-opacity: 0.15"/>
   </g>
   <g id="Line3DCollection_11">
    <path d="M 239.355052 59.397901 
L 278.280791 74.945848 
" clip-path="url(#pc013bbf31f)" style="fill: none; stroke: #ff0000; stroke-width: 2.2"/>
   </g>
   <g id="Poly3DCollection_12">
    <path d="M 278.280791 74.945848 
L 314.357771 105.330888 
L 382.095361 99.480097 
L 351.737714 71.539937 
z
" clip-path="url(#pc013bbf31f)" style="fill: #ff0000; fill-opacity: 0.15"/>
   </g>
   <g id="Line3DCollection_12">
    <path d="M 278.280791 74.945848 
L 314.357771 105.330888 
" clip-path="url(#pc013bbf31f)" style="fill: none; stroke: #ff0000; stroke-width: 2.2"/>
   </g>
   <g id="Poly3DCollection_13">
    <path d="M 202.12353 60.485344 
L 238.286758 79.254401 
L 314.641333 65.992584 
L 282.303352 47.339709 
z
" clip-path="url(#pc013bbf31f)" style="fill: #808080; fill-opacity: 0.15"/>
   </g>
   <g id="Line3DCollection_13">
    <path d="M 202.12353 60.485344 
L 238.286758 79.254401 
" clip-path="url(#pc013bbf31f)" style="fill: none; stroke: #000000; stroke-width: 2.2"/>
   </g>
   <g id="Poly3DCollection_14">
    <path d="M 314.357771 105.330888 
L 348.995971 146.310468 
L 395.313591 145.017126 
L 382.095361 99.480097 
z
" clip-path="url(#pc013bbf31f)" style="fill: #ff0000; fill-opacity: 0.15"/>
   </g>
   <g id="Line3DCollection_14">
    <path d="M 314.357771 105.330888 
L 348.995971 146.310468 
" clip-path="url(#pc013bbf31f)" style="fill: none; stroke: #ff0000; stroke-width: 2.2"/>
   </g>
   <g id="Poly3DCollection_15">
    <path d="M 348.995971 146.310468 
L 371.303278 180.877586 
L 380.997787 182.152274 
L 395.313591 145.017126 
z
" clip-path="url(#pc013bbf31f)" style="fill: #ff0000; fill-opacity: 0.15"/>
   </g>
   <g id="Line3DCollection_15">
    <path d="M 348.995971 146.310468 
L 371.303278 180.877586 
" clip-path="url(#pc013bbf31f)" style="fill: none; stroke: #ff0000; stroke-width: 2.2"/>
   </g>
   <g id="Poly3DCollection_16">
    <path d="M 238.286758 79.254401 
L 274.109956 110.497463 
L 342.58163 97.547472 
L 314.641333 65.992584 
z
" clip-path="url(#pc013bbf31f)" style="fill: #808080; fill-opacity: 0.15"/>
   </g>
   <g id="Line3DCollection_16">
    <path d="M 238.286758 79.254401 
L 274.109956 110.497463 
" clip-path="url(#pc013bbf31f)" style="fill: none; stroke: #000000; stroke-width: 2.2"/>
   </g>
   <g id="Poly3DCollection_17">
    <path d="M 274.109956 110.497463 
L 303.339434 154.925639 
L 355.949182 143.88035 
L 342.58163 97.547472 
z
" clip-path="url(#pc013bbf31f)" style="fill: #808080; fill-opacity: 0.15"/>
   </g>
   <g id="Line3DCollection_17">
    <path d="M 274.109956 110.497463 
L 303.339434 154.925639 
" clip-path="url(#pc013bbf31f)" style="fill: none; stroke: #000000; stroke-width: 2.2"/>
   </g>
   <g id="Poly3DCollection_18">
    <path d="M 303.339434 154.925639 
L 334.919002 182.464697 
L 354.912684 182.546776 
L 355.949182 143.88035 
z
" clip-path="url(#pc013bbf31f)" style="fill: #808080; fill-opacity: 0.15"/>
   </g>
   <g id="Line3DCollection_18">
    <path d="M 303.339434 154.925639 
L 334.919002 182.464697 
" clip-path="url(#pc013bbf31f)" style="fill: none; stroke: #000000; stroke-width: 2.2"/>
   </g>
  </g>
 </g>
 <defs>
  <clipPath id="pc013bbf31f">
   <rect x="-133.2" y="-133.2" width="698.4" height="698.4"/>
  </clipPath>
 </defs>
</svg>
