<?xml version="1.0" encoding="utf-8" standalone="no"?>
<!DOCTYPE svg PUBLIC "-//W3C//DTD SVG 1.1//EN"
  "http://www.w3.org/Graphics/SVG/1.1/DTD/svg11.dtd">
<svg xmlns:xlink="http://www.w3.org/1999/xlink" width="576pt" height="432pt" viewBox="0 0 576 432" xmlns="http://www.w3.org/2000/svg" version="1.1">
 <metadata>
  <rdf:RDF xmlns:dc="http://purl.org/dc/elements/1.1/" xmlns:cc="http://creativecommons.org/ns#" xmlns:rdf="http://www.w3.org/1999/02/22-rdf-syntax-ns#">
   <cc:Work>
    <dc:type rdf:resource="http://purl.org/dc/dcmitype/StillImage"/>
    <dc:date>2023-06-30T10:27:55.103765</dc:date>
    <dc:format>image/svg+xml</dc:format>
    <dc:creator>
     <cc:Agent>
      <dc:title>Matplotlib v3.6.2, https://matplotlib.org/</dc:title>
     </cc:Agent>
    </dc:creator>
   </cc:Work>
  </rdf:RDF>
 </metadata>
 <defs>
  <style type="text/css">*{stroke-linejoin: round; stroke-linecap: butt}</style>
 </defs>
 <g id="figure_1">
  <g id="patch_1">
   <path d="M 0 432 
L 576 432 
L 576 -0 
L 0 -0 
z
" style="fill: #ffffff"/>
  </g>
  <g id="patch_2">
   <path d="M -133.2 565.2 
L 565.2 565.2 
L 565.2 -133.2 
L -133.2 -133.2 
z
" style="fill: #ffffff"/>
  </g>
  <g id="axes_1">
   <g id="line2d_1">
    <path d="M 225.437838 276.128463 
L 248.333074 254.420635 
" clip-path="url(#p0698acb7ff)" style="fill: none"/>
   </g>
   <g id="line2d_2">
    <path d="M 225.437838 276.128463 
L 225.437838 260.420528 
" clip-path="url(#p0698acb7ff)" style="fill: none"/>
   </g>
   <g id="line2d_3">
    <path d="M 225.437838 276.128463 
L 202.542601 254.420635 
" clip-path="url(#p0698acb7ff)" style="fill: none"/>
   </g>
   <g id="line2d_4">
    <path d="M 225.437838 276.128463 
" clip-path="url(#p0698acb7ff)" style="fill: none"/>
   </g>
   <g id="line2d_5">
    <path d="M 47.858087 200.604803 
L 51.508155 222.87126 
" clip-path="url(#p0698acb7ff)" style="fill: none; stroke: #000000; stroke-linecap: square"/>
   </g>
   <g id="line2d_6">
    <path d="M 51.508155 222.87126 
L 59.757942 154.371026 
" clip-path="url(#p0698acb7ff)" style="fill: none; stroke: #000000; stroke-linecap: square"/>
   </g>
   <g id="line2d_7">
    <path d="M 59.757942 154.371026 
L 58.016789 176.284212 
" clip-path="url(#p0698acb7ff)" style="fill: none; stroke: #000000; stroke-linecap: square"/>
   </g>
   <g id="line2d_8">
    <path d="M 58.016789 176.284212 
L 47.858087 200.604803 
" clip-path="url(#p0698acb7ff)" style="fill: none; stroke: #000000; stroke-linecap: square"/>
   </g>
   <g id="line2d_9">
    <path d="M 47.858087 200.604803 
L 59.757942 154.371026 
" clip-path="url(#p0698acb7ff)" style="fill: none; stroke: #000000; stroke-linecap: square"/>
   </g>
   <g id="line2d_10">
    <path d="M 51.508155 222.87126 
L 58.016789 176.284212 
" clip-path="url(#p0698acb7ff)" style="fill: none; stroke: #000000; stroke-linecap: square"/>
   </g>
   <g id="line2d_11">
    <path d="M 51.508155 222.87126 
L 92.578907 225.065309 
" clip-path="url(#p0698acb7ff)" style="fill: none; stroke: #000000; stroke-linecap: square"/>
   </g>
   <g id="line2d_12">
    <path d="M 92.578907 225.065309 
L 92.344829 132.87628 
" clip-path="url(#p0698acb7ff)" style="fill: none; stroke: #000000; stroke-linecap: square"/>
   </g>
   <g id="line2d_13">
    <path d="M 92.344829 132.87628 
L 59.757942 154.371026 
" clip-path="url(#p0698acb7ff)" style="fill: none; stroke: #000000; stroke-linecap: square"/>
   </g>
   <g id="line2d_14">
    <path d="M 59.757942 154.371026 
L 51.508155 222.87126 
" clip-path="url(#p0698acb7ff)" style="fill: none; stroke: #000000; stroke-linecap: square"/>
   </g>
   <g id="line2d_15">
    <path d="M 51.508155 222.87126 
L 92.344829 132.87628 
" clip-path="url(#p0698acb7ff)" style="fill: none; stroke: #000000; stroke-linecap: square"/>
   </g>
   <g id="line2d_16">
    <path d="M 92.578907 225.065309 
L 59.757942 154.371026 
" clip-path="url(#p0698acb7ff)" style="fill: none; stroke: #000000; stroke-linecap: square"/>
   </g>
   <g id="line2d_17">
    <path d="M 92.578907 225.065309 
L 141.754967 224.300729 
" clip-path="url(#p0698acb7ff)" style="fill: none; stroke: #000000; stroke-linecap: square"/>
   </g>
   <g id="line2d_18">
    <path d="M 141.754967 224.300729 
L 144.014574 122.374276 
" clip-path="url(#p0698acb7ff)" style="fill: none; stroke: #000000; stroke-linecap: square"/>
   </g>
   <g id="line2d_19">
    <path d="M 144.014574 122.374276 
L 92.344829 132.87628 
" clip-path="url(#p0698acb7ff)" style="fill: none; stroke: #000000; stroke-linecap: square"/>
   </g>
   <g id="line2d_20">
    <path d="M 92.344829 132.87628 
L 92.578907 225.065309 
" clip-path="url(#p0698acb7ff)" style="fill: none; stroke: #000000; stroke-linecap: square"/>
   </g>
   <g id="line2d_21">
    <path d="M 92.578907 225.065309 
L 144.014574 122.374276 
" clip-path="url(#p0698acb7ff)" style="fill: none; stroke: #000000; stroke-linecap: square"/>
   </g>
   <g id="line2d_22">
    <path d="M 141.754967 224.300729 
L 92.344829 132.87628 
" clip-path="url(#p0698acb7ff)" style="fill: none; stroke: #000000; stroke-linecap: square"/>
   </g>
   <g id="line2d_23">
    <path d="M 141.754967 224.300729 
L 197.279143 224.34609 
" clip-path="url(#p0698acb7ff)" style="fill: none; stroke: #000000; stroke-linecap: square"/>
   </g>
   <g id="line2d_24">
    <path d="M 197.279143 224.34609 
L 197.598144 116.239799 
" clip-path="url(#p0698acb7ff)" style="fill: none; stroke: #000000; stroke-linecap: square"/>
   </g>
   <g id="line2d_25">
    <path d="M 197.598144 116.239799 
L 144.014574 122.374276 
" clip-path="url(#p0698acb7ff)" style="fill: none; stroke: #000000; stroke-linecap: square"/>
   </g>
   <g id="line2d_26">
    <path d="M 144.014574 122.374276 
L 141.754967 224.300729 
" clip-path="url(#p0698acb7ff)" style="fill: none; stroke: #000000; stroke-linecap: square"/>
   </g>
   <g id="line2d_27">
    <path d="M 141.754967 224.300729 
L 197.598144 116.239799 
" clip-path="url(#p0698acb7ff)" style="fill: none; stroke: #000000; stroke-linecap: square"/>
   </g>
   <g id="line2d_28">
    <path d="M 197.279143 224.34609 
L 144.014574 122.374276 
" clip-path="url(#p0698acb7ff)" style="fill: none; stroke: #000000; stroke-linecap: square"/>
   </g>
   <g id="line2d_29">
    <path d="M 197.279143 224.34609 
L 253.596532 224.34609 
" clip-path="url(#p0698acb7ff)" style="fill: none; stroke: #000000; stroke-linecap: square"/>
   </g>
   <g id="line2d_30">
    <path d="M 253.596532 224.34609 
L 253.277531 116.239799 
" clip-path="url(#p0698acb7ff)" style="fill: none; stroke: #000000; stroke-linecap: square"/>
   </g>
   <g id="line2d_31">
    <path d="M 253.277531 116.239799 
L 197.598144 116.239799 
" clip-path="url(#p0698acb7ff)" style="fill: none; stroke: #000000; stroke-linecap: square"/>
   </g>
   <g id="line2d_32">
    <path d="M 197.598144 116.239799 
L 197.279143 224.34609 
" clip-path="url(#p0698acb7ff)" style="fill: none; stroke: #000000; stroke-linecap: square"/>
   </g>
   <g id="line2d_33">
    <path d="M 197.279143 224.34609 
L 253.277531 116.239799 
" clip-path="url(#p0698acb7ff)" style="fill: none; stroke: #000000; stroke-linecap: square"/>
   </g>
   <g id="line2d_34">
    <path d="M 253.596532 224.34609 
L 197.598144 116.239799 
" clip-path="url(#p0698acb7ff)" style="fill: none; stroke: #000000; stroke-linecap: square"/>
   </g>
   <g id="line2d_35">
    <path d="M 253.596532 224.34609 
L 309.120708 224.300729 
" clip-path="url(#p0698acb7ff)" style="fill: none; stroke: #000000; stroke-linecap: square"/>
   </g>
   <g id="line2d_36">
    <path d="M 309.120708 224.300729 
L 306.861102 122.374276 
" clip-path="url(#p0698acb7ff)" style="fill: none; stroke: #000000; stroke-linecap: square"/>
   </g>
   <g id="line2d_37">
    <path d="M 306.861102 122.374276 
L 253.277531 116.239799 
" clip-path="url(#p0698acb7ff)" style="fill: none; stroke: #000000; stroke-linecap: square"/>
   </g>
   <g id="line2d_38">
    <path d="M 253.277531 116.239799 
L 253.596532 224.34609 
" clip-path="url(#p0698acb7ff)" style="fill: none; stroke: #000000; stroke-linecap: square"/>
   </g>
   <g id="line2d_39">
    <path d="M 253.596532 224.34609 
L 306.861102 122.374276 
" clip-path="url(#p0698acb7ff)" style="fill: none; stroke: #000000; stroke-linecap: square"/>
   </g>
   <g id="line2d_40">
    <path d="M 309.120708 224.300729 
L 253.277531 116.239799 
" clip-path="url(#p0698acb7ff)" style="fill: none; stroke: #000000; stroke-linecap: square"/>
   </g>
   <g id="line2d_41">
    <path d="M 309.120708 224.300729 
L 358.296768 225.065309 
" clip-path="url(#p0698acb7ff)" style="fill: none; stroke: #000000; stroke-linecap: square"/>
   </g>
   <g id="line2d_42">
    <path d="M 358.296768 225.065309 
L 358.530847 132.87628 
" clip-path="url(#p0698acb7ff)" style="fill: none; stroke: #000000; stroke-linecap: square"/>
   </g>
   <g id="line2d_43">
    <path d="M 358.530847 132.87628 
L 306.861102 122.374276 
" clip-path="url(#p0698acb7ff)" style="fill: none; stroke: #000000; stroke-linecap: square"/>
   </g>
   <g id="line2d_44">
    <path d="M 306.861102 122.374276 
L 309.120708 224.300729 
" clip-path="url(#p0698acb7ff)" style="fill: none; stroke: #000000; stroke-linecap: square"/>
   </g>
   <g id="line2d_45">
    <path d="M 309.120708 224.300729 
L 358.530847 132.87628 
" clip-path="url(#p0698acb7ff)" style="fill: none; stroke: #000000; stroke-linecap: square"/>
   </g>
   <g id="line2d_46">
    <path d="M 358.296768 225.065309 
L 306.861102 122.374276 
" clip-path="url(#p0698acb7ff)" style="fill: none; stroke: #000000; stroke-linecap: square"/>
   </g>
   <g id="line2d_47">
    <path d="M 358.296768 225.065309 
L 399.36752 222.87126 
" clip-path="url(#p0698acb7ff)" style="fill: none; stroke: #000000; stroke-linecap: square"/>
   </g>
   <g id="line2d_48">
    <path d="M 399.36752 222.87126 
L 391.117734 154.371026 
" clip-path="url(#p0698acb7ff)" style="fill: none; stroke: #000000; stroke-linecap: square"/>
   </g>
   <g id="line2d_49">
    <path d="M 391.117734 154.371026 
L 358.530847 132.87628 
" clip-path="url(#p0698acb7ff)" style="fill: none; stroke: #000000; stroke-linecap: square"/>
   </g>
   <g id="line2d_50">
    <path d="M 358.530847 132.87628 
L 358.296768 225.065309 
" clip-path="url(#p0698acb7ff)" style="fill: none; stroke: #000000; stroke-linecap: square"/>
   </g>
   <g id="line2d_51">
    <path d="M 358.296768 225.065309 
L 391.117734 154.371026 
" clip-path="url(#p0698acb7ff)" style="fill: none; stroke: #000000; stroke-linecap: square"/>
   </g>
   <g id="line2d_52">
    <path d="M 399.36752 222.87126 
L 358.530847 132.87628 
" clip-path="url(#p0698acb7ff)" style="fill: none; stroke: #000000; stroke-linecap: square"/>
   </g>
   <g id="line2d_53">
    <path d="M 399.36752 222.87126 
L 403.017589 200.604803 
" clip-path="url(#p0698acb7ff)" style="fill: none; stroke: #000000; stroke-linecap: square"/>
   </g>
   <g id="line2d_54">
    <path d="M 403.017589 200.604803 
L 392.858887 176.284212 
" clip-path="url(#p0698acb7ff)" style="fill: none; stroke: #000000; stroke-linecap: square"/>
   </g>
   <g id="line2d_55">
    <path d="M 392.858887 176.284212 
L 391.117734 154.371026 
" clip-path="url(#p0698acb7ff)" style="fill: none; stroke: #000000; stroke-linecap: square"/>
   </g>
   <g id="line2d_56">
    <path d="M 391.117734 154.371026 
L 399.36752 222.87126 
" clip-path="url(#p0698acb7ff)" style="fill: none; stroke: #000000; stroke-linecap: square"/>
   </g>
   <g id="line2d_57">
    <path d="M 399.36752 222.87126 
L 392.858887 176.284212 
" clip-path="url(#p0698acb7ff)" style="fill: none; stroke: #000000; stroke-linecap: square"/>
   </g>
   <g id="line2d_58">
    <path d="M 403.017589 200.604803 
L 391.117734 154.371026 
" clip-path="url(#p0698acb7ff)" style="fill: none; stroke: #000000; stroke-linecap: square"/>
   </g>
   <g id="line2d_59">
    <path d="M 225.437838 289.80834 
L 225.437838 276.128463 
" clip-path="url(#p0698acb7ff)" style="fill: none"/>
   </g>
   <g id="line2d_60">
    <path d="M 225.437838 276.128463 
L 225.437838 260.420528 
" clip-path="url(#p0698acb7ff)" style="fill: none"/>
   </g>
   <g id="line2d_61">
    <path d="M 225.437838 276.128463 
L 202.542601 254.420635 
" clip-path="url(#p0698acb7ff)" style="fill: none"/>
   </g>
   <g id="line2d_62">
    <path d="M 225.437838 276.128463 
L 248.333074 254.420635 
" clip-path="url(#p0698acb7ff)" style="fill: none"/>
   </g>
   <g id="line2d_63">
    <path d="M 225.437838 260.420528 
L 179.936931 221.759025 
" clip-path="url(#p0698acb7ff)" style="fill: none"/>
   </g>
   <g id="line2d_64">
    <path d="M 225.437838 260.420528 
L 270.938745 221.759025 
" clip-path="url(#p0698acb7ff)" style="fill: none"/>
   </g>
   <g id="line2d_65">
    <path d="M 202.542601 254.420635 
L 179.936931 221.759025 
" clip-path="url(#p0698acb7ff)" style="fill: none"/>
   </g>
   <g id="line2d_66">
    <path d="M 202.542601 254.420635 
L 58.016789 176.284212 
" clip-path="url(#p0698acb7ff)" style="fill: none"/>
   </g>
   <g id="line2d_67">
    <path d="M 248.333074 254.420635 
L 270.938745 221.759025 
" clip-path="url(#p0698acb7ff)" style="fill: none"/>
   </g>
   <g id="line2d_68">
    <path d="M 248.333074 254.420635 
L 392.858887 176.284212 
" clip-path="url(#p0698acb7ff)" style="fill: none"/>
   </g>
   <g id="line2d_69">
    <path d="M 179.936931 221.759025 
L 112.87698 175.089104 
" clip-path="url(#p0698acb7ff)" style="fill: none"/>
   </g>
   <g id="line2d_70">
    <path d="M 179.936931 221.759025 
L 173.622585 169.805779 
" clip-path="url(#p0698acb7ff)" style="fill: none"/>
   </g>
   <g id="line2d_71">
    <path d="M 270.938745 221.759025 
L 337.998696 175.089104 
" clip-path="url(#p0698acb7ff)" style="fill: none"/>
   </g>
   <g id="line2d_72">
    <path d="M 270.938745 221.759025 
L 277.25309 169.805779 
" clip-path="url(#p0698acb7ff)" style="fill: none"/>
   </g>
   <g id="line2d_73">
    <path d="M 112.87698 175.089104 
L 59.757942 154.371026 
" clip-path="url(#p0698acb7ff)" style="fill: none"/>
   </g>
   <g id="line2d_74">
    <path d="M 112.87698 175.089104 
L 92.344829 132.87628 
" clip-path="url(#p0698acb7ff)" style="fill: none"/>
   </g>
   <g id="line2d_75">
    <path d="M 337.998696 175.089104 
L 391.117734 154.371026 
" clip-path="url(#p0698acb7ff)" style="fill: none"/>
   </g>
   <g id="line2d_76">
    <path d="M 337.998696 175.089104 
L 358.530847 132.87628 
" clip-path="url(#p0698acb7ff)" style="fill: none"/>
   </g>
   <g id="line2d_77">
    <path d="M 173.622585 169.805779 
L 144.014574 122.374276 
" clip-path="url(#p0698acb7ff)" style="fill: none"/>
   </g>
   <g id="line2d_78">
    <path d="M 173.622585 169.805779 
L 197.598144 116.239799 
" clip-path="url(#p0698acb7ff)" style="fill: none"/>
   </g>
   <g id="line2d_79">
    <path d="M 277.25309 169.805779 
L 306.861102 122.374276 
" clip-path="url(#p0698acb7ff)" style="fill: none"/>
   </g>
   <g id="line2d_80">
    <path d="M 277.25309 169.805779 
L 253.277531 116.239799 
" clip-path="url(#p0698acb7ff)" style="fill: none"/>
   </g>
   <g id="line2d_81">
    <path d="M 225.437838 289.80834 
L 160.899217 252.767141 
" clip-path="url(#p0698acb7ff)" style="fill: none"/>
   </g>
   <g id="line2d_82">
    <path d="M 225.437838 289.80834 
L 289.976459 252.767141 
" clip-path="url(#p0698acb7ff)" style="fill: none"/>
   </g>
   <g id="line2d_83">
    <path d="M 160.899217 252.767141 
L 122.816072 240.61219 
" clip-path="url(#p0698acb7ff)" style="fill: none"/>
   </g>
   <g id="line2d_84">
    <path d="M 160.899217 252.767141 
L 165.00058 240.924473 
" clip-path="url(#p0698acb7ff)" style="fill: none"/>
   </g>
   <g id="line2d_85">
    <path d="M 289.976459 252.767141 
L 328.059604 240.61219 
" clip-path="url(#p0698acb7ff)" style="fill: none"/>
   </g>
   <g id="line2d_86">
    <path d="M 289.976459 252.767141 
L 285.875096 240.924473 
" clip-path="url(#p0698acb7ff)" style="fill: none"/>
   </g>
   <g id="line2d_87">
    <path d="M 122.816072 240.61219 
L 51.508155 222.87126 
" clip-path="url(#p0698acb7ff)" style="fill: none"/>
   </g>
   <g id="line2d_88">
    <path d="M 122.816072 240.61219 
L 92.578907 225.065309 
" clip-path="url(#p0698acb7ff)" style="fill: none"/>
   </g>
   <g id="line2d_89">
    <path d="M 328.059604 240.61219 
L 399.36752 222.87126 
" clip-path="url(#p0698acb7ff)" style="fill: none"/>
   </g>
   <g id="line2d_90">
    <path d="M 328.059604 240.61219 
L 358.296768 225.065309 
" clip-path="url(#p0698acb7ff)" style="fill: none"/>
   </g>
   <g id="line2d_91">
    <path d="M 165.00058 240.924473 
L 141.754967 224.300729 
" clip-path="url(#p0698acb7ff)" style="fill: none"/>
   </g>
   <g id="line2d_92">
    <path d="M 165.00058 240.924473 
L 197.279143 224.34609 
" clip-path="url(#p0698acb7ff)" style="fill: none"/>
   </g>
   <g id="line2d_93">
    <path d="M 285.875096 240.924473 
L 309.120708 224.300729 
" clip-path="url(#p0698acb7ff)" style="fill: none"/>
   </g>
   <g id="line2d_94">
    <path d="M 285.875096 240.924473 
L 253.596532 224.34609 
" clip-path="url(#p0698acb7ff)" style="fill: none"/>
   </g>
   <g id="line2d_95">
    <path d="M 179.936931 221.759025 
L 47.858087 200.604803 
" clip-path="url(#p0698acb7ff)" style="fill: none"/>
   </g>
   <g id="line2d_96">
    <path d="M 270.938745 221.759025 
L 403.017589 200.604803 
" clip-path="url(#p0698acb7ff)" style="fill: none"/>
   </g>
   <g id="line2d_97">
    <path d="M 160.899217 252.767141 
L 47.858087 200.604803 
" clip-path="url(#p0698acb7ff)" style="fill: none"/>
   </g>
   <g id="line2d_98">
    <path d="M 289.976459 252.767141 
L 403.017589 200.604803 
" clip-path="url(#p0698acb7ff)" style="fill: none"/>
   </g>
   <g id="line2d_99">
    <path d="M 202.542601 254.420635 
" clip-path="url(#p0698acb7ff)" style="fill: none"/>
   </g>
   <g id="line2d_100">
    <path d="M 248.333074 254.420635 
" clip-path="url(#p0698acb7ff)" style="fill: none"/>
   </g>
   <g id="line2d_101">
    <path d="M 219.424641 277.242243 
L 239.362552 270.398524 
" clip-path="url(#p0698acb7ff)" style="fill: none"/>
   </g>
   <g id="line2d_102">
    <path d="M 219.424641 277.242243 
L 218.317353 260.262175 
" clip-path="url(#p0698acb7ff)" style="fill: none"/>
   </g>
   <g id="line2d_103">
    <path d="M 219.424641 277.242243 
L 202.666582 252.911883 
" clip-path="url(#p0698acb7ff)" style="fill: none"/>
   </g>
   <g id="line2d_104">
    <path d="M 219.424641 277.242243 
" clip-path="url(#p0698acb7ff)" style="fill: none"/>
   </g>
   <g id="line2d_105">
    <path d="M 48.272124 140.080939 
L 26.293731 160.674179 
" clip-path="url(#p0698acb7ff)" style="fill: none; stroke: #ff0000; stroke-linecap: square"/>
   </g>
   <g id="line2d_106">
    <path d="M 26.293731 160.674179 
L 52.5424 99.091091 
" clip-path="url(#p0698acb7ff)" style="fill: none; stroke: #ff0000; stroke-linecap: square"/>
   </g>
   <g id="line2d_107">
    <path d="M 52.5424 99.091091 
L 69.025567 123.40242 
" clip-path="url(#p0698acb7ff)" style="fill: none; stroke: #ff0000; stroke-linecap: square"/>
   </g>
   <g id="line2d_108">
    <path d="M 69.025567 123.40242 
L 48.272124 140.080939 
" clip-path="url(#p0698acb7ff)" style="fill: none; stroke: #ff0000; stroke-linecap: square"/>
   </g>
   <g id="line2d_109">
    <path d="M 48.272124 140.080939 
L 52.5424 99.091091 
" clip-path="url(#p0698acb7ff)" style="fill: none; stroke: #ff0000; stroke-linecap: square"/>
   </g>
   <g id="line2d_110">
    <path d="M 26.293731 160.674179 
L 69.025567 123.40242 
" clip-path="url(#p0698acb7ff)" style="fill: none; stroke: #ff0000; stroke-linecap: square"/>
   </g>
   <g id="line2d_111">
    <path d="M 26.293731 160.674179 
L 59.190905 163.632139 
" clip-path="url(#p0698acb7ff)" style="fill: none; stroke: #ff0000; stroke-linecap: square"/>
   </g>
   <g id="line2d_112">
    <path d="M 59.190905 163.632139 
L 89.554015 80.492248 
" clip-path="url(#p0698acb7ff)" style="fill: none; stroke: #ff0000; stroke-linecap: square"/>
   </g>
   <g id="line2d_113">
    <path d="M 89.554015 80.492248 
L 52.5424 99.091091 
" clip-path="url(#p0698acb7ff)" style="fill: none; stroke: #ff0000; stroke-linecap: square"/>
   </g>
   <g id="line2d_114">
    <path d="M 52.5424 99.091091 
L 26.293731 160.674179 
" clip-path="url(#p0698acb7ff)" style="fill: none; stroke: #ff0000; stroke-linecap: square"/>
   </g>
   <g id="line2d_115">
    <path d="M 26.293731 160.674179 
L 89.554015 80.492248 
" clip-path="url(#p0698acb7ff)" style="fill: none; stroke: #ff0000; stroke-linecap: square"/>
   </g>
   <g id="line2d_116">
    <path d="M 59.190905 163.632139 
L 52.5424 99.091091 
" clip-path="url(#p0698acb7ff)" style="fill: none; stroke: #ff0000; stroke-linecap: square"/>
   </g>
   <g id="line2d_117">
    <path d="M 59.190905 163.632139 
L 103.660746 164.674488 
" clip-path="url(#p0698acb7ff)" style="fill: none; stroke: #ff0000; stroke-linecap: square"/>
   </g>
   <g id="line2d_118">
    <path d="M 103.660746 164.674488 
L 137.505989 73.353711 
" clip-path="url(#p0698acb7ff)" style="fill: none; stroke: #ff0000; stroke-linecap: square"/>
   </g>
   <g id="line2d_119">
    <path d="M 137.505989 73.353711 
L 89.554015 80.492248 
" clip-path="url(#p0698acb7ff)" style="fill: none; stroke: #ff0000; stroke-linecap: square"/>
   </g>
   <g id="line2d_120">
    <path d="M 89.554015 80.492248 
L 59.190905 163.632139 
" clip-path="url(#p0698acb7ff)" style="fill: none; stroke: #ff0000; stroke-linecap: square"/>
   </g>
   <g id="line2d_121">
    <path d="M 59.190905 163.632139 
L 137.505989 73.353711 
" clip-path="url(#p0698acb7ff)" style="fill: none; stroke: #ff0000; stroke-linecap: square"/>
   </g>
   <g id="line2d_122">
    <path d="M 103.660746 164.674488 
L 89.554015 80.492248 
" clip-path="url(#p0698acb7ff)" style="fill: none; stroke: #ff0000; stroke-linecap: square"/>
   </g>
   <g id="line2d_123">
    <path d="M 103.660746 164.674488 
L 156.601027 171.405189 
" clip-path="url(#p0698acb7ff)" style="fill: none; stroke: #ff0000; stroke-linecap: square"/>
   </g>
   <g id="line2d_124">
    <path d="M 156.601027 171.405189 
L 190.721048 76.667758 
" clip-path="url(#p0698acb7ff)" style="fill: none; stroke: #ff0000; stroke-linecap: square"/>
   </g>
   <g id="line2d_125">
    <path d="M 190.721048 76.667758 
L 137.505989 73.353711 
" clip-path="url(#p0698acb7ff)" style="fill: none; stroke: #ff0000; stroke-linecap: square"/>
   </g>
   <g id="line2d_126">
    <path d="M 137.505989 73.353711 
L 103.660746 164.674488 
" clip-path="url(#p0698acb7ff)" style="fill: none; stroke: #ff0000; stroke-linecap: square"/>
   </g>
   <g id="line2d_127">
    <path d="M 103.660746 164.674488 
L 190.721048 76.667758 
" clip-path="url(#p0698acb7ff)" style="fill: none; stroke: #ff0000; stroke-linecap: square"/>
   </g>
   <g id="line2d_128">
    <path d="M 156.601027 171.405189 
L 137.505989 73.353711 
" clip-path="url(#p0698acb7ff)" style="fill: none; stroke: #ff0000; stroke-linecap: square"/>
   </g>
   <g id="line2d_129">
    <path d="M 156.601027 171.405189 
L 210.153979 184.834654 
" clip-path="url(#p0698acb7ff)" style="fill: none; stroke: #ff0000; stroke-linecap: square"/>
   </g>
   <g id="line2d_130">
    <path d="M 210.153979 184.834654 
L 242.688879 87.730774 
" clip-path="url(#p0698acb7ff)" style="fill: none; stroke: #ff0000; stroke-linecap: square"/>
   </g>
   <g id="line2d_131">
    <path d="M 242.688879 87.730774 
L 190.721048 76.667758 
" clip-path="url(#p0698acb7ff)" style="fill: none; stroke: #ff0000; stroke-linecap: square"/>
   </g>
   <g id="line2d_132">
    <path d="M 190.721048 76.667758 
L 156.601027 171.405189 
" clip-path="url(#p0698acb7ff)" style="fill: none; stroke: #ff0000; stroke-linecap: square"/>
   </g>
   <g id="line2d_133">
    <path d="M 156.601027 171.405189 
L 242.688879 87.730774 
" clip-path="url(#p0698acb7ff)" style="fill: none; stroke: #ff0000; stroke-linecap: square"/>
   </g>
   <g id="line2d_134">
    <path d="M 210.153979 184.834654 
L 190.721048 76.667758 
" clip-path="url(#p0698acb7ff)" style="fill: none; stroke: #ff0000; stroke-linecap: square"/>
   </g>
   <g id="line2d_135">
    <path d="M 210.153979 184.834654 
L 263.958472 202.801786 
" clip-path="url(#p0698acb7ff)" style="fill: none; stroke: #ff0000; stroke-linecap: square"/>
   </g>
   <g id="line2d_136">
    <path d="M 263.958472 202.801786 
L 291.53905 111.617662 
" clip-path="url(#p0698acb7ff)" style="fill: none; stroke: #ff0000; stroke-linecap: square"/>
   </g>
   <g id="line2d_137">
    <path d="M 291.53905 111.617662 
L 242.688879 87.730774 
" clip-path="url(#p0698acb7ff)" style="fill: none; stroke: #ff0000; stroke-linecap: square"/>
   </g>
   <g id="line2d_138">
    <path d="M 242.688879 87.730774 
L 210.153979 184.834654 
" clip-path="url(#p0698acb7ff)" style="fill: none; stroke: #ff0000; stroke-linecap: square"/>
   </g>
   <g id="line2d_139">
    <path d="M 210.153979 184.834654 
L 291.53905 111.617662 
" clip-path="url(#p0698acb7ff)" style="fill: none; stroke: #ff0000; stroke-linecap: square"/>
   </g>
   <g id="line2d_140">
    <path d="M 263.958472 202.801786 
L 242.688879 87.730774 
" clip-path="url(#p0698acb7ff)" style="fill: none; stroke: #ff0000; stroke-linecap: square"/>
   </g>
   <g id="line2d_141">
    <path d="M 263.958472 202.801786 
L 312.962957 221.198702 
" clip-path="url(#p0698acb7ff)" style="fill: none; stroke: #ff0000; stroke-linecap: square"/>
   </g>
   <g id="line2d_142">
    <path d="M 312.962957 221.198702 
L 337.610515 138.786853 
" clip-path="url(#p0698acb7ff)" style="fill: none; stroke: #ff0000; stroke-linecap: square"/>
   </g>
   <g id="line2d_143">
    <path d="M 337.610515 138.786853 
L 291.53905 111.617662 
" clip-path="url(#p0698acb7ff)" style="fill: none; stroke: #ff0000; stroke-linecap: square"/>
   </g>
   <g id="line2d_144">
    <path d="M 291.53905 111.617662 
L 263.958472 202.801786 
" clip-path="url(#p0698acb7ff)" style="fill: none; stroke: #ff0000; stroke-linecap: square"/>
   </g>
   <g id="line2d_145">
    <path d="M 263.958472 202.801786 
L 337.610515 138.786853 
" clip-path="url(#p0698acb7ff)" style="fill: none; stroke: #ff0000; stroke-linecap: square"/>
   </g>
   <g id="line2d_146">
    <path d="M 312.962957 221.198702 
L 291.53905 111.617662 
" clip-path="url(#p0698acb7ff)" style="fill: none; stroke: #ff0000; stroke-linecap: square"/>
   </g>
   <g id="line2d_147">
    <path d="M 312.962957 221.198702 
L 360.484982 234.001743 
" clip-path="url(#p0698acb7ff)" style="fill: none; stroke: #ff0000; stroke-linecap: square"/>
   </g>
   <g id="line2d_148">
    <path d="M 360.484982 234.001743 
L 370.65646 168.924154 
" clip-path="url(#p0698acb7ff)" style="fill: none; stroke: #ff0000; stroke-linecap: square"/>
   </g>
   <g id="line2d_149">
    <path d="M 370.65646 168.924154 
L 337.610515 138.786853 
" clip-path="url(#p0698acb7ff)" style="fill: none; stroke: #ff0000; stroke-linecap: square"/>
   </g>
   <g id="line2d_150">
    <path d="M 337.610515 138.786853 
L 312.962957 221.198702 
" clip-path="url(#p0698acb7ff)" style="fill: none; stroke: #ff0000; stroke-linecap: square"/>
   </g>
   <g id="line2d_151">
    <path d="M 312.962957 221.198702 
L 370.65646 168.924154 
" clip-path="url(#p0698acb7ff)" style="fill: none; stroke: #ff0000; stroke-linecap: square"/>
   </g>
   <g id="line2d_152">
    <path d="M 360.484982 234.001743 
L 337.610515 138.786853 
" clip-path="url(#p0698acb7ff)" style="fill: none; stroke: #ff0000; stroke-linecap: square"/>
   </g>
   <g id="line2d_153">
    <path d="M 360.484982 234.001743 
L 355.027176 215.16496 
" clip-path="url(#p0698acb7ff)" style="fill: none; stroke: #ff0000; stroke-linecap: square"/>
   </g>
   <g id="line2d_154">
    <path d="M 355.027176 215.16496 
L 367.58687 190.146307 
" clip-path="url(#p0698acb7ff)" style="fill: none; stroke: #ff0000; stroke-linecap: square"/>
   </g>
   <g id="line2d_155">
    <path d="M 367.58687 190.146307 
L 370.65646 168.924154 
" clip-path="url(#p0698acb7ff)" style="fill: none; stroke: #ff0000; stroke-linecap: square"/>
   </g>
   <g id="line2d_156">
    <path d="M 370.65646 168.924154 
L 360.484982 234.001743 
" clip-path="url(#p0698acb7ff)" style="fill: none; stroke: #ff0000; stroke-linecap: square"/>
   </g>
   <g id="line2d_157">
    <path d="M 360.484982 234.001743 
L 367.58687 190.146307 
" clip-path="url(#p0698acb7ff)" style="fill: none; stroke: #ff0000; stroke-linecap: square"/>
   </g>
   <g id="line2d_158">
    <path d="M 355.027176 215.16496 
L 370.65646 168.924154 
" clip-path="url(#p0698acb7ff)" style="fill: none; stroke: #ff0000; stroke-linecap: square"/>
   </g>
   <g id="line2d_159">
    <path d="M 225.437838 289.80834 
L 219.424641 277.242243 
" clip-path="url(#p0698acb7ff)" style="fill: none"/>
   </g>
   <g id="line2d_160">
    <path d="M 219.424641 277.242243 
L 218.317353 260.262175 
" clip-path="url(#p0698acb7ff)" style="fill: none"/>
   </g>
   <g id="line2d_161">
    <path d="M 219.424641 277.242243 
L 202.666582 252.911883 
" clip-path="url(#p0698acb7ff)" style="fill: none"/>
   </g>
   <g id="line2d_162">
    <path d="M 219.424641 277.242243 
L 239.362552 270.398524 
" clip-path="url(#p0698acb7ff)" style="fill: none"/>
   </g>
   <g id="line2d_163">
    <path d="M 218.317353 260.262175 
L 170.296473 214.373309 
" clip-path="url(#p0698acb7ff)" style="fill: none"/>
   </g>
   <g id="line2d_164">
    <path d="M 218.317353 260.262175 
L 255.031443 233.100764 
" clip-path="url(#p0698acb7ff)" style="fill: none"/>
   </g>
   <g id="line2d_165">
    <path d="M 202.666582 252.911883 
L 170.296473 214.373309 
" clip-path="url(#p0698acb7ff)" style="fill: none"/>
   </g>
   <g id="line2d_166">
    <path d="M 202.666582 252.911883 
L 69.025567 123.40242 
" clip-path="url(#p0698acb7ff)" style="fill: none"/>
   </g>
   <g id="line2d_167">
    <path d="M 239.362552 270.398524 
L 255.031443 233.100764 
" clip-path="url(#p0698acb7ff)" style="fill: none"/>
   </g>
   <g id="line2d_168">
    <path d="M 239.362552 270.398524 
L 367.58687 190.146307 
" clip-path="url(#p0698acb7ff)" style="fill: none"/>
   </g>
   <g id="line2d_169">
    <path d="M 170.296473 214.373309 
L 97.142487 145.539995 
" clip-path="url(#p0698acb7ff)" style="fill: none"/>
   </g>
   <g id="line2d_170">
    <path d="M 170.296473 214.373309 
L 156.420734 148.623188 
" clip-path="url(#p0698acb7ff)" style="fill: none"/>
   </g>
   <g id="line2d_171">
    <path d="M 255.031443 233.100764 
L 325.453016 203.600748 
" clip-path="url(#p0698acb7ff)" style="fill: none"/>
   </g>
   <g id="line2d_172">
    <path d="M 255.031443 233.100764 
L 278.495051 174.322995 
" clip-path="url(#p0698acb7ff)" style="fill: none"/>
   </g>
   <g id="line2d_173">
    <path d="M 97.142487 145.539995 
L 52.5424 99.091091 
" clip-path="url(#p0698acb7ff)" style="fill: none"/>
   </g>
   <g id="line2d_174">
    <path d="M 97.142487 145.539995 
L 89.554015 80.492248 
" clip-path="url(#p0698acb7ff)" style="fill: none"/>
   </g>
   <g id="line2d_175">
    <path d="M 325.453016 203.600748 
L 370.65646 168.924154 
" clip-path="url(#p0698acb7ff)" style="fill: none"/>
   </g>
   <g id="line2d_176">
    <path d="M 325.453016 203.600748 
L 337.610515 138.786853 
" clip-path="url(#p0698acb7ff)" style="fill: none"/>
   </g>
   <g id="line2d_177">
    <path d="M 156.420734 148.623188 
L 137.505989 73.353711 
" clip-path="url(#p0698acb7ff)" style="fill: none"/>
   </g>
   <g id="line2d_178">
    <path d="M 156.420734 148.623188 
L 190.721048 76.667758 
" clip-path="url(#p0698acb7ff)" style="fill: none"/>
   </g>
   <g id="line2d_179">
    <path d="M 278.495051 174.322995 
L 291.53905 111.617662 
" clip-path="url(#p0698acb7ff)" style="fill: none"/>
   </g>
   <g id="line2d_180">
    <path d="M 278.495051 174.322995 
L 242.688879 87.730774 
" clip-path="url(#p0698acb7ff)" style="fill: none"/>
   </g>
   <g id="line2d_181">
    <path d="M 225.437838 289.80834 
L 145.113008 213.107789 
" clip-path="url(#p0698acb7ff)" style="fill: none"/>
   </g>
   <g id="line2d_182">
    <path d="M 225.437838 289.80834 
L 262.620097 239.606104 
" clip-path="url(#p0698acb7ff)" style="fill: none"/>
   </g>
   <g id="line2d_183">
    <path d="M 145.113008 213.107789 
L 102.807994 188.364935 
" clip-path="url(#p0698acb7ff)" style="fill: none"/>
   </g>
   <g id="line2d_184">
    <path d="M 145.113008 213.107789 
L 139.850101 191.006187 
" clip-path="url(#p0698acb7ff)" style="fill: none"/>
   </g>
   <g id="line2d_185">
    <path d="M 262.620097 239.606104 
L 298.509082 228.600794 
" clip-path="url(#p0698acb7ff)" style="fill: none"/>
   </g>
   <g id="line2d_186">
    <path d="M 262.620097 239.606104 
L 257.183052 217.584531 
" clip-path="url(#p0698acb7ff)" style="fill: none"/>
   </g>
   <g id="line2d_187">
    <path d="M 102.807994 188.364935 
L 26.293731 160.674179 
" clip-path="url(#p0698acb7ff)" style="fill: none"/>
   </g>
   <g id="line2d_188">
    <path d="M 102.807994 188.364935 
L 59.190905 163.632139 
" clip-path="url(#p0698acb7ff)" style="fill: none"/>
   </g>
   <g id="line2d_189">
    <path d="M 298.509082 228.600794 
L 360.484982 234.001743 
" clip-path="url(#p0698acb7ff)" style="fill: none"/>
   </g>
   <g id="line2d_190">
    <path d="M 298.509082 228.600794 
L 312.962957 221.198702 
" clip-path="url(#p0698acb7ff)" style="fill: none"/>
   </g>
   <g id="line2d_191">
    <path d="M 139.850101 191.006187 
L 103.660746 164.674488 
" clip-path="url(#p0698acb7ff)" style="fill: none"/>
   </g>
   <g id="line2d_192">
    <path d="M 139.850101 191.006187 
L 156.601027 171.405189 
" clip-path="url(#p0698acb7ff)" style="fill: none"/>
   </g>
   <g id="line2d_193">
    <path d="M 257.183052 217.584531 
L 263.958472 202.801786 
" clip-path="url(#p0698acb7ff)" style="fill: none"/>
   </g>
   <g id="line2d_194">
    <path d="M 257.183052 217.584531 
L 210.153979 184.834654 
" clip-path="url(#p0698acb7ff)" style="fill: none"/>
   </g>
   <g id="line2d_195">
    <path d="M 170.296473 214.373309 
L 48.272124 140.080939 
" clip-path="url(#p0698acb7ff)" style="fill: none"/>
   </g>
   <g id="line2d_196">
    <path d="M 255.031443 233.100764 
L 355.027176 215.16496 
" clip-path="url(#p0698acb7ff)" style="fill: none"/>
   </g>
   <g id="line2d_197">
    <path d="M 145.113008 213.107789 
L 48.272124 140.080939 
" clip-path="url(#p0698acb7ff)" style="fill: none"/>
   </g>
   <g id="line2d_198">
    <path d="M 262.620097 239.606104 
L 355.027176 215.16496 
" clip-path="url(#p0698acb7ff)" style="fill: none"/>
   </g>
   <g id="line2d_199">
    <path d="M 202.666582 252.911883 
" clip-path="url(#p0698acb7ff)" style="fill: none"/>
   </g>
   <g id="line2d_200">
    <path d="M 239.362552 270.398524 
" clip-path="url(#p0698acb7ff)" style="fill: none"/>
   </g>
   <g id="line2d_201">
    <path d="M 225.437838 289.80834 
L 225.437838 289.80834 
" clip-path="url(#p0698acb7ff)" style="fill: none; stroke: #000000; stroke-width: 0.5; stroke-linecap: square"/>
    <defs>
     <path id="m1b40d1e9d1" d="M 0 0.025 
C 0.00663 0.025 0.012989 0.022366 0.017678 0.017678 
C 0.022366 0.012989 0.025 0.00663 0.025 0 
C 0.025 -0.00663 0.022366 -0.012989 0.017678 -0.017678 
C 0.012989 -0.022366 0.00663 -0.025 0 -0.025 
C -0.00663 -0.025 -0.012989 -0.022366 -0.017678 -0.017678 
C -0.022366 -0.012989 -0.025 -0.00663 -0.025 0 
C -0.025 0.00663 -0.022366 0.012989 -0.017678 0.017678 
C -0.012989 0.022366 -0.00663 0.025 0 0.025 
z
" style="stroke: #000000"/>
    </defs>
    <g clip-path="url(#p0698acb7ff)">
     <use xlink:href="#m1b40d1e9d1" x="225.437838" y="289.80834" style="stroke: #000000"/>
     <use xlink:href="#m1b40d1e9d1" x="225.437838" y="289.80834" style="stroke: #000000"/>
    </g>
   </g>
   <g id="Poly3DCollection_1">
    <path d="M 48.272124 140.080939 
L 26.293731 160.674179 
L 52.5424 99.091091 
L 69.025567 123.40242 
z
" clip-path="url(#p0698acb7ff)" style="fill: #ff0000; fill-opacity: 0.15"/>
   </g>
   <g id="Line3DCollection_1">
    <path d="M 48.272124 140.080939 
L 26.293731 160.674179 
" clip-path="url(#p0698acb7ff)" style="fill: none; stroke: #ff0000; stroke-width: 2.2"/>
   </g>
   <g id="Poly3DCollection_2">
    <path d="M 47.858087 200.604803 
L 51.508155 222.87126 
L 59.757942 154.371026 
L 58.016789 176.284212 
z
" clip-path="url(#p0698acb7ff)" style="fill: #808080; fill-opacity: 0.15"/>
   </g>
   <g id="Line3DCollection_2">
    <path d="M 47.858087 200.604803 
L 51.508155 222.87126 
" clip-path="url(#p0698acb7ff)" style="fill: none; stroke: #000000; stroke-width: 2.2"/>
   </g>
   <g id="Poly3DCollection_3">
    <path d="M 399.36752 222.87126 
L 403.017589 200.604803 
L 392.858887 176.284212 
L 391.117734 154.371026 
z
" clip-path="url(#p0698acb7ff)" style="fill: #808080; fill-opacity: 0.15"/>
   </g>
   <g id="Line3DCollection_3">
    <path d="M 399.36752 222.87126 
L 403.017589 200.604803 
" clip-path="url(#p0698acb7ff)" style="fill: none; stroke: #000000; stroke-width: 2.2"/>
   </g>
   <g id="Poly3DCollection_4">
    <path d="M 360.484982 234.001743 
L 355.027176 215.16496 
L 367.58687 190.146307 
L 370.65646 168.924154 
z
" clip-path="url(#p0698acb7ff)" style="fill: #ff0000; fill-opacity: 0.15"/>
   </g>
   <g id="Line3DCollection_4">
    <path d="M 360.484982 234.001743 
L 355.027176 215.16496 
" clip-path="url(#p0698acb7ff)" style="fill: none; stroke: #ff0000; stroke-width: 2.2"/>
   </g>
   <g id="Poly3DCollection_5">
    <path d="M 26.293731 160.674179 
L 59.190905 163.632139 
L 89.554015 80.492248 
L 52.5424 99.091091 
z
" clip-path="url(#p0698acb7ff)" style="fill: #ff0000; fill-opacity: 0.15"/>
   </g>
   <g id="Line3DCollection_5">
    <path d="M 26.293731 160.674179 
L 59.190905 163.632139 
" clip-path="url(#p0698acb7ff)" style="fill: none; stroke: #ff0000; stroke-width: 2.2"/>
   </g>
   <g id="Poly3DCollection_6">
    <path d="M 51.508155 222.87126 
L 92.578907 225.065309 
L 92.344829 132.87628 
L 59.757942 154.371026 
z
" clip-path="url(#p0698acb7ff)" style="fill: #808080; fill-opacity: 0.15"/>
   </g>
   <g id="Line3DCollection_6">
    <path d="M 51.508155 222.87126 
L 92.578907 225.065309 
" clip-path="url(#p0698acb7ff)" style="fill: none; stroke: #000000; stroke-width: 2.2"/>
   </g>
   <g id="Poly3DCollection_7">
    <path d="M 358.296768 225.065309 
L 399.36752 222.87126 
L 391.117734 154.371026 
L 358.530847 132.87628 
z
" clip-path="url(#p0698acb7ff)" style="fill: #808080; fill-opacity: 0.15"/>
   </g>
   <g id="Line3DCollection_7">
    <path d="M 358.296768 225.065309 
L 399.36752 222.87126 
" clip-path="url(#p0698acb7ff)" style="fill: none; stroke: #000000; stroke-width: 2.2"/>
   </g>
   <g id="Poly3DCollection_8">
    <path d="M 59.190905 163.632139 
L 103.660746 164.674488 
L 137.505989 73.353711 
L 89.554015 80.492248 
z
" clip-path="url(#p0698acb7ff)" style="fill: #ff0000; fill-opacity: 0.15"/>
   </g>
   <g id="Line3DCollection_8">
    <path d="M 59.190905 163.632139 
L 103.660746 164.674488 
" clip-path="url(#p0698acb7ff)" style="fill: none; stroke: #ff0000; stroke-width: 2.2"/>
   </g>
   <g id="Poly3DCollection_9">
    <path d="M 312.962957 221.198702 
L 360.484982 234.001743 
L 370.65646 168.924154 
L 337.610515 138.786853 
z
" clip-path="url(#p0698acb7ff)" style="fill: #ff0000; fill-opacity: 0.15"/>
   </g>
   <g id="Line3DCollection_9">
    <path d="M 312.962957 221.198702 
L 360.484982 234.001743 
" clip-path="url(#p0698acb7ff)" style="fill: none; stroke: #ff0000; stroke-width: 2.2"/>
   </g>
   <g id="Poly3DCollection_10">
    <path d="M 103.660746 164.674488 
L 156.601027 171.405189 
L 190.721048 76.667758 
L 137.505989 73.353711 
z
" clip-path="url(#p0698acb7ff)" style="fill: #ff0000; fill-opacity: 0.15"/>
   </g>
   <g id="Line3DCollection_10">
    <path d="M 103.660746 164.674488 
L 156.601027 171.405189 
" clip-path="url(#p0698acb7ff)" style="fill: none; stroke: #ff0000; stroke-width: 2.2"/>
   </g>
   <g id="Poly3DCollection_11">
    <path d="M 92.578907 225.065309 
L 141.754967 224.300729 
L 144.014574 122.374276 
L 92.344829 132.87628 
z
" clip-path="url(#p0698acb7ff)" style="fill: #808080; fill-opacity: 0.15"/>
   </g>
   <g id="Line3DCollection_11">
    <path d="M 92.578907 225.065309 
L 141.754967 224.300729 
" clip-path="url(#p0698acb7ff)" style="fill: none; stroke: #000000; stroke-width: 2.2"/>
   </g>
   <g id="Poly3DCollection_12">
    <path d="M 309.120708 224.300729 
L 358.296768 225.065309 
L 358.530847 132.87628 
L 306.861102 122.374276 
z
" clip-path="url(#p0698acb7ff)" style="fill: #808080; fill-opacity: 0.15"/>
   </g>
   <g id="Line3DCollection_12">
    <path d="M 309.120708 224.300729 
L 358.296768 225.065309 
" clip-path="url(#p0698acb7ff)" style="fill: none; stroke: #000000; stroke-width: 2.2"/>
   </g>
   <g id="Poly3DCollection_13">
    <path d="M 263.958472 202.801786 
L 312.962957 221.198702 
L 337.610515 138.786853 
L 291.53905 111.617662 
z
" clip-path="url(#p0698acb7ff)" style="fill: #ff0000; fill-opacity: 0.15"/>
   </g>
   <g id="Line3DCollection_13">
    <path d="M 263.958472 202.801786 
L 312.962957 221.198702 
" clip-path="url(#p0698acb7ff)" style="fill: none; stroke: #ff0000; stroke-width: 2.2"/>
   </g>
   <g id="Poly3DCollection_14">
    <path d="M 156.601027 171.405189 
L 210.153979 184.834654 
L 242.688879 87.730774 
L 190.721048 76.667758 
z
" clip-path="url(#p0698acb7ff)" style="fill: #ff0000; fill-opacity: 0.15"/>
   </g>
   <g id="Line3DCollection_14">
    <path d="M 156.601027 171.405189 
L 210.153979 184.834654 
" clip-path="url(#p0698acb7ff)" style="fill: none; stroke: #ff0000; stroke-width: 2.2"/>
   </g>
   <g id="Poly3DCollection_15">
    <path d="M 210.153979 184.834654 
L 263.958472 202.801786 
L 291.53905 111.617662 
L 242.688879 87.730774 
z
" clip-path="url(#p0698acb7ff)" style="fill: #ff0000; fill-opacity: 0.15"/>
   </g>
   <g id="Line3DCollection_15">
    <path d="M 210.153979 184.834654 
L 263.958472 202.801786 
" clip-path="url(#p0698acb7ff)" style="fill: none; stroke: #ff0000; stroke-width: 2.2"/>
   </g>
   <g id="Poly3DCollection_16">
    <path d="M 141.754967 224.300729 
L 197.279143 224.34609 
L 197.598144 116.239799 
L 144.014574 122.374276 
z
" clip-path="url(#p0698acb7ff)" style="fill: #808080; fill-opacity: 0.15"/>
   </g>
   <g id="Line3DCollection_16">
    <path d="M 141.754967 224.300729 
L 197.279143 224.34609 
" clip-path="url(#p0698acb7ff)" style="fill: none; stroke: #000000; stroke-width: 2.2"/>
   </g>
   <g id="Poly3DCollection_17">
    <path d="M 197.279143 224.34609 
L 253.596532 224.34609 
L 253.277531 116.239799 
L 197.598144 116.239799 
z
" clip-path="url(#p0698acb7ff)" style="fill: #808080; fill-opacity: 0.15"/>
   </g>
   <g id="Line3DCollection_17">
    <path d="M 197.279143 224.34609 
L 253.596532 224.34609 
" clip-path="url(#p0698acb7ff)" style="fill: none; stroke: #000000; stroke-width: 2.2"/>
   </g>
   <g id="Poly3DCollection_18">
    <path d="M 253.596532 224.34609 
L 309.120708 224.300729 
L 306.861102 122.374276 
L 253.277531 116.239799 
z
" clip-path="url(#p0698acb7ff)" style="fill: #808080; fill-opacity: 0.15"/>
   </g>
   <g id="Line3DCollection_18">
    <path d="M 253.596532 224.34609 
L 309.120708 224.300729 
" clip-path="url(#p0698acb7ff)" style="fill: none; stroke: #000000; stroke-width: 2.2"/>
   </g>
  </g>
 </g>
 <defs>
  <clipPath id="p0698acb7ff">
   <rect x="-133.2" y="-133.2" width="698.4" height="698.4"/>
  </clipPath>
 </defs>
</svg>
