<?xml version="1.0" encoding="utf-8" standalone="no"?>
<!DOCTYPE svg PUBLIC "-//W3C//DTD SVG 1.1//EN"
  "http://www.w3.org/Graphics/SVG/1.1/DTD/svg11.dtd">
<svg xmlns:xlink="http://www.w3.org/1999/xlink" width="576pt" height="432pt" viewBox="0 0 576 432" xmlns="http://www.w3.org/2000/svg" version="1.1">
 <metadata>
  <rdf:RDF xmlns:dc="http://purl.org/dc/elements/1.1/" xmlns:cc="http://creativecommons.org/ns#" xmlns:rdf="http://www.w3.org/1999/02/22-rdf-syntax-ns#">
   <cc:Work>
    <dc:type rdf:resource="http://purl.org/dc/dcmitype/StillImage"/>
    <dc:date>2023-06-30T09:23:28.939492</dc:date>
    <dc:format>image/svg+xml</dc:format>
    <dc:creator>
     <cc:Agent>
      <dc:title>Matplotlib v3.6.2, https://matplotlib.org/</dc:title>
     </cc:Agent>
    </dc:creator>
   </cc:Work>
  </rdf:RDF>
 </metadata>
 <defs>
  <style type="text/css">*{stroke-linejoin: round; stroke-linecap: butt}</style>
 </defs>
 <g id="figure_1">
  <g id="patch_1">
   <path d="M 0 432 
L 576 432 
L 576 -0 
L 0 -0 
z
" style="fill: #ffffff"/>
  </g>
  <g id="patch_2">
   <path d="M -133.2 565.2 
L 565.2 565.2 
L 565.2 -133.2 
L -133.2 -133.2 
z
" style="fill: #ffffff"/>
  </g>
  <g id="axes_1">
   <g id="line2d_1">
    <path d="M 225.437838 232.270893 
L 245.284279 221.106952 
" clip-path="url(#pfaa267102d)" style="fill: none"/>
   </g>
   <g id="line2d_2">
    <path d="M 225.437838 232.270893 
L 225.437838 223.31887 
" clip-path="url(#pfaa267102d)" style="fill: none"/>
   </g>
   <g id="line2d_3">
    <path d="M 225.437838 232.270893 
L 205.591397 221.106952 
" clip-path="url(#pfaa267102d)" style="fill: none"/>
   </g>
   <g id="line2d_4">
    <path d="M 225.437838 232.270893 
" clip-path="url(#pfaa267102d)" style="fill: none"/>
   </g>
   <g id="line2d_5">
    <path d="M 59.112883 206.217371 
L 64.638876 241.762316 
" clip-path="url(#pfaa267102d)" style="fill: none; stroke: #000000; stroke-linecap: square"/>
   </g>
   <g id="line2d_6">
    <path d="M 64.638876 241.762316 
L 65.15071 172.017978 
" clip-path="url(#pfaa267102d)" style="fill: none; stroke: #000000; stroke-linecap: square"/>
   </g>
   <g id="line2d_7">
    <path d="M 65.15071 172.017978 
L 60.384869 178.964119 
" clip-path="url(#pfaa267102d)" style="fill: none; stroke: #000000; stroke-linecap: square"/>
   </g>
   <g id="line2d_8">
    <path d="M 60.384869 178.964119 
L 59.112883 206.217371 
" clip-path="url(#pfaa267102d)" style="fill: none; stroke: #000000; stroke-linecap: square"/>
   </g>
   <g id="line2d_9">
    <path d="M 59.112883 206.217371 
L 65.15071 172.017978 
" clip-path="url(#pfaa267102d)" style="fill: none; stroke: #000000; stroke-linecap: square"/>
   </g>
   <g id="line2d_10">
    <path d="M 64.638876 241.762316 
L 60.384869 178.964119 
" clip-path="url(#pfaa267102d)" style="fill: none; stroke: #000000; stroke-linecap: square"/>
   </g>
   <g id="line2d_11">
    <path d="M 64.638876 241.762316 
L 97.063121 251.151901 
" clip-path="url(#pfaa267102d)" style="fill: none; stroke: #000000; stroke-linecap: square"/>
   </g>
   <g id="line2d_12">
    <path d="M 97.063121 251.151901 
L 97.813798 159.410105 
" clip-path="url(#pfaa267102d)" style="fill: none; stroke: #000000; stroke-linecap: square"/>
   </g>
   <g id="line2d_13">
    <path d="M 97.813798 159.410105 
L 65.15071 172.017978 
" clip-path="url(#pfaa267102d)" style="fill: none; stroke: #000000; stroke-linecap: square"/>
   </g>
   <g id="line2d_14">
    <path d="M 65.15071 172.017978 
L 64.638876 241.762316 
" clip-path="url(#pfaa267102d)" style="fill: none; stroke: #000000; stroke-linecap: square"/>
   </g>
   <g id="line2d_15">
    <path d="M 64.638876 241.762316 
L 97.813798 159.410105 
" clip-path="url(#pfaa267102d)" style="fill: none; stroke: #000000; stroke-linecap: square"/>
   </g>
   <g id="line2d_16">
    <path d="M 97.063121 251.151901 
L 65.15071 172.017978 
" clip-path="url(#pfaa267102d)" style="fill: none; stroke: #000000; stroke-linecap: square"/>
   </g>
   <g id="line2d_17">
    <path d="M 97.063121 251.151901 
L 144.65453 257.45986 
" clip-path="url(#pfaa267102d)" style="fill: none; stroke: #000000; stroke-linecap: square"/>
   </g>
   <g id="line2d_18">
    <path d="M 144.65453 257.45986 
L 145.228197 154.678692 
" clip-path="url(#pfaa267102d)" style="fill: none; stroke: #000000; stroke-linecap: square"/>
   </g>
   <g id="line2d_19">
    <path d="M 145.228197 154.678692 
L 97.813798 159.410105 
" clip-path="url(#pfaa267102d)" style="fill: none; stroke: #000000; stroke-linecap: square"/>
   </g>
   <g id="line2d_20">
    <path d="M 97.813798 159.410105 
L 97.063121 251.151901 
" clip-path="url(#pfaa267102d)" style="fill: none; stroke: #000000; stroke-linecap: square"/>
   </g>
   <g id="line2d_21">
    <path d="M 97.063121 251.151901 
L 145.228197 154.678692 
" clip-path="url(#pfaa267102d)" style="fill: none; stroke: #000000; stroke-linecap: square"/>
   </g>
   <g id="line2d_22">
    <path d="M 144.65453 257.45986 
L 97.813798 159.410105 
" clip-path="url(#pfaa267102d)" style="fill: none; stroke: #000000; stroke-linecap: square"/>
   </g>
   <g id="line2d_23">
    <path d="M 144.65453 257.45986 
L 197.979752 260.612595 
" clip-path="url(#pfaa267102d)" style="fill: none; stroke: #000000; stroke-linecap: square"/>
   </g>
   <g id="line2d_24">
    <path d="M 197.979752 260.612595 
L 198.138916 152.537858 
" clip-path="url(#pfaa267102d)" style="fill: none; stroke: #000000; stroke-linecap: square"/>
   </g>
   <g id="line2d_25">
    <path d="M 198.138916 152.537858 
L 145.228197 154.678692 
" clip-path="url(#pfaa267102d)" style="fill: none; stroke: #000000; stroke-linecap: square"/>
   </g>
   <g id="line2d_26">
    <path d="M 145.228197 154.678692 
L 144.65453 257.45986 
" clip-path="url(#pfaa267102d)" style="fill: none; stroke: #000000; stroke-linecap: square"/>
   </g>
   <g id="line2d_27">
    <path d="M 144.65453 257.45986 
L 198.138916 152.537858 
" clip-path="url(#pfaa267102d)" style="fill: none; stroke: #000000; stroke-linecap: square"/>
   </g>
   <g id="line2d_28">
    <path d="M 197.979752 260.612595 
L 145.228197 154.678692 
" clip-path="url(#pfaa267102d)" style="fill: none; stroke: #000000; stroke-linecap: square"/>
   </g>
   <g id="line2d_29">
    <path d="M 197.979752 260.612595 
L 252.895923 260.612595 
" clip-path="url(#pfaa267102d)" style="fill: none; stroke: #000000; stroke-linecap: square"/>
   </g>
   <g id="line2d_30">
    <path d="M 252.895923 260.612595 
L 252.73676 152.537858 
" clip-path="url(#pfaa267102d)" style="fill: none; stroke: #000000; stroke-linecap: square"/>
   </g>
   <g id="line2d_31">
    <path d="M 252.73676 152.537858 
L 198.138916 152.537858 
" clip-path="url(#pfaa267102d)" style="fill: none; stroke: #000000; stroke-linecap: square"/>
   </g>
   <g id="line2d_32">
    <path d="M 198.138916 152.537858 
L 197.979752 260.612595 
" clip-path="url(#pfaa267102d)" style="fill: none; stroke: #000000; stroke-linecap: square"/>
   </g>
   <g id="line2d_33">
    <path d="M 197.979752 260.612595 
L 252.73676 152.537858 
" clip-path="url(#pfaa267102d)" style="fill: none; stroke: #000000; stroke-linecap: square"/>
   </g>
   <g id="line2d_34">
    <path d="M 252.895923 260.612595 
L 198.138916 152.537858 
" clip-path="url(#pfaa267102d)" style="fill: none; stroke: #000000; stroke-linecap: square"/>
   </g>
   <g id="line2d_35">
    <path d="M 252.895923 260.612595 
L 306.221145 257.45986 
" clip-path="url(#pfaa267102d)" style="fill: none; stroke: #000000; stroke-linecap: square"/>
   </g>
   <g id="line2d_36">
    <path d="M 306.221145 257.45986 
L 305.647478 154.678692 
" clip-path="url(#pfaa267102d)" style="fill: none; stroke: #000000; stroke-linecap: square"/>
   </g>
   <g id="line2d_37">
    <path d="M 305.647478 154.678692 
L 252.73676 152.537858 
" clip-path="url(#pfaa267102d)" style="fill: none; stroke: #000000; stroke-linecap: square"/>
   </g>
   <g id="line2d_38">
    <path d="M 252.73676 152.537858 
L 252.895923 260.612595 
" clip-path="url(#pfaa267102d)" style="fill: none; stroke: #000000; stroke-linecap: square"/>
   </g>
   <g id="line2d_39">
    <path d="M 252.895923 260.612595 
L 305.647478 154.678692 
" clip-path="url(#pfaa267102d)" style="fill: none; stroke: #000000; stroke-linecap: square"/>
   </g>
   <g id="line2d_40">
    <path d="M 306.221145 257.45986 
L 252.73676 152.537858 
" clip-path="url(#pfaa267102d)" style="fill: none; stroke: #000000; stroke-linecap: square"/>
   </g>
   <g id="line2d_41">
    <path d="M 306.221145 257.45986 
L 353.812555 251.151901 
" clip-path="url(#pfaa267102d)" style="fill: none; stroke: #000000; stroke-linecap: square"/>
   </g>
   <g id="line2d_42">
    <path d="M 353.812555 251.151901 
L 353.061878 159.410105 
" clip-path="url(#pfaa267102d)" style="fill: none; stroke: #000000; stroke-linecap: square"/>
   </g>
   <g id="line2d_43">
    <path d="M 353.061878 159.410105 
L 305.647478 154.678692 
" clip-path="url(#pfaa267102d)" style="fill: none; stroke: #000000; stroke-linecap: square"/>
   </g>
   <g id="line2d_44">
    <path d="M 305.647478 154.678692 
L 306.221145 257.45986 
" clip-path="url(#pfaa267102d)" style="fill: none; stroke: #000000; stroke-linecap: square"/>
   </g>
   <g id="line2d_45">
    <path d="M 306.221145 257.45986 
L 353.061878 159.410105 
" clip-path="url(#pfaa267102d)" style="fill: none; stroke: #000000; stroke-linecap: square"/>
   </g>
   <g id="line2d_46">
    <path d="M 353.812555 251.151901 
L 305.647478 154.678692 
" clip-path="url(#pfaa267102d)" style="fill: none; stroke: #000000; stroke-linecap: square"/>
   </g>
   <g id="line2d_47">
    <path d="M 353.812555 251.151901 
L 386.2368 241.762316 
" clip-path="url(#pfaa267102d)" style="fill: none; stroke: #000000; stroke-linecap: square"/>
   </g>
   <g id="line2d_48">
    <path d="M 386.2368 241.762316 
L 385.724965 172.017978 
" clip-path="url(#pfaa267102d)" style="fill: none; stroke: #000000; stroke-linecap: square"/>
   </g>
   <g id="line2d_49">
    <path d="M 385.724965 172.017978 
L 353.061878 159.410105 
" clip-path="url(#pfaa267102d)" style="fill: none; stroke: #000000; stroke-linecap: square"/>
   </g>
   <g id="line2d_50">
    <path d="M 353.061878 159.410105 
L 353.812555 251.151901 
" clip-path="url(#pfaa267102d)" style="fill: none; stroke: #000000; stroke-linecap: square"/>
   </g>
   <g id="line2d_51">
    <path d="M 353.812555 251.151901 
L 385.724965 172.017978 
" clip-path="url(#pfaa267102d)" style="fill: none; stroke: #000000; stroke-linecap: square"/>
   </g>
   <g id="line2d_52">
    <path d="M 386.2368 241.762316 
L 353.061878 159.410105 
" clip-path="url(#pfaa267102d)" style="fill: none; stroke: #000000; stroke-linecap: square"/>
   </g>
   <g id="line2d_53">
    <path d="M 386.2368 241.762316 
L 391.762793 206.217371 
" clip-path="url(#pfaa267102d)" style="fill: none; stroke: #000000; stroke-linecap: square"/>
   </g>
   <g id="line2d_54">
    <path d="M 391.762793 206.217371 
L 390.490807 178.964119 
" clip-path="url(#pfaa267102d)" style="fill: none; stroke: #000000; stroke-linecap: square"/>
   </g>
   <g id="line2d_55">
    <path d="M 390.490807 178.964119 
L 385.724965 172.017978 
" clip-path="url(#pfaa267102d)" style="fill: none; stroke: #000000; stroke-linecap: square"/>
   </g>
   <g id="line2d_56">
    <path d="M 385.724965 172.017978 
L 386.2368 241.762316 
" clip-path="url(#pfaa267102d)" style="fill: none; stroke: #000000; stroke-linecap: square"/>
   </g>
   <g id="line2d_57">
    <path d="M 386.2368 241.762316 
L 390.490807 178.964119 
" clip-path="url(#pfaa267102d)" style="fill: none; stroke: #000000; stroke-linecap: square"/>
   </g>
   <g id="line2d_58">
    <path d="M 391.762793 206.217371 
L 385.724965 172.017978 
" clip-path="url(#pfaa267102d)" style="fill: none; stroke: #000000; stroke-linecap: square"/>
   </g>
   <g id="line2d_59">
    <path d="M 225.437838 238.84845 
L 225.437838 232.270893 
" clip-path="url(#pfaa267102d)" style="fill: none"/>
   </g>
   <g id="line2d_60">
    <path d="M 225.437838 232.270893 
L 225.437838 223.31887 
" clip-path="url(#pfaa267102d)" style="fill: none"/>
   </g>
   <g id="line2d_61">
    <path d="M 225.437838 232.270893 
L 205.591397 221.106952 
" clip-path="url(#pfaa267102d)" style="fill: none"/>
   </g>
   <g id="line2d_62">
    <path d="M 225.437838 232.270893 
L 245.284279 221.106952 
" clip-path="url(#pfaa267102d)" style="fill: none"/>
   </g>
   <g id="line2d_63">
    <path d="M 225.437838 223.31887 
L 191.781523 200.398239 
" clip-path="url(#pfaa267102d)" style="fill: none"/>
   </g>
   <g id="line2d_64">
    <path d="M 225.437838 223.31887 
L 259.094152 200.398239 
" clip-path="url(#pfaa267102d)" style="fill: none"/>
   </g>
   <g id="line2d_65">
    <path d="M 205.591397 221.106952 
L 191.781523 200.398239 
" clip-path="url(#pfaa267102d)" style="fill: none"/>
   </g>
   <g id="line2d_66">
    <path d="M 205.591397 221.106952 
L 60.384869 178.964119 
" clip-path="url(#pfaa267102d)" style="fill: none"/>
   </g>
   <g id="line2d_67">
    <path d="M 245.284279 221.106952 
L 259.094152 200.398239 
" clip-path="url(#pfaa267102d)" style="fill: none"/>
   </g>
   <g id="line2d_68">
    <path d="M 245.284279 221.106952 
L 390.490807 178.964119 
" clip-path="url(#pfaa267102d)" style="fill: none"/>
   </g>
   <g id="line2d_69">
    <path d="M 191.781523 200.398239 
L 116.657566 182.861577 
" clip-path="url(#pfaa267102d)" style="fill: none"/>
   </g>
   <g id="line2d_70">
    <path d="M 191.781523 200.398239 
L 171.489442 179.271211 
" clip-path="url(#pfaa267102d)" style="fill: none"/>
   </g>
   <g id="line2d_71">
    <path d="M 259.094152 200.398239 
L 334.218109 182.861577 
" clip-path="url(#pfaa267102d)" style="fill: none"/>
   </g>
   <g id="line2d_72">
    <path d="M 259.094152 200.398239 
L 279.386234 179.271211 
" clip-path="url(#pfaa267102d)" style="fill: none"/>
   </g>
   <g id="line2d_73">
    <path d="M 116.657566 182.861577 
L 65.15071 172.017978 
" clip-path="url(#pfaa267102d)" style="fill: none"/>
   </g>
   <g id="line2d_74">
    <path d="M 116.657566 182.861577 
L 97.813798 159.410105 
" clip-path="url(#pfaa267102d)" style="fill: none"/>
   </g>
   <g id="line2d_75">
    <path d="M 334.218109 182.861577 
L 385.724965 172.017978 
" clip-path="url(#pfaa267102d)" style="fill: none"/>
   </g>
   <g id="line2d_76">
    <path d="M 334.218109 182.861577 
L 353.061878 159.410105 
" clip-path="url(#pfaa267102d)" style="fill: none"/>
   </g>
   <g id="line2d_77">
    <path d="M 171.489442 179.271211 
L 145.228197 154.678692 
" clip-path="url(#pfaa267102d)" style="fill: none"/>
   </g>
   <g id="line2d_78">
    <path d="M 171.489442 179.271211 
L 198.138916 152.537858 
" clip-path="url(#pfaa267102d)" style="fill: none"/>
   </g>
   <g id="line2d_79">
    <path d="M 279.386234 179.271211 
L 305.647478 154.678692 
" clip-path="url(#pfaa267102d)" style="fill: none"/>
   </g>
   <g id="line2d_80">
    <path d="M 279.386234 179.271211 
L 252.73676 152.537858 
" clip-path="url(#pfaa267102d)" style="fill: none"/>
   </g>
   <g id="line2d_81">
    <path d="M 225.437838 238.84845 
L 173.130094 242.840922 
" clip-path="url(#pfaa267102d)" style="fill: none"/>
   </g>
   <g id="line2d_82">
    <path d="M 225.437838 238.84845 
L 277.745582 242.840922 
" clip-path="url(#pfaa267102d)" style="fill: none"/>
   </g>
   <g id="line2d_83">
    <path d="M 173.130094 242.840922 
L 143.303763 242.412983 
" clip-path="url(#pfaa267102d)" style="fill: none"/>
   </g>
   <g id="line2d_84">
    <path d="M 173.130094 242.840922 
L 174.558306 244.561829 
" clip-path="url(#pfaa267102d)" style="fill: none"/>
   </g>
   <g id="line2d_85">
    <path d="M 277.745582 242.840922 
L 307.571912 242.412983 
" clip-path="url(#pfaa267102d)" style="fill: none"/>
   </g>
   <g id="line2d_86">
    <path d="M 277.745582 242.840922 
L 276.317369 244.561829 
" clip-path="url(#pfaa267102d)" style="fill: none"/>
   </g>
   <g id="line2d_87">
    <path d="M 143.303763 242.412983 
L 64.638876 241.762316 
" clip-path="url(#pfaa267102d)" style="fill: none"/>
   </g>
   <g id="line2d_88">
    <path d="M 143.303763 242.412983 
L 97.063121 251.151901 
" clip-path="url(#pfaa267102d)" style="fill: none"/>
   </g>
   <g id="line2d_89">
    <path d="M 307.571912 242.412983 
L 386.2368 241.762316 
" clip-path="url(#pfaa267102d)" style="fill: none"/>
   </g>
   <g id="line2d_90">
    <path d="M 307.571912 242.412983 
L 353.812555 251.151901 
" clip-path="url(#pfaa267102d)" style="fill: none"/>
   </g>
   <g id="line2d_91">
    <path d="M 174.558306 244.561829 
L 144.65453 257.45986 
" clip-path="url(#pfaa267102d)" style="fill: none"/>
   </g>
   <g id="line2d_92">
    <path d="M 174.558306 244.561829 
L 197.979752 260.612595 
" clip-path="url(#pfaa267102d)" style="fill: none"/>
   </g>
   <g id="line2d_93">
    <path d="M 276.317369 244.561829 
L 306.221145 257.45986 
" clip-path="url(#pfaa267102d)" style="fill: none"/>
   </g>
   <g id="line2d_94">
    <path d="M 276.317369 244.561829 
L 252.895923 260.612595 
" clip-path="url(#pfaa267102d)" style="fill: none"/>
   </g>
   <g id="line2d_95">
    <path d="M 191.781523 200.398239 
L 59.112883 206.217371 
" clip-path="url(#pfaa267102d)" style="fill: none"/>
   </g>
   <g id="line2d_96">
    <path d="M 259.094152 200.398239 
L 391.762793 206.217371 
" clip-path="url(#pfaa267102d)" style="fill: none"/>
   </g>
   <g id="line2d_97">
    <path d="M 173.130094 242.840922 
L 59.112883 206.217371 
" clip-path="url(#pfaa267102d)" style="fill: none"/>
   </g>
   <g id="line2d_98">
    <path d="M 277.745582 242.840922 
L 391.762793 206.217371 
" clip-path="url(#pfaa267102d)" style="fill: none"/>
   </g>
   <g id="line2d_99">
    <path d="M 205.591397 221.106952 
" clip-path="url(#pfaa267102d)" style="fill: none"/>
   </g>
   <g id="line2d_100">
    <path d="M 245.284279 221.106952 
" clip-path="url(#pfaa267102d)" style="fill: none"/>
   </g>
   <g id="line2d_101">
    <path d="M 225.437838 227.090286 
L 250.524301 208.863529 
" clip-path="url(#pfaa267102d)" style="fill: none"/>
   </g>
   <g id="line2d_102">
    <path d="M 225.437838 227.090286 
L 225.437838 213.538879 
" clip-path="url(#pfaa267102d)" style="fill: none"/>
   </g>
   <g id="line2d_103">
    <path d="M 225.437838 227.090286 
L 200.351374 208.863529 
" clip-path="url(#pfaa267102d)" style="fill: none"/>
   </g>
   <g id="line2d_104">
    <path d="M 225.437838 227.090286 
" clip-path="url(#pfaa267102d)" style="fill: none"/>
   </g>
   <g id="line2d_105">
    <path d="M 49.520757 167.015028 
L 54.488384 190.72082 
" clip-path="url(#pfaa267102d)" style="fill: none; stroke: #ff0000; stroke-linecap: square"/>
   </g>
   <g id="line2d_106">
    <path d="M 54.488384 190.72082 
L 61.26506 123.043242 
" clip-path="url(#pfaa267102d)" style="fill: none; stroke: #ff0000; stroke-linecap: square"/>
   </g>
   <g id="line2d_107">
    <path d="M 61.26506 123.043242 
L 61.399279 143.660597 
" clip-path="url(#pfaa267102d)" style="fill: none; stroke: #ff0000; stroke-linecap: square"/>
   </g>
   <g id="line2d_108">
    <path d="M 61.399279 143.660597 
L 49.520757 167.015028 
" clip-path="url(#pfaa267102d)" style="fill: none; stroke: #ff0000; stroke-linecap: square"/>
   </g>
   <g id="line2d_109">
    <path d="M 49.520757 167.015028 
L 61.26506 123.043242 
" clip-path="url(#pfaa267102d)" style="fill: none; stroke: #ff0000; stroke-linecap: square"/>
   </g>
   <g id="line2d_110">
    <path d="M 54.488384 190.72082 
L 61.399279 143.660597 
" clip-path="url(#pfaa267102d)" style="fill: none; stroke: #ff0000; stroke-linecap: square"/>
   </g>
   <g id="line2d_111">
    <path d="M 54.488384 190.72082 
L 95.586593 199.288555 
" clip-path="url(#pfaa267102d)" style="fill: none; stroke: #ff0000; stroke-linecap: square"/>
   </g>
   <g id="line2d_112">
    <path d="M 95.586593 199.288555 
L 95.069099 108.466845 
" clip-path="url(#pfaa267102d)" style="fill: none; stroke: #ff0000; stroke-linecap: square"/>
   </g>
   <g id="line2d_113">
    <path d="M 95.069099 108.466845 
L 61.26506 123.043242 
" clip-path="url(#pfaa267102d)" style="fill: none; stroke: #ff0000; stroke-linecap: square"/>
   </g>
   <g id="line2d_114">
    <path d="M 61.26506 123.043242 
L 54.488384 190.72082 
" clip-path="url(#pfaa267102d)" style="fill: none; stroke: #ff0000; stroke-linecap: square"/>
   </g>
   <g id="line2d_115">
    <path d="M 54.488384 190.72082 
L 95.069099 108.466845 
" clip-path="url(#pfaa267102d)" style="fill: none; stroke: #ff0000; stroke-linecap: square"/>
   </g>
   <g id="line2d_116">
    <path d="M 95.586593 199.288555 
L 61.26506 123.043242 
" clip-path="url(#pfaa267102d)" style="fill: none; stroke: #ff0000; stroke-linecap: square"/>
   </g>
   <g id="line2d_117">
    <path d="M 95.586593 199.288555 
L 143.922681 204.968642 
" clip-path="url(#pfaa267102d)" style="fill: none; stroke: #ff0000; stroke-linecap: square"/>
   </g>
   <g id="line2d_118">
    <path d="M 143.922681 204.968642 
L 145.60475 103.85726 
" clip-path="url(#pfaa267102d)" style="fill: none; stroke: #ff0000; stroke-linecap: square"/>
   </g>
   <g id="line2d_119">
    <path d="M 145.60475 103.85726 
L 95.069099 108.466845 
" clip-path="url(#pfaa267102d)" style="fill: none; stroke: #ff0000; stroke-linecap: square"/>
   </g>
   <g id="line2d_120">
    <path d="M 95.069099 108.466845 
L 95.586593 199.288555 
" clip-path="url(#pfaa267102d)" style="fill: none; stroke: #ff0000; stroke-linecap: square"/>
   </g>
   <g id="line2d_121">
    <path d="M 95.586593 199.288555 
L 145.60475 103.85726 
" clip-path="url(#pfaa267102d)" style="fill: none; stroke: #ff0000; stroke-linecap: square"/>
   </g>
   <g id="line2d_122">
    <path d="M 143.922681 204.968642 
L 95.069099 108.466845 
" clip-path="url(#pfaa267102d)" style="fill: none; stroke: #ff0000; stroke-linecap: square"/>
   </g>
   <g id="line2d_123">
    <path d="M 143.922681 204.968642 
L 197.90052 211.032126 
" clip-path="url(#pfaa267102d)" style="fill: none; stroke: #ff0000; stroke-linecap: square"/>
   </g>
   <g id="line2d_124">
    <path d="M 197.90052 211.032126 
L 198.224604 104.05969 
" clip-path="url(#pfaa267102d)" style="fill: none; stroke: #ff0000; stroke-linecap: square"/>
   </g>
   <g id="line2d_125">
    <path d="M 198.224604 104.05969 
L 145.60475 103.85726 
" clip-path="url(#pfaa267102d)" style="fill: none; stroke: #ff0000; stroke-linecap: square"/>
   </g>
   <g id="line2d_126">
    <path d="M 145.60475 103.85726 
L 143.922681 204.968642 
" clip-path="url(#pfaa267102d)" style="fill: none; stroke: #ff0000; stroke-linecap: square"/>
   </g>
   <g id="line2d_127">
    <path d="M 143.922681 204.968642 
L 198.224604 104.05969 
" clip-path="url(#pfaa267102d)" style="fill: none; stroke: #ff0000; stroke-linecap: square"/>
   </g>
   <g id="line2d_128">
    <path d="M 197.90052 211.032126 
L 145.60475 103.85726 
" clip-path="url(#pfaa267102d)" style="fill: none; stroke: #ff0000; stroke-linecap: square"/>
   </g>
   <g id="line2d_129">
    <path d="M 197.90052 211.032126 
L 252.975155 211.032126 
" clip-path="url(#pfaa267102d)" style="fill: none; stroke: #ff0000; stroke-linecap: square"/>
   </g>
   <g id="line2d_130">
    <path d="M 252.975155 211.032126 
L 252.651072 104.05969 
" clip-path="url(#pfaa267102d)" style="fill: none; stroke: #ff0000; stroke-linecap: square"/>
   </g>
   <g id="line2d_131">
    <path d="M 252.651072 104.05969 
L 198.224604 104.05969 
" clip-path="url(#pfaa267102d)" style="fill: none; stroke: #ff0000; stroke-linecap: square"/>
   </g>
   <g id="line2d_132">
    <path d="M 198.224604 104.05969 
L 197.90052 211.032126 
" clip-path="url(#pfaa267102d)" style="fill: none; stroke: #ff0000; stroke-linecap: square"/>
   </g>
   <g id="line2d_133">
    <path d="M 197.90052 211.032126 
L 252.651072 104.05969 
" clip-path="url(#pfaa267102d)" style="fill: none; stroke: #ff0000; stroke-linecap: square"/>
   </g>
   <g id="line2d_134">
    <path d="M 252.975155 211.032126 
L 198.224604 104.05969 
" clip-path="url(#pfaa267102d)" style="fill: none; stroke: #ff0000; stroke-linecap: square"/>
   </g>
   <g id="line2d_135">
    <path d="M 252.975155 211.032126 
L 306.952995 204.968642 
" clip-path="url(#pfaa267102d)" style="fill: none; stroke: #ff0000; stroke-linecap: square"/>
   </g>
   <g id="line2d_136">
    <path d="M 306.952995 204.968642 
L 305.270926 103.85726 
" clip-path="url(#pfaa267102d)" style="fill: none; stroke: #ff0000; stroke-linecap: square"/>
   </g>
   <g id="line2d_137">
    <path d="M 305.270926 103.85726 
L 252.651072 104.05969 
" clip-path="url(#pfaa267102d)" style="fill: none; stroke: #ff0000; stroke-linecap: square"/>
   </g>
   <g id="line2d_138">
    <path d="M 252.651072 104.05969 
L 252.975155 211.032126 
" clip-path="url(#pfaa267102d)" style="fill: none; stroke: #ff0000; stroke-linecap: square"/>
   </g>
   <g id="line2d_139">
    <path d="M 252.975155 211.032126 
L 305.270926 103.85726 
" clip-path="url(#pfaa267102d)" style="fill: none; stroke: #ff0000; stroke-linecap: square"/>
   </g>
   <g id="line2d_140">
    <path d="M 306.952995 204.968642 
L 252.651072 104.05969 
" clip-path="url(#pfaa267102d)" style="fill: none; stroke: #ff0000; stroke-linecap: square"/>
   </g>
   <g id="line2d_141">
    <path d="M 306.952995 204.968642 
L 355.289083 199.288555 
" clip-path="url(#pfaa267102d)" style="fill: none; stroke: #ff0000; stroke-linecap: square"/>
   </g>
   <g id="line2d_142">
    <path d="M 355.289083 199.288555 
L 355.806577 108.466845 
" clip-path="url(#pfaa267102d)" style="fill: none; stroke: #ff0000; stroke-linecap: square"/>
   </g>
   <g id="line2d_143">
    <path d="M 355.806577 108.466845 
L 305.270926 103.85726 
" clip-path="url(#pfaa267102d)" style="fill: none; stroke: #ff0000; stroke-linecap: square"/>
   </g>
   <g id="line2d_144">
    <path d="M 305.270926 103.85726 
L 306.952995 204.968642 
" clip-path="url(#pfaa267102d)" style="fill: none; stroke: #ff0000; stroke-linecap: square"/>
   </g>
   <g id="line2d_145">
    <path d="M 306.952995 204.968642 
L 355.806577 108.466845 
" clip-path="url(#pfaa267102d)" style="fill: none; stroke: #ff0000; stroke-linecap: square"/>
   </g>
   <g id="line2d_146">
    <path d="M 355.289083 199.288555 
L 305.270926 103.85726 
" clip-path="url(#pfaa267102d)" style="fill: none; stroke: #ff0000; stroke-linecap: square"/>
   </g>
   <g id="line2d_147">
    <path d="M 355.289083 199.288555 
L 396.387292 190.72082 
" clip-path="url(#pfaa267102d)" style="fill: none; stroke: #ff0000; stroke-linecap: square"/>
   </g>
   <g id="line2d_148">
    <path d="M 396.387292 190.72082 
L 389.610615 123.043242 
" clip-path="url(#pfaa267102d)" style="fill: none; stroke: #ff0000; stroke-linecap: square"/>
   </g>
   <g id="line2d_149">
    <path d="M 389.610615 123.043242 
L 355.806577 108.466845 
" clip-path="url(#pfaa267102d)" style="fill: none; stroke: #ff0000; stroke-linecap: square"/>
   </g>
   <g id="line2d_150">
    <path d="M 355.806577 108.466845 
L 355.289083 199.288555 
" clip-path="url(#pfaa267102d)" style="fill: none; stroke: #ff0000; stroke-linecap: square"/>
   </g>
   <g id="line2d_151">
    <path d="M 355.289083 199.288555 
L 389.610615 123.043242 
" clip-path="url(#pfaa267102d)" style="fill: none; stroke: #ff0000; stroke-linecap: square"/>
   </g>
   <g id="line2d_152">
    <path d="M 396.387292 190.72082 
L 355.806577 108.466845 
" clip-path="url(#pfaa267102d)" style="fill: none; stroke: #ff0000; stroke-linecap: square"/>
   </g>
   <g id="line2d_153">
    <path d="M 396.387292 190.72082 
L 401.354919 167.015028 
" clip-path="url(#pfaa267102d)" style="fill: none; stroke: #ff0000; stroke-linecap: square"/>
   </g>
   <g id="line2d_154">
    <path d="M 401.354919 167.015028 
L 389.476396 143.660597 
" clip-path="url(#pfaa267102d)" style="fill: none; stroke: #ff0000; stroke-linecap: square"/>
   </g>
   <g id="line2d_155">
    <path d="M 389.476396 143.660597 
L 389.610615 123.043242 
" clip-path="url(#pfaa267102d)" style="fill: none; stroke: #ff0000; stroke-linecap: square"/>
   </g>
   <g id="line2d_156">
    <path d="M 389.610615 123.043242 
L 396.387292 190.72082 
" clip-path="url(#pfaa267102d)" style="fill: none; stroke: #ff0000; stroke-linecap: square"/>
   </g>
   <g id="line2d_157">
    <path d="M 396.387292 190.72082 
L 389.476396 143.660597 
" clip-path="url(#pfaa267102d)" style="fill: none; stroke: #ff0000; stroke-linecap: square"/>
   </g>
   <g id="line2d_158">
    <path d="M 401.354919 167.015028 
L 389.610615 123.043242 
" clip-path="url(#pfaa267102d)" style="fill: none; stroke: #ff0000; stroke-linecap: square"/>
   </g>
   <g id="line2d_159">
    <path d="M 225.437838 238.84845 
L 225.437838 227.090286 
" clip-path="url(#pfaa267102d)" style="fill: none"/>
   </g>
   <g id="line2d_160">
    <path d="M 225.437838 227.090286 
L 225.437838 213.538879 
" clip-path="url(#pfaa267102d)" style="fill: none"/>
   </g>
   <g id="line2d_161">
    <path d="M 225.437838 227.090286 
L 200.351374 208.863529 
" clip-path="url(#pfaa267102d)" style="fill: none"/>
   </g>
   <g id="line2d_162">
    <path d="M 225.437838 227.090286 
L 250.524301 208.863529 
" clip-path="url(#pfaa267102d)" style="fill: none"/>
   </g>
   <g id="line2d_163">
    <path d="M 225.437838 213.538879 
L 175.523495 181.92906 
" clip-path="url(#pfaa267102d)" style="fill: none"/>
   </g>
   <g id="line2d_164">
    <path d="M 225.437838 213.538879 
L 275.352181 181.92906 
" clip-path="url(#pfaa267102d)" style="fill: none"/>
   </g>
   <g id="line2d_165">
    <path d="M 200.351374 208.863529 
L 175.523495 181.92906 
" clip-path="url(#pfaa267102d)" style="fill: none"/>
   </g>
   <g id="line2d_166">
    <path d="M 200.351374 208.863529 
L 61.399279 143.660597 
" clip-path="url(#pfaa267102d)" style="fill: none"/>
   </g>
   <g id="line2d_167">
    <path d="M 250.524301 208.863529 
L 275.352181 181.92906 
" clip-path="url(#pfaa267102d)" style="fill: none"/>
   </g>
   <g id="line2d_168">
    <path d="M 250.524301 208.863529 
L 389.476396 143.660597 
" clip-path="url(#pfaa267102d)" style="fill: none"/>
   </g>
   <g id="line2d_169">
    <path d="M 175.523495 181.92906 
L 111.506959 139.761478 
" clip-path="url(#pfaa267102d)" style="fill: none"/>
   </g>
   <g id="line2d_170">
    <path d="M 175.523495 181.92906 
L 170.956849 140.180154 
" clip-path="url(#pfaa267102d)" style="fill: none"/>
   </g>
   <g id="line2d_171">
    <path d="M 275.352181 181.92906 
L 339.368717 139.761478 
" clip-path="url(#pfaa267102d)" style="fill: none"/>
   </g>
   <g id="line2d_172">
    <path d="M 275.352181 181.92906 
L 279.918827 140.180154 
" clip-path="url(#pfaa267102d)" style="fill: none"/>
   </g>
   <g id="line2d_173">
    <path d="M 111.506959 139.761478 
L 61.26506 123.043242 
" clip-path="url(#pfaa267102d)" style="fill: none"/>
   </g>
   <g id="line2d_174">
    <path d="M 111.506959 139.761478 
L 95.069099 108.466845 
" clip-path="url(#pfaa267102d)" style="fill: none"/>
   </g>
   <g id="line2d_175">
    <path d="M 339.368717 139.761478 
L 389.610615 123.043242 
" clip-path="url(#pfaa267102d)" style="fill: none"/>
   </g>
   <g id="line2d_176">
    <path d="M 339.368717 139.761478 
L 355.806577 108.466845 
" clip-path="url(#pfaa267102d)" style="fill: none"/>
   </g>
   <g id="line2d_177">
    <path d="M 170.956849 140.180154 
L 145.60475 103.85726 
" clip-path="url(#pfaa267102d)" style="fill: none"/>
   </g>
   <g id="line2d_178">
    <path d="M 170.956849 140.180154 
L 198.224604 104.05969 
" clip-path="url(#pfaa267102d)" style="fill: none"/>
   </g>
   <g id="line2d_179">
    <path d="M 279.918827 140.180154 
L 305.270926 103.85726 
" clip-path="url(#pfaa267102d)" style="fill: none"/>
   </g>
   <g id="line2d_180">
    <path d="M 279.918827 140.180154 
L 252.651072 104.05969 
" clip-path="url(#pfaa267102d)" style="fill: none"/>
   </g>
   <g id="line2d_181">
    <path d="M 225.437838 238.84845 
L 158.10522 214.63848 
" clip-path="url(#pfaa267102d)" style="fill: none"/>
   </g>
   <g id="line2d_182">
    <path d="M 225.437838 238.84845 
L 292.770456 214.63848 
" clip-path="url(#pfaa267102d)" style="fill: none"/>
   </g>
   <g id="line2d_183">
    <path d="M 158.10522 214.63848 
L 121.868125 206.046734 
" clip-path="url(#pfaa267102d)" style="fill: none"/>
   </g>
   <g id="line2d_184">
    <path d="M 158.10522 214.63848 
L 164.787498 211.849907 
" clip-path="url(#pfaa267102d)" style="fill: none"/>
   </g>
   <g id="line2d_185">
    <path d="M 292.770456 214.63848 
L 329.00755 206.046734 
" clip-path="url(#pfaa267102d)" style="fill: none"/>
   </g>
   <g id="line2d_186">
    <path d="M 292.770456 214.63848 
L 286.088177 211.849907 
" clip-path="url(#pfaa267102d)" style="fill: none"/>
   </g>
   <g id="line2d_187">
    <path d="M 121.868125 206.046734 
L 54.488384 190.72082 
" clip-path="url(#pfaa267102d)" style="fill: none"/>
   </g>
   <g id="line2d_188">
    <path d="M 121.868125 206.046734 
L 95.586593 199.288555 
" clip-path="url(#pfaa267102d)" style="fill: none"/>
   </g>
   <g id="line2d_189">
    <path d="M 329.00755 206.046734 
L 396.387292 190.72082 
" clip-path="url(#pfaa267102d)" style="fill: none"/>
   </g>
   <g id="line2d_190">
    <path d="M 329.00755 206.046734 
L 355.289083 199.288555 
" clip-path="url(#pfaa267102d)" style="fill: none"/>
   </g>
   <g id="line2d_191">
    <path d="M 164.787498 211.849907 
L 143.922681 204.968642 
" clip-path="url(#pfaa267102d)" style="fill: none"/>
   </g>
   <g id="line2d_192">
    <path d="M 164.787498 211.849907 
L 197.90052 211.032126 
" clip-path="url(#pfaa267102d)" style="fill: none"/>
   </g>
   <g id="line2d_193">
    <path d="M 286.088177 211.849907 
L 306.952995 204.968642 
" clip-path="url(#pfaa267102d)" style="fill: none"/>
   </g>
   <g id="line2d_194">
    <path d="M 286.088177 211.849907 
L 252.975155 211.032126 
" clip-path="url(#pfaa267102d)" style="fill: none"/>
   </g>
   <g id="line2d_195">
    <path d="M 175.523495 181.92906 
L 49.520757 167.015028 
" clip-path="url(#pfaa267102d)" style="fill: none"/>
   </g>
   <g id="line2d_196">
    <path d="M 275.352181 181.92906 
L 401.354919 167.015028 
" clip-path="url(#pfaa267102d)" style="fill: none"/>
   </g>
   <g id="line2d_197">
    <path d="M 158.10522 214.63848 
L 49.520757 167.015028 
" clip-path="url(#pfaa267102d)" style="fill: none"/>
   </g>
   <g id="line2d_198">
    <path d="M 292.770456 214.63848 
L 401.354919 167.015028 
" clip-path="url(#pfaa267102d)" style="fill: none"/>
   </g>
   <g id="line2d_199">
    <path d="M 200.351374 208.863529 
" clip-path="url(#pfaa267102d)" style="fill: none"/>
   </g>
   <g id="line2d_200">
    <path d="M 250.524301 208.863529 
" clip-path="url(#pfaa267102d)" style="fill: none"/>
   </g>
   <g id="line2d_201">
    <path d="M 225.437838 238.84845 
L 225.437838 238.84845 
" clip-path="url(#pfaa267102d)" style="fill: none; stroke: #000000; stroke-width: 0.5; stroke-linecap: square"/>
    <defs>
     <path id="m9550357d9e" d="M 0 0.025 
C 0.00663 0.025 0.012989 0.022366 0.017678 0.017678 
C 0.022366 0.012989 0.025 0.00663 0.025 0 
C 0.025 -0.00663 0.022366 -0.012989 0.017678 -0.017678 
C 0.012989 -0.022366 0.00663 -0.025 0 -0.025 
C -0.00663 -0.025 -0.012989 -0.022366 -0.017678 -0.017678 
C -0.022366 -0.012989 -0.025 -0.00663 -0.025 0 
C -0.025 0.00663 -0.022366 0.012989 -0.017678 0.017678 
C -0.012989 0.022366 -0.00663 0.025 0 0.025 
z
" style="stroke: #000000"/>
    </defs>
    <g clip-path="url(#pfaa267102d)">
     <use xlink:href="#m9550357d9e" x="225.437838" y="238.84845" style="stroke: #000000"/>
     <use xlink:href="#m9550357d9e" x="225.437838" y="238.84845" style="stroke: #000000"/>
    </g>
   </g>
   <g id="Poly3DCollection_1">
    <path d="M 59.112883 206.217371 
L 64.638876 241.762316 
L 65.15071 172.017978 
L 60.384869 178.964119 
z
" clip-path="url(#pfaa267102d)" style="fill: #808080; fill-opacity: 0.15"/>
   </g>
   <g id="Line3DCollection_1">
    <path d="M 59.112883 206.217371 
L 64.638876 241.762316 
" clip-path="url(#pfaa267102d)" style="fill: none; stroke: #000000; stroke-width: 2.2"/>
   </g>
   <g id="Poly3DCollection_2">
    <path d="M 386.2368 241.762316 
L 391.762793 206.217371 
L 390.490807 178.964119 
L 385.724965 172.017978 
z
" clip-path="url(#pfaa267102d)" style="fill: #808080; fill-opacity: 0.15"/>
   </g>
   <g id="Line3DCollection_2">
    <path d="M 386.2368 241.762316 
L 391.762793 206.217371 
" clip-path="url(#pfaa267102d)" style="fill: none; stroke: #000000; stroke-width: 2.2"/>
   </g>
   <g id="Poly3DCollection_3">
    <path d="M 49.520757 167.015028 
L 54.488384 190.72082 
L 61.26506 123.043242 
L 61.399279 143.660597 
z
" clip-path="url(#pfaa267102d)" style="fill: #ff0000; fill-opacity: 0.15"/>
   </g>
   <g id="Line3DCollection_3">
    <path d="M 49.520757 167.015028 
L 54.488384 190.72082 
" clip-path="url(#pfaa267102d)" style="fill: none; stroke: #ff0000; stroke-width: 2.2"/>
   </g>
   <g id="Poly3DCollection_4">
    <path d="M 396.387292 190.72082 
L 401.354919 167.015028 
L 389.476396 143.660597 
L 389.610615 123.043242 
z
" clip-path="url(#pfaa267102d)" style="fill: #ff0000; fill-opacity: 0.15"/>
   </g>
   <g id="Line3DCollection_4">
    <path d="M 396.387292 190.72082 
L 401.354919 167.015028 
" clip-path="url(#pfaa267102d)" style="fill: none; stroke: #ff0000; stroke-width: 2.2"/>
   </g>
   <g id="Poly3DCollection_5">
    <path d="M 54.488384 190.72082 
L 95.586593 199.288555 
L 95.069099 108.466845 
L 61.26506 123.043242 
z
" clip-path="url(#pfaa267102d)" style="fill: #ff0000; fill-opacity: 0.15"/>
   </g>
   <g id="Line3DCollection_5">
    <path d="M 54.488384 190.72082 
L 95.586593 199.288555 
" clip-path="url(#pfaa267102d)" style="fill: none; stroke: #ff0000; stroke-width: 2.2"/>
   </g>
   <g id="Poly3DCollection_6">
    <path d="M 355.289083 199.288555 
L 396.387292 190.72082 
L 389.610615 123.043242 
L 355.806577 108.466845 
z
" clip-path="url(#pfaa267102d)" style="fill: #ff0000; fill-opacity: 0.15"/>
   </g>
   <g id="Line3DCollection_6">
    <path d="M 355.289083 199.288555 
L 396.387292 190.72082 
" clip-path="url(#pfaa267102d)" style="fill: none; stroke: #ff0000; stroke-width: 2.2"/>
   </g>
   <g id="Poly3DCollection_7">
    <path d="M 64.638876 241.762316 
L 97.063121 251.151901 
L 97.813798 159.410105 
L 65.15071 172.017978 
z
" clip-path="url(#pfaa267102d)" style="fill: #808080; fill-opacity: 0.15"/>
   </g>
   <g id="Line3DCollection_7">
    <path d="M 64.638876 241.762316 
L 97.063121 251.151901 
" clip-path="url(#pfaa267102d)" style="fill: none; stroke: #000000; stroke-width: 2.2"/>
   </g>
   <g id="Poly3DCollection_8">
    <path d="M 353.812555 251.151901 
L 386.2368 241.762316 
L 385.724965 172.017978 
L 353.061878 159.410105 
z
" clip-path="url(#pfaa267102d)" style="fill: #808080; fill-opacity: 0.15"/>
   </g>
   <g id="Line3DCollection_8">
    <path d="M 353.812555 251.151901 
L 386.2368 241.762316 
" clip-path="url(#pfaa267102d)" style="fill: none; stroke: #000000; stroke-width: 2.2"/>
   </g>
   <g id="Poly3DCollection_9">
    <path d="M 95.586593 199.288555 
L 143.922681 204.968642 
L 145.60475 103.85726 
L 95.069099 108.466845 
z
" clip-path="url(#pfaa267102d)" style="fill: #ff0000; fill-opacity: 0.15"/>
   </g>
   <g id="Line3DCollection_9">
    <path d="M 95.586593 199.288555 
L 143.922681 204.968642 
" clip-path="url(#pfaa267102d)" style="fill: none; stroke: #ff0000; stroke-width: 2.2"/>
   </g>
   <g id="Poly3DCollection_10">
    <path d="M 306.952995 204.968642 
L 355.289083 199.288555 
L 355.806577 108.466845 
L 305.270926 103.85726 
z
" clip-path="url(#pfaa267102d)" style="fill: #ff0000; fill-opacity: 0.15"/>
   </g>
   <g id="Line3DCollection_10">
    <path d="M 306.952995 204.968642 
L 355.289083 199.288555 
" clip-path="url(#pfaa267102d)" style="fill: none; stroke: #ff0000; stroke-width: 2.2"/>
   </g>
   <g id="Poly3DCollection_11">
    <path d="M 97.063121 251.151901 
L 144.65453 257.45986 
L 145.228197 154.678692 
L 97.813798 159.410105 
z
" clip-path="url(#pfaa267102d)" style="fill: #808080; fill-opacity: 0.15"/>
   </g>
   <g id="Line3DCollection_11">
    <path d="M 97.063121 251.151901 
L 144.65453 257.45986 
" clip-path="url(#pfaa267102d)" style="fill: none; stroke: #000000; stroke-width: 2.2"/>
   </g>
   <g id="Poly3DCollection_12">
    <path d="M 306.221145 257.45986 
L 353.812555 251.151901 
L 353.061878 159.410105 
L 305.647478 154.678692 
z
" clip-path="url(#pfaa267102d)" style="fill: #808080; fill-opacity: 0.15"/>
   </g>
   <g id="Line3DCollection_12">
    <path d="M 306.221145 257.45986 
L 353.812555 251.151901 
" clip-path="url(#pfaa267102d)" style="fill: none; stroke: #000000; stroke-width: 2.2"/>
   </g>
   <g id="Poly3DCollection_13">
    <path d="M 143.922681 204.968642 
L 197.90052 211.032126 
L 198.224604 104.05969 
L 145.60475 103.85726 
z
" clip-path="url(#pfaa267102d)" style="fill: #ff0000; fill-opacity: 0.15"/>
   </g>
   <g id="Line3DCollection_13">
    <path d="M 143.922681 204.968642 
L 197.90052 211.032126 
" clip-path="url(#pfaa267102d)" style="fill: none; stroke: #ff0000; stroke-width: 2.2"/>
   </g>
   <g id="Poly3DCollection_14">
    <path d="M 197.90052 211.032126 
L 252.975155 211.032126 
L 252.651072 104.05969 
L 198.224604 104.05969 
z
" clip-path="url(#pfaa267102d)" style="fill: #ff0000; fill-opacity: 0.15"/>
   </g>
   <g id="Line3DCollection_14">
    <path d="M 197.90052 211.032126 
L 252.975155 211.032126 
" clip-path="url(#pfaa267102d)" style="fill: none; stroke: #ff0000; stroke-width: 2.2"/>
   </g>
   <g id="Poly3DCollection_15">
    <path d="M 252.975155 211.032126 
L 306.952995 204.968642 
L 305.270926 103.85726 
L 252.651072 104.05969 
z
" clip-path="url(#pfaa267102d)" style="fill: #ff0000; fill-opacity: 0.15"/>
   </g>
   <g id="Line3DCollection_15">
    <path d="M 252.975155 211.032126 
L 306.952995 204.968642 
" clip-path="url(#pfaa267102d)" style="fill: none; stroke: #ff0000; stroke-width: 2.2"/>
   </g>
   <g id="Poly3DCollection_16">
    <path d="M 144.65453 257.45986 
L 197.979752 260.612595 
L 198.138916 152.537858 
L 145.228197 154.678692 
z
" clip-path="url(#pfaa267102d)" style="fill: #808080; fill-opacity: 0.15"/>
   </g>
   <g id="Line3DCollection_16">
    <path d="M 144.65453 257.45986 
L 197.979752 260.612595 
" clip-path="url(#pfaa267102d)" style="fill: none; stroke: #000000; stroke-width: 2.2"/>
   </g>
   <g id="Poly3DCollection_17">
    <path d="M 197.979752 260.612595 
L 252.895923 260.612595 
L 252.73676 152.537858 
L 198.138916 152.537858 
z
" clip-path="url(#pfaa267102d)" style="fill: #808080; fill-opacity: 0.15"/>
   </g>
   <g id="Line3DCollection_17">
    <path d="M 197.979752 260.612595 
L 252.895923 260.612595 
" clip-path="url(#pfaa267102d)" style="fill: none; stroke: #000000; stroke-width: 2.2"/>
   </g>
   <g id="Poly3DCollection_18">
    <path d="M 252.895923 260.612595 
L 306.221145 257.45986 
L 305.647478 154.678692 
L 252.73676 152.537858 
z
" clip-path="url(#pfaa267102d)" style="fill: #808080; fill-opacity: 0.15"/>
   </g>
   <g id="Line3DCollection_18">
    <path d="M 252.895923 260.612595 
L 306.221145 257.45986 
" clip-path="url(#pfaa267102d)" style="fill: none; stroke: #000000; stroke-width: 2.2"/>
   </g>
  </g>
 </g>
 <defs>
  <clipPath id="pfaa267102d">
   <rect x="-133.2" y="-133.2" width="698.4" height="698.4"/>
  </clipPath>
 </defs>
</svg>
