<?xml version="1.0" encoding="utf-8" standalone="no"?>
<!DOCTYPE svg PUBLIC "-//W3C//DTD SVG 1.1//EN"
  "http://www.w3.org/Graphics/SVG/1.1/DTD/svg11.dtd">
<svg xmlns:xlink="http://www.w3.org/1999/xlink" width="576pt" height="432pt" viewBox="0 0 576 432" xmlns="http://www.w3.org/2000/svg" version="1.1">
 <metadata>
  <rdf:RDF xmlns:dc="http://purl.org/dc/elements/1.1/" xmlns:cc="http://creativecommons.org/ns#" xmlns:rdf="http://www.w3.org/1999/02/22-rdf-syntax-ns#">
   <cc:Work>
    <dc:type rdf:resource="http://purl.org/dc/dcmitype/StillImage"/>
    <dc:date>2023-06-30T10:27:55.328488</dc:date>
    <dc:format>image/svg+xml</dc:format>
    <dc:creator>
     <cc:Agent>
      <dc:title>Matplotlib v3.6.2, https://matplotlib.org/</dc:title>
     </cc:Agent>
    </dc:creator>
   </cc:Work>
  </rdf:RDF>
 </metadata>
 <defs>
  <style type="text/css">*{stroke-linejoin: round; stroke-linecap: butt}</style>
 </defs>
 <g id="figure_1">
  <g id="patch_1">
   <path d="M 0 432 
L 576 432 
L 576 -0 
L 0 -0 
z
" style="fill: #ffffff"/>
  </g>
  <g id="patch_2">
   <path d="M -133.2 565.2 
L 565.2 565.2 
L 565.2 -133.2 
L -133.2 -133.2 
z
" style="fill: #ffffff"/>
  </g>
  <g id="axes_1">
   <g id="line2d_1">
    <path d="M 170.097273 349.354472 
L 202.808345 310.223572 
" clip-path="url(#pa2596ae01f)" style="fill: none"/>
   </g>
   <g id="line2d_2">
    <path d="M 170.097273 349.354472 
L 182.957686 316.665853 
" clip-path="url(#pa2596ae01f)" style="fill: none"/>
   </g>
   <g id="line2d_3">
    <path d="M 170.097273 349.354472 
L 172.942496 299.996888 
" clip-path="url(#pa2596ae01f)" style="fill: none"/>
   </g>
   <g id="line2d_4">
    <path d="M 170.097273 349.354472 
" clip-path="url(#pa2596ae01f)" style="fill: none"/>
   </g>
   <g id="line2d_5">
    <path d="M 120.74614 120.605832 
L 107.092894 87.989154 
" clip-path="url(#pa2596ae01f)" style="fill: none; stroke: #000000; stroke-linecap: square"/>
   </g>
   <g id="line2d_6">
    <path d="M 107.092894 87.989154 
L 162.522305 92.015479 
" clip-path="url(#pa2596ae01f)" style="fill: none; stroke: #000000; stroke-linecap: square"/>
   </g>
   <g id="line2d_7">
    <path d="M 162.522305 92.015479 
L 144.806486 126.741224 
" clip-path="url(#pa2596ae01f)" style="fill: none; stroke: #000000; stroke-linecap: square"/>
   </g>
   <g id="line2d_8">
    <path d="M 144.806486 126.741224 
L 120.74614 120.605832 
" clip-path="url(#pa2596ae01f)" style="fill: none; stroke: #000000; stroke-linecap: square"/>
   </g>
   <g id="line2d_9">
    <path d="M 120.74614 120.605832 
L 162.522305 92.015479 
" clip-path="url(#pa2596ae01f)" style="fill: none; stroke: #000000; stroke-linecap: square"/>
   </g>
   <g id="line2d_10">
    <path d="M 107.092894 87.989154 
L 144.806486 126.741224 
" clip-path="url(#pa2596ae01f)" style="fill: none; stroke: #000000; stroke-linecap: square"/>
   </g>
   <g id="line2d_11">
    <path d="M 107.092894 87.989154 
L 130.551995 60.56066 
" clip-path="url(#pa2596ae01f)" style="fill: none; stroke: #000000; stroke-linecap: square"/>
   </g>
   <g id="line2d_12">
    <path d="M 130.551995 60.56066 
L 198.037154 59.227935 
" clip-path="url(#pa2596ae01f)" style="fill: none; stroke: #000000; stroke-linecap: square"/>
   </g>
   <g id="line2d_13">
    <path d="M 198.037154 59.227935 
L 162.522305 92.015479 
" clip-path="url(#pa2596ae01f)" style="fill: none; stroke: #000000; stroke-linecap: square"/>
   </g>
   <g id="line2d_14">
    <path d="M 162.522305 92.015479 
L 107.092894 87.989154 
" clip-path="url(#pa2596ae01f)" style="fill: none; stroke: #000000; stroke-linecap: square"/>
   </g>
   <g id="line2d_15">
    <path d="M 107.092894 87.989154 
L 198.037154 59.227935 
" clip-path="url(#pa2596ae01f)" style="fill: none; stroke: #000000; stroke-linecap: square"/>
   </g>
   <g id="line2d_16">
    <path d="M 130.551995 60.56066 
L 162.522305 92.015479 
" clip-path="url(#pa2596ae01f)" style="fill: none; stroke: #000000; stroke-linecap: square"/>
   </g>
   <g id="line2d_17">
    <path d="M 130.551995 60.56066 
L 160.957831 45.330894 
" clip-path="url(#pa2596ae01f)" style="fill: none; stroke: #000000; stroke-linecap: square"/>
   </g>
   <g id="line2d_18">
    <path d="M 160.957831 45.330894 
L 236.929815 48.803428 
" clip-path="url(#pa2596ae01f)" style="fill: none; stroke: #000000; stroke-linecap: square"/>
   </g>
   <g id="line2d_19">
    <path d="M 236.929815 48.803428 
L 198.037154 59.227935 
" clip-path="url(#pa2596ae01f)" style="fill: none; stroke: #000000; stroke-linecap: square"/>
   </g>
   <g id="line2d_20">
    <path d="M 198.037154 59.227935 
L 130.551995 60.56066 
" clip-path="url(#pa2596ae01f)" style="fill: none; stroke: #000000; stroke-linecap: square"/>
   </g>
   <g id="line2d_21">
    <path d="M 130.551995 60.56066 
L 236.929815 48.803428 
" clip-path="url(#pa2596ae01f)" style="fill: none; stroke: #000000; stroke-linecap: square"/>
   </g>
   <g id="line2d_22">
    <path d="M 160.957831 45.330894 
L 198.037154 59.227935 
" clip-path="url(#pa2596ae01f)" style="fill: none; stroke: #000000; stroke-linecap: square"/>
   </g>
   <g id="line2d_23">
    <path d="M 160.957831 45.330894 
L 194.810397 46.392826 
" clip-path="url(#pa2596ae01f)" style="fill: none; stroke: #000000; stroke-linecap: square"/>
   </g>
   <g id="line2d_24">
    <path d="M 194.810397 46.392826 
L 274.278745 46.682869 
" clip-path="url(#pa2596ae01f)" style="fill: none; stroke: #000000; stroke-linecap: square"/>
   </g>
   <g id="line2d_25">
    <path d="M 274.278745 46.682869 
L 236.929815 48.803428 
" clip-path="url(#pa2596ae01f)" style="fill: none; stroke: #000000; stroke-linecap: square"/>
   </g>
   <g id="line2d_26">
    <path d="M 236.929815 48.803428 
L 160.957831 45.330894 
" clip-path="url(#pa2596ae01f)" style="fill: none; stroke: #000000; stroke-linecap: square"/>
   </g>
   <g id="line2d_27">
    <path d="M 160.957831 45.330894 
L 274.278745 46.682869 
" clip-path="url(#pa2596ae01f)" style="fill: none; stroke: #000000; stroke-linecap: square"/>
   </g>
   <g id="line2d_28">
    <path d="M 194.810397 46.392826 
L 236.929815 48.803428 
" clip-path="url(#pa2596ae01f)" style="fill: none; stroke: #000000; stroke-linecap: square"/>
   </g>
   <g id="line2d_29">
    <path d="M 194.810397 46.392826 
L 229.806524 55.563762 
" clip-path="url(#pa2596ae01f)" style="fill: none; stroke: #000000; stroke-linecap: square"/>
   </g>
   <g id="line2d_30">
    <path d="M 229.806524 55.563762 
L 309.226506 55.625509 
" clip-path="url(#pa2596ae01f)" style="fill: none; stroke: #000000; stroke-linecap: square"/>
   </g>
   <g id="line2d_31">
    <path d="M 309.226506 55.625509 
L 274.278745 46.682869 
" clip-path="url(#pa2596ae01f)" style="fill: none; stroke: #000000; stroke-linecap: square"/>
   </g>
   <g id="line2d_32">
    <path d="M 274.278745 46.682869 
L 194.810397 46.392826 
" clip-path="url(#pa2596ae01f)" style="fill: none; stroke: #000000; stroke-linecap: square"/>
   </g>
   <g id="line2d_33">
    <path d="M 194.810397 46.392826 
L 309.226506 55.625509 
" clip-path="url(#pa2596ae01f)" style="fill: none; stroke: #000000; stroke-linecap: square"/>
   </g>
   <g id="line2d_34">
    <path d="M 229.806524 55.563762 
L 274.278745 46.682869 
" clip-path="url(#pa2596ae01f)" style="fill: none; stroke: #000000; stroke-linecap: square"/>
   </g>
   <g id="line2d_35">
    <path d="M 229.806524 55.563762 
L 265.156924 72.889969 
" clip-path="url(#pa2596ae01f)" style="fill: none; stroke: #000000; stroke-linecap: square"/>
   </g>
   <g id="line2d_36">
    <path d="M 265.156924 72.889969 
L 339.343287 75.372996 
" clip-path="url(#pa2596ae01f)" style="fill: none; stroke: #000000; stroke-linecap: square"/>
   </g>
   <g id="line2d_37">
    <path d="M 339.343287 75.372996 
L 309.226506 55.625509 
" clip-path="url(#pa2596ae01f)" style="fill: none; stroke: #000000; stroke-linecap: square"/>
   </g>
   <g id="line2d_38">
    <path d="M 309.226506 55.625509 
L 229.806524 55.563762 
" clip-path="url(#pa2596ae01f)" style="fill: none; stroke: #000000; stroke-linecap: square"/>
   </g>
   <g id="line2d_39">
    <path d="M 229.806524 55.563762 
L 339.343287 75.372996 
" clip-path="url(#pa2596ae01f)" style="fill: none; stroke: #000000; stroke-linecap: square"/>
   </g>
   <g id="line2d_40">
    <path d="M 265.156924 72.889969 
L 309.226506 55.625509 
" clip-path="url(#pa2596ae01f)" style="fill: none; stroke: #000000; stroke-linecap: square"/>
   </g>
   <g id="line2d_41">
    <path d="M 265.156924 72.889969 
L 296.854373 105.760384 
" clip-path="url(#pa2596ae01f)" style="fill: none; stroke: #000000; stroke-linecap: square"/>
   </g>
   <g id="line2d_42">
    <path d="M 296.854373 105.760384 
L 366.031184 103.871088 
" clip-path="url(#pa2596ae01f)" style="fill: none; stroke: #000000; stroke-linecap: square"/>
   </g>
   <g id="line2d_43">
    <path d="M 366.031184 103.871088 
L 339.343287 75.372996 
" clip-path="url(#pa2596ae01f)" style="fill: none; stroke: #000000; stroke-linecap: square"/>
   </g>
   <g id="line2d_44">
    <path d="M 339.343287 75.372996 
L 265.156924 72.889969 
" clip-path="url(#pa2596ae01f)" style="fill: none; stroke: #000000; stroke-linecap: square"/>
   </g>
   <g id="line2d_45">
    <path d="M 265.156924 72.889969 
L 366.031184 103.871088 
" clip-path="url(#pa2596ae01f)" style="fill: none; stroke: #000000; stroke-linecap: square"/>
   </g>
   <g id="line2d_46">
    <path d="M 296.854373 105.760384 
L 339.343287 75.372996 
" clip-path="url(#pa2596ae01f)" style="fill: none; stroke: #000000; stroke-linecap: square"/>
   </g>
   <g id="line2d_47">
    <path d="M 296.854373 105.760384 
L 326.556095 149.984494 
" clip-path="url(#pa2596ae01f)" style="fill: none; stroke: #000000; stroke-linecap: square"/>
   </g>
   <g id="line2d_48">
    <path d="M 326.556095 149.984494 
L 373.054688 150.726655 
" clip-path="url(#pa2596ae01f)" style="fill: none; stroke: #000000; stroke-linecap: square"/>
   </g>
   <g id="line2d_49">
    <path d="M 373.054688 150.726655 
L 366.031184 103.871088 
" clip-path="url(#pa2596ae01f)" style="fill: none; stroke: #000000; stroke-linecap: square"/>
   </g>
   <g id="line2d_50">
    <path d="M 366.031184 103.871088 
L 296.854373 105.760384 
" clip-path="url(#pa2596ae01f)" style="fill: none; stroke: #000000; stroke-linecap: square"/>
   </g>
   <g id="line2d_51">
    <path d="M 296.854373 105.760384 
L 373.054688 150.726655 
" clip-path="url(#pa2596ae01f)" style="fill: none; stroke: #000000; stroke-linecap: square"/>
   </g>
   <g id="line2d_52">
    <path d="M 326.556095 149.984494 
L 366.031184 103.871088 
" clip-path="url(#pa2596ae01f)" style="fill: none; stroke: #000000; stroke-linecap: square"/>
   </g>
   <g id="line2d_53">
    <path d="M 326.556095 149.984494 
L 346.929276 186.548426 
" clip-path="url(#pa2596ae01f)" style="fill: none; stroke: #000000; stroke-linecap: square"/>
   </g>
   <g id="line2d_54">
    <path d="M 346.929276 186.548426 
L 358.730083 189.050806 
" clip-path="url(#pa2596ae01f)" style="fill: none; stroke: #000000; stroke-linecap: square"/>
   </g>
   <g id="line2d_55">
    <path d="M 358.730083 189.050806 
L 373.054688 150.726655 
" clip-path="url(#pa2596ae01f)" style="fill: none; stroke: #000000; stroke-linecap: square"/>
   </g>
   <g id="line2d_56">
    <path d="M 373.054688 150.726655 
L 326.556095 149.984494 
" clip-path="url(#pa2596ae01f)" style="fill: none; stroke: #000000; stroke-linecap: square"/>
   </g>
   <g id="line2d_57">
    <path d="M 326.556095 149.984494 
L 358.730083 189.050806 
" clip-path="url(#pa2596ae01f)" style="fill: none; stroke: #000000; stroke-linecap: square"/>
   </g>
   <g id="line2d_58">
    <path d="M 346.929276 186.548426 
L 373.054688 150.726655 
" clip-path="url(#pa2596ae01f)" style="fill: none; stroke: #000000; stroke-linecap: square"/>
   </g>
   <g id="line2d_59">
    <path d="M 158.722013 377.829223 
L 170.097273 349.354472 
" clip-path="url(#pa2596ae01f)" style="fill: none"/>
   </g>
   <g id="line2d_60">
    <path d="M 170.097273 349.354472 
L 182.957686 316.665853 
" clip-path="url(#pa2596ae01f)" style="fill: none"/>
   </g>
   <g id="line2d_61">
    <path d="M 170.097273 349.354472 
L 172.942496 299.996888 
" clip-path="url(#pa2596ae01f)" style="fill: none"/>
   </g>
   <g id="line2d_62">
    <path d="M 170.097273 349.354472 
L 202.808345 310.223572 
" clip-path="url(#pa2596ae01f)" style="fill: none"/>
   </g>
   <g id="line2d_63">
    <path d="M 182.957686 316.665853 
L 184.571532 228.918047 
" clip-path="url(#pa2596ae01f)" style="fill: none"/>
   </g>
   <g id="line2d_64">
    <path d="M 182.957686 316.665853 
L 243.353439 247.683798 
" clip-path="url(#pa2596ae01f)" style="fill: none"/>
   </g>
   <g id="line2d_65">
    <path d="M 172.942496 299.996888 
L 184.571532 228.918047 
" clip-path="url(#pa2596ae01f)" style="fill: none"/>
   </g>
   <g id="line2d_66">
    <path d="M 172.942496 299.996888 
L 144.806486 126.741224 
" clip-path="url(#pa2596ae01f)" style="fill: none"/>
   </g>
   <g id="line2d_67">
    <path d="M 202.808345 310.223572 
L 243.353439 247.683798 
" clip-path="url(#pa2596ae01f)" style="fill: none"/>
   </g>
   <g id="line2d_68">
    <path d="M 202.808345 310.223572 
L 358.730083 189.050806 
" clip-path="url(#pa2596ae01f)" style="fill: none"/>
   </g>
   <g id="line2d_69">
    <path d="M 184.571532 228.918047 
L 178.917974 133.493976 
" clip-path="url(#pa2596ae01f)" style="fill: none"/>
   </g>
   <g id="line2d_70">
    <path d="M 184.571532 228.918047 
L 220.429545 133.536928 
" clip-path="url(#pa2596ae01f)" style="fill: none"/>
   </g>
   <g id="line2d_71">
    <path d="M 243.353439 247.683798 
L 322.588607 175.199512 
" clip-path="url(#pa2596ae01f)" style="fill: none"/>
   </g>
   <g id="line2d_72">
    <path d="M 243.353439 247.683798 
L 286.42423 152.452244 
" clip-path="url(#pa2596ae01f)" style="fill: none"/>
   </g>
   <g id="line2d_73">
    <path d="M 178.917974 133.493976 
L 162.522305 92.015479 
" clip-path="url(#pa2596ae01f)" style="fill: none"/>
   </g>
   <g id="line2d_74">
    <path d="M 178.917974 133.493976 
L 198.037154 59.227935 
" clip-path="url(#pa2596ae01f)" style="fill: none"/>
   </g>
   <g id="line2d_75">
    <path d="M 322.588607 175.199512 
L 373.054688 150.726655 
" clip-path="url(#pa2596ae01f)" style="fill: none"/>
   </g>
   <g id="line2d_76">
    <path d="M 322.588607 175.199512 
L 366.031184 103.871088 
" clip-path="url(#pa2596ae01f)" style="fill: none"/>
   </g>
   <g id="line2d_77">
    <path d="M 220.429545 133.536928 
L 236.929815 48.803428 
" clip-path="url(#pa2596ae01f)" style="fill: none"/>
   </g>
   <g id="line2d_78">
    <path d="M 220.429545 133.536928 
L 274.278745 46.682869 
" clip-path="url(#pa2596ae01f)" style="fill: none"/>
   </g>
   <g id="line2d_79">
    <path d="M 286.42423 152.452244 
L 339.343287 75.372996 
" clip-path="url(#pa2596ae01f)" style="fill: none"/>
   </g>
   <g id="line2d_80">
    <path d="M 286.42423 152.452244 
L 309.226506 55.625509 
" clip-path="url(#pa2596ae01f)" style="fill: none"/>
   </g>
   <g id="line2d_81">
    <path d="M 158.722013 377.829223 
L 148.949386 201.164007 
" clip-path="url(#pa2596ae01f)" style="fill: none"/>
   </g>
   <g id="line2d_82">
    <path d="M 158.722013 377.829223 
L 231.652844 227.143567 
" clip-path="url(#pa2596ae01f)" style="fill: none"/>
   </g>
   <g id="line2d_83">
    <path d="M 148.949386 201.164007 
L 135.567953 145.536962 
" clip-path="url(#pa2596ae01f)" style="fill: none"/>
   </g>
   <g id="line2d_84">
    <path d="M 148.949386 201.164007 
L 161.54461 133.808508 
" clip-path="url(#pa2596ae01f)" style="fill: none"/>
   </g>
   <g id="line2d_85">
    <path d="M 231.652844 227.143567 
L 265.966219 184.396526 
" clip-path="url(#pa2596ae01f)" style="fill: none"/>
   </g>
   <g id="line2d_86">
    <path d="M 231.652844 227.143567 
L 238.009458 156.132568 
" clip-path="url(#pa2596ae01f)" style="fill: none"/>
   </g>
   <g id="line2d_87">
    <path d="M 135.567953 145.536962 
L 107.092894 87.989154 
" clip-path="url(#pa2596ae01f)" style="fill: none"/>
   </g>
   <g id="line2d_88">
    <path d="M 135.567953 145.536962 
L 130.551995 60.56066 
" clip-path="url(#pa2596ae01f)" style="fill: none"/>
   </g>
   <g id="line2d_89">
    <path d="M 265.966219 184.396526 
L 326.556095 149.984494 
" clip-path="url(#pa2596ae01f)" style="fill: none"/>
   </g>
   <g id="line2d_90">
    <path d="M 265.966219 184.396526 
L 296.854373 105.760384 
" clip-path="url(#pa2596ae01f)" style="fill: none"/>
   </g>
   <g id="line2d_91">
    <path d="M 161.54461 133.808508 
L 160.957831 45.330894 
" clip-path="url(#pa2596ae01f)" style="fill: none"/>
   </g>
   <g id="line2d_92">
    <path d="M 161.54461 133.808508 
L 194.810397 46.392826 
" clip-path="url(#pa2596ae01f)" style="fill: none"/>
   </g>
   <g id="line2d_93">
    <path d="M 238.009458 156.132568 
L 265.156924 72.889969 
" clip-path="url(#pa2596ae01f)" style="fill: none"/>
   </g>
   <g id="line2d_94">
    <path d="M 238.009458 156.132568 
L 229.806524 55.563762 
" clip-path="url(#pa2596ae01f)" style="fill: none"/>
   </g>
   <g id="line2d_95">
    <path d="M 184.571532 228.918047 
L 120.74614 120.605832 
" clip-path="url(#pa2596ae01f)" style="fill: none"/>
   </g>
   <g id="line2d_96">
    <path d="M 243.353439 247.683798 
L 346.929276 186.548426 
" clip-path="url(#pa2596ae01f)" style="fill: none"/>
   </g>
   <g id="line2d_97">
    <path d="M 148.949386 201.164007 
L 120.74614 120.605832 
" clip-path="url(#pa2596ae01f)" style="fill: none"/>
   </g>
   <g id="line2d_98">
    <path d="M 231.652844 227.143567 
L 346.929276 186.548426 
" clip-path="url(#pa2596ae01f)" style="fill: none"/>
   </g>
   <g id="line2d_99">
    <path d="M 172.942496 299.996888 
" clip-path="url(#pa2596ae01f)" style="fill: none"/>
   </g>
   <g id="line2d_100">
    <path d="M 202.808345 310.223572 
" clip-path="url(#pa2596ae01f)" style="fill: none"/>
   </g>
   <g id="line2d_101">
    <path d="M 165.263699 347.816545 
L 184.273646 302.711077 
" clip-path="url(#pa2596ae01f)" style="fill: none"/>
   </g>
   <g id="line2d_102">
    <path d="M 165.263699 347.816545 
L 178.437881 315.128144 
" clip-path="url(#pa2596ae01f)" style="fill: none"/>
   </g>
   <g id="line2d_103">
    <path d="M 165.263699 347.816545 
L 174.168848 304.410975 
" clip-path="url(#pa2596ae01f)" style="fill: none"/>
   </g>
   <g id="line2d_104">
    <path d="M 165.263699 347.816545 
" clip-path="url(#pa2596ae01f)" style="fill: none"/>
   </g>
   <g id="line2d_105">
    <path d="M 165.589153 133.656417 
L 137.850575 99.170029 
" clip-path="url(#pa2596ae01f)" style="fill: none; stroke: #ff0000; stroke-linecap: square"/>
   </g>
   <g id="line2d_106">
    <path d="M 137.850575 99.170029 
L 198.304314 110.502407 
" clip-path="url(#pa2596ae01f)" style="fill: none; stroke: #ff0000; stroke-linecap: square"/>
   </g>
   <g id="line2d_107">
    <path d="M 198.304314 110.502407 
L 190.324148 141.7248 
" clip-path="url(#pa2596ae01f)" style="fill: none; stroke: #ff0000; stroke-linecap: square"/>
   </g>
   <g id="line2d_108">
    <path d="M 190.324148 141.7248 
L 165.589153 133.656417 
" clip-path="url(#pa2596ae01f)" style="fill: none; stroke: #ff0000; stroke-linecap: square"/>
   </g>
   <g id="line2d_109">
    <path d="M 165.589153 133.656417 
L 198.304314 110.502407 
" clip-path="url(#pa2596ae01f)" style="fill: none; stroke: #ff0000; stroke-linecap: square"/>
   </g>
   <g id="line2d_110">
    <path d="M 137.850575 99.170029 
L 190.324148 141.7248 
" clip-path="url(#pa2596ae01f)" style="fill: none; stroke: #ff0000; stroke-linecap: square"/>
   </g>
   <g id="line2d_111">
    <path d="M 137.850575 99.170029 
L 155.748496 67.496334 
" clip-path="url(#pa2596ae01f)" style="fill: none; stroke: #ff0000; stroke-linecap: square"/>
   </g>
   <g id="line2d_112">
    <path d="M 155.748496 67.496334 
L 234.106092 80.624458 
" clip-path="url(#pa2596ae01f)" style="fill: none; stroke: #ff0000; stroke-linecap: square"/>
   </g>
   <g id="line2d_113">
    <path d="M 234.106092 80.624458 
L 198.304314 110.502407 
" clip-path="url(#pa2596ae01f)" style="fill: none; stroke: #ff0000; stroke-linecap: square"/>
   </g>
   <g id="line2d_114">
    <path d="M 198.304314 110.502407 
L 137.850575 99.170029 
" clip-path="url(#pa2596ae01f)" style="fill: none; stroke: #ff0000; stroke-linecap: square"/>
   </g>
   <g id="line2d_115">
    <path d="M 137.850575 99.170029 
L 234.106092 80.624458 
" clip-path="url(#pa2596ae01f)" style="fill: none; stroke: #ff0000; stroke-linecap: square"/>
   </g>
   <g id="line2d_116">
    <path d="M 155.748496 67.496334 
L 198.304314 110.502407 
" clip-path="url(#pa2596ae01f)" style="fill: none; stroke: #ff0000; stroke-linecap: square"/>
   </g>
   <g id="line2d_117">
    <path d="M 155.748496 67.496334 
L 181.80226 48.150211 
" clip-path="url(#pa2596ae01f)" style="fill: none; stroke: #ff0000; stroke-linecap: square"/>
   </g>
   <g id="line2d_118">
    <path d="M 181.80226 48.150211 
L 268.328284 66.284486 
" clip-path="url(#pa2596ae01f)" style="fill: none; stroke: #ff0000; stroke-linecap: square"/>
   </g>
   <g id="line2d_119">
    <path d="M 268.328284 66.284486 
L 234.106092 80.624458 
" clip-path="url(#pa2596ae01f)" style="fill: none; stroke: #ff0000; stroke-linecap: square"/>
   </g>
   <g id="line2d_120">
    <path d="M 234.106092 80.624458 
L 155.748496 67.496334 
" clip-path="url(#pa2596ae01f)" style="fill: none; stroke: #ff0000; stroke-linecap: square"/>
   </g>
   <g id="line2d_121">
    <path d="M 155.748496 67.496334 
L 268.328284 66.284486 
" clip-path="url(#pa2596ae01f)" style="fill: none; stroke: #ff0000; stroke-linecap: square"/>
   </g>
   <g id="line2d_122">
    <path d="M 181.80226 48.150211 
L 234.106092 80.624458 
" clip-path="url(#pa2596ae01f)" style="fill: none; stroke: #ff0000; stroke-linecap: square"/>
   </g>
   <g id="line2d_123">
    <path d="M 181.80226 48.150211 
L 208.94549 44.389322 
" clip-path="url(#pa2596ae01f)" style="fill: none; stroke: #ff0000; stroke-linecap: square"/>
   </g>
   <g id="line2d_124">
    <path d="M 208.94549 44.389322 
L 298.781543 66.054087 
" clip-path="url(#pa2596ae01f)" style="fill: none; stroke: #ff0000; stroke-linecap: square"/>
   </g>
   <g id="line2d_125">
    <path d="M 298.781543 66.054087 
L 268.328284 66.284486 
" clip-path="url(#pa2596ae01f)" style="fill: none; stroke: #ff0000; stroke-linecap: square"/>
   </g>
   <g id="line2d_126">
    <path d="M 268.328284 66.284486 
L 181.80226 48.150211 
" clip-path="url(#pa2596ae01f)" style="fill: none; stroke: #ff0000; stroke-linecap: square"/>
   </g>
   <g id="line2d_127">
    <path d="M 181.80226 48.150211 
L 298.781543 66.054087 
" clip-path="url(#pa2596ae01f)" style="fill: none; stroke: #ff0000; stroke-linecap: square"/>
   </g>
   <g id="line2d_128">
    <path d="M 208.94549 44.389322 
L 268.328284 66.284486 
" clip-path="url(#pa2596ae01f)" style="fill: none; stroke: #ff0000; stroke-linecap: square"/>
   </g>
   <g id="line2d_129">
    <path d="M 208.94549 44.389322 
L 232.002605 47.180958 
" clip-path="url(#pa2596ae01f)" style="fill: none; stroke: #ff0000; stroke-linecap: square"/>
   </g>
   <g id="line2d_130">
    <path d="M 232.002605 47.180958 
L 323.390649 66.441872 
" clip-path="url(#pa2596ae01f)" style="fill: none; stroke: #ff0000; stroke-linecap: square"/>
   </g>
   <g id="line2d_131">
    <path d="M 323.390649 66.441872 
L 298.781543 66.054087 
" clip-path="url(#pa2596ae01f)" style="fill: none; stroke: #ff0000; stroke-linecap: square"/>
   </g>
   <g id="line2d_132">
    <path d="M 298.781543 66.054087 
L 208.94549 44.389322 
" clip-path="url(#pa2596ae01f)" style="fill: none; stroke: #ff0000; stroke-linecap: square"/>
   </g>
   <g id="line2d_133">
    <path d="M 208.94549 44.389322 
L 323.390649 66.441872 
" clip-path="url(#pa2596ae01f)" style="fill: none; stroke: #ff0000; stroke-linecap: square"/>
   </g>
   <g id="line2d_134">
    <path d="M 232.002605 47.180958 
L 298.781543 66.054087 
" clip-path="url(#pa2596ae01f)" style="fill: none; stroke: #ff0000; stroke-linecap: square"/>
   </g>
   <g id="line2d_135">
    <path d="M 232.002605 47.180958 
L 252.400299 59.327214 
" clip-path="url(#pa2596ae01f)" style="fill: none; stroke: #ff0000; stroke-linecap: square"/>
   </g>
   <g id="line2d_136">
    <path d="M 252.400299 59.327214 
L 337.493064 81.503633 
" clip-path="url(#pa2596ae01f)" style="fill: none; stroke: #ff0000; stroke-linecap: square"/>
   </g>
   <g id="line2d_137">
    <path d="M 337.493064 81.503633 
L 323.390649 66.441872 
" clip-path="url(#pa2596ae01f)" style="fill: none; stroke: #ff0000; stroke-linecap: square"/>
   </g>
   <g id="line2d_138">
    <path d="M 323.390649 66.441872 
L 232.002605 47.180958 
" clip-path="url(#pa2596ae01f)" style="fill: none; stroke: #ff0000; stroke-linecap: square"/>
   </g>
   <g id="line2d_139">
    <path d="M 232.002605 47.180958 
L 337.493064 81.503633 
" clip-path="url(#pa2596ae01f)" style="fill: none; stroke: #ff0000; stroke-linecap: square"/>
   </g>
   <g id="line2d_140">
    <path d="M 252.400299 59.327214 
L 323.390649 66.441872 
" clip-path="url(#pa2596ae01f)" style="fill: none; stroke: #ff0000; stroke-linecap: square"/>
   </g>
   <g id="line2d_141">
    <path d="M 252.400299 59.327214 
L 270.118852 90.667725 
" clip-path="url(#pa2596ae01f)" style="fill: none; stroke: #ff0000; stroke-linecap: square"/>
   </g>
   <g id="line2d_142">
    <path d="M 270.118852 90.667725 
L 348.052063 108.829524 
" clip-path="url(#pa2596ae01f)" style="fill: none; stroke: #ff0000; stroke-linecap: square"/>
   </g>
   <g id="line2d_143">
    <path d="M 348.052063 108.829524 
L 337.493064 81.503633 
" clip-path="url(#pa2596ae01f)" style="fill: none; stroke: #ff0000; stroke-linecap: square"/>
   </g>
   <g id="line2d_144">
    <path d="M 337.493064 81.503633 
L 252.400299 59.327214 
" clip-path="url(#pa2596ae01f)" style="fill: none; stroke: #ff0000; stroke-linecap: square"/>
   </g>
   <g id="line2d_145">
    <path d="M 252.400299 59.327214 
L 348.052063 108.829524 
" clip-path="url(#pa2596ae01f)" style="fill: none; stroke: #ff0000; stroke-linecap: square"/>
   </g>
   <g id="line2d_146">
    <path d="M 270.118852 90.667725 
L 337.493064 81.503633 
" clip-path="url(#pa2596ae01f)" style="fill: none; stroke: #ff0000; stroke-linecap: square"/>
   </g>
   <g id="line2d_147">
    <path d="M 270.118852 90.667725 
L 291.866319 132.286983 
" clip-path="url(#pa2596ae01f)" style="fill: none; stroke: #ff0000; stroke-linecap: square"/>
   </g>
   <g id="line2d_148">
    <path d="M 291.866319 132.286983 
L 348.233848 143.992175 
" clip-path="url(#pa2596ae01f)" style="fill: none; stroke: #ff0000; stroke-linecap: square"/>
   </g>
   <g id="line2d_149">
    <path d="M 348.233848 143.992175 
L 348.052063 108.829524 
" clip-path="url(#pa2596ae01f)" style="fill: none; stroke: #ff0000; stroke-linecap: square"/>
   </g>
   <g id="line2d_150">
    <path d="M 348.052063 108.829524 
L 270.118852 90.667725 
" clip-path="url(#pa2596ae01f)" style="fill: none; stroke: #ff0000; stroke-linecap: square"/>
   </g>
   <g id="line2d_151">
    <path d="M 270.118852 90.667725 
L 348.233848 143.992175 
" clip-path="url(#pa2596ae01f)" style="fill: none; stroke: #ff0000; stroke-linecap: square"/>
   </g>
   <g id="line2d_152">
    <path d="M 291.866319 132.286983 
L 348.052063 108.829524 
" clip-path="url(#pa2596ae01f)" style="fill: none; stroke: #ff0000; stroke-linecap: square"/>
   </g>
   <g id="line2d_153">
    <path d="M 291.866319 132.286983 
L 303.211099 168.610086 
" clip-path="url(#pa2596ae01f)" style="fill: none; stroke: #ff0000; stroke-linecap: square"/>
   </g>
   <g id="line2d_154">
    <path d="M 303.211099 168.610086 
L 330.745356 171.332519 
" clip-path="url(#pa2596ae01f)" style="fill: none; stroke: #ff0000; stroke-linecap: square"/>
   </g>
   <g id="line2d_155">
    <path d="M 330.745356 171.332519 
L 348.233848 143.992175 
" clip-path="url(#pa2596ae01f)" style="fill: none; stroke: #ff0000; stroke-linecap: square"/>
   </g>
   <g id="line2d_156">
    <path d="M 348.233848 143.992175 
L 291.866319 132.286983 
" clip-path="url(#pa2596ae01f)" style="fill: none; stroke: #ff0000; stroke-linecap: square"/>
   </g>
   <g id="line2d_157">
    <path d="M 291.866319 132.286983 
L 330.745356 171.332519 
" clip-path="url(#pa2596ae01f)" style="fill: none; stroke: #ff0000; stroke-linecap: square"/>
   </g>
   <g id="line2d_158">
    <path d="M 303.211099 168.610086 
L 348.233848 143.992175 
" clip-path="url(#pa2596ae01f)" style="fill: none; stroke: #ff0000; stroke-linecap: square"/>
   </g>
   <g id="line2d_159">
    <path d="M 158.722013 377.829223 
L 165.263699 347.816545 
" clip-path="url(#pa2596ae01f)" style="fill: none"/>
   </g>
   <g id="line2d_160">
    <path d="M 165.263699 347.816545 
L 178.437881 315.128144 
" clip-path="url(#pa2596ae01f)" style="fill: none"/>
   </g>
   <g id="line2d_161">
    <path d="M 165.263699 347.816545 
L 174.168848 304.410975 
" clip-path="url(#pa2596ae01f)" style="fill: none"/>
   </g>
   <g id="line2d_162">
    <path d="M 165.263699 347.816545 
L 184.273646 302.711077 
" clip-path="url(#pa2596ae01f)" style="fill: none"/>
   </g>
   <g id="line2d_163">
    <path d="M 178.437881 315.128144 
L 184.106026 232.287859 
" clip-path="url(#pa2596ae01f)" style="fill: none"/>
   </g>
   <g id="line2d_164">
    <path d="M 178.437881 315.128144 
L 224.110621 241.007867 
" clip-path="url(#pa2596ae01f)" style="fill: none"/>
   </g>
   <g id="line2d_165">
    <path d="M 174.168848 304.410975 
L 184.106026 232.287859 
" clip-path="url(#pa2596ae01f)" style="fill: none"/>
   </g>
   <g id="line2d_166">
    <path d="M 174.168848 304.410975 
L 190.324148 141.7248 
" clip-path="url(#pa2596ae01f)" style="fill: none"/>
   </g>
   <g id="line2d_167">
    <path d="M 184.273646 302.711077 
L 224.110621 241.007867 
" clip-path="url(#pa2596ae01f)" style="fill: none"/>
   </g>
   <g id="line2d_168">
    <path d="M 184.273646 302.711077 
L 330.745356 171.332519 
" clip-path="url(#pa2596ae01f)" style="fill: none"/>
   </g>
   <g id="line2d_169">
    <path d="M 184.106026 232.287859 
L 191.122589 145.045154 
" clip-path="url(#pa2596ae01f)" style="fill: none"/>
   </g>
   <g id="line2d_170">
    <path d="M 184.106026 232.287859 
L 225.457697 142.366013 
" clip-path="url(#pa2596ae01f)" style="fill: none"/>
   </g>
   <g id="line2d_171">
    <path d="M 224.110621 241.007867 
L 292.531299 170.895597 
" clip-path="url(#pa2596ae01f)" style="fill: none"/>
   </g>
   <g id="line2d_172">
    <path d="M 224.110621 241.007867 
L 283.826387 152.258318 
" clip-path="url(#pa2596ae01f)" style="fill: none"/>
   </g>
   <g id="line2d_173">
    <path d="M 191.122589 145.045154 
L 198.304314 110.502407 
" clip-path="url(#pa2596ae01f)" style="fill: none"/>
   </g>
   <g id="line2d_174">
    <path d="M 191.122589 145.045154 
L 234.106092 80.624458 
" clip-path="url(#pa2596ae01f)" style="fill: none"/>
   </g>
   <g id="line2d_175">
    <path d="M 292.531299 170.895597 
L 348.233848 143.992175 
" clip-path="url(#pa2596ae01f)" style="fill: none"/>
   </g>
   <g id="line2d_176">
    <path d="M 292.531299 170.895597 
L 348.052063 108.829524 
" clip-path="url(#pa2596ae01f)" style="fill: none"/>
   </g>
   <g id="line2d_177">
    <path d="M 225.457697 142.366013 
L 268.328284 66.284486 
" clip-path="url(#pa2596ae01f)" style="fill: none"/>
   </g>
   <g id="line2d_178">
    <path d="M 225.457697 142.366013 
L 298.781543 66.054087 
" clip-path="url(#pa2596ae01f)" style="fill: none"/>
   </g>
   <g id="line2d_179">
    <path d="M 283.826387 152.258318 
L 337.493064 81.503633 
" clip-path="url(#pa2596ae01f)" style="fill: none"/>
   </g>
   <g id="line2d_180">
    <path d="M 283.826387 152.258318 
L 323.390649 66.441872 
" clip-path="url(#pa2596ae01f)" style="fill: none"/>
   </g>
   <g id="line2d_181">
    <path d="M 158.722013 377.829223 
L 169.476192 203.752557 
" clip-path="url(#pa2596ae01f)" style="fill: none"/>
   </g>
   <g id="line2d_182">
    <path d="M 158.722013 377.829223 
L 224.007658 216.634733 
" clip-path="url(#pa2596ae01f)" style="fill: none"/>
   </g>
   <g id="line2d_183">
    <path d="M 169.476192 203.752557 
L 162.639112 150.608003 
" clip-path="url(#pa2596ae01f)" style="fill: none"/>
   </g>
   <g id="line2d_184">
    <path d="M 169.476192 203.752557 
L 183.608265 135.0852 
" clip-path="url(#pa2596ae01f)" style="fill: none"/>
   </g>
   <g id="line2d_185">
    <path d="M 224.007658 216.634733 
L 255.750996 172.920182 
" clip-path="url(#pa2596ae01f)" style="fill: none"/>
   </g>
   <g id="line2d_186">
    <path d="M 224.007658 216.634733 
L 237.327661 145.741399 
" clip-path="url(#pa2596ae01f)" style="fill: none"/>
   </g>
   <g id="line2d_187">
    <path d="M 162.639112 150.608003 
L 137.850575 99.170029 
" clip-path="url(#pa2596ae01f)" style="fill: none"/>
   </g>
   <g id="line2d_188">
    <path d="M 162.639112 150.608003 
L 155.748496 67.496334 
" clip-path="url(#pa2596ae01f)" style="fill: none"/>
   </g>
   <g id="line2d_189">
    <path d="M 255.750996 172.920182 
L 291.866319 132.286983 
" clip-path="url(#pa2596ae01f)" style="fill: none"/>
   </g>
   <g id="line2d_190">
    <path d="M 255.750996 172.920182 
L 270.118852 90.667725 
" clip-path="url(#pa2596ae01f)" style="fill: none"/>
   </g>
   <g id="line2d_191">
    <path d="M 183.608265 135.0852 
L 181.80226 48.150211 
" clip-path="url(#pa2596ae01f)" style="fill: none"/>
   </g>
   <g id="line2d_192">
    <path d="M 183.608265 135.0852 
L 208.94549 44.389322 
" clip-path="url(#pa2596ae01f)" style="fill: none"/>
   </g>
   <g id="line2d_193">
    <path d="M 237.327661 145.741399 
L 252.400299 59.327214 
" clip-path="url(#pa2596ae01f)" style="fill: none"/>
   </g>
   <g id="line2d_194">
    <path d="M 237.327661 145.741399 
L 232.002605 47.180958 
" clip-path="url(#pa2596ae01f)" style="fill: none"/>
   </g>
   <g id="line2d_195">
    <path d="M 184.106026 232.287859 
L 165.589153 133.656417 
" clip-path="url(#pa2596ae01f)" style="fill: none"/>
   </g>
   <g id="line2d_196">
    <path d="M 224.110621 241.007867 
L 303.211099 168.610086 
" clip-path="url(#pa2596ae01f)" style="fill: none"/>
   </g>
   <g id="line2d_197">
    <path d="M 169.476192 203.752557 
L 165.589153 133.656417 
" clip-path="url(#pa2596ae01f)" style="fill: none"/>
   </g>
   <g id="line2d_198">
    <path d="M 224.007658 216.634733 
L 303.211099 168.610086 
" clip-path="url(#pa2596ae01f)" style="fill: none"/>
   </g>
   <g id="line2d_199">
    <path d="M 174.168848 304.410975 
" clip-path="url(#pa2596ae01f)" style="fill: none"/>
   </g>
   <g id="line2d_200">
    <path d="M 184.273646 302.711077 
" clip-path="url(#pa2596ae01f)" style="fill: none"/>
   </g>
   <g id="line2d_201">
    <path d="M 158.722013 377.829223 
L 158.722013 377.829223 
" clip-path="url(#pa2596ae01f)" style="fill: none; stroke: #000000; stroke-width: 0.5; stroke-linecap: square"/>
    <defs>
     <path id="m92e884ceee" d="M 0 0.025 
C 0.00663 0.025 0.012989 0.022366 0.017678 0.017678 
C 0.022366 0.012989 0.025 0.00663 0.025 0 
C 0.025 -0.00663 0.022366 -0.012989 0.017678 -0.017678 
C 0.012989 -0.022366 0.00663 -0.025 0 -0.025 
C -0.00663 -0.025 -0.012989 -0.022366 -0.017678 -0.017678 
C -0.022366 -0.012989 -0.025 -0.00663 -0.025 0 
C -0.025 0.00663 -0.022366 0.012989 -0.017678 0.017678 
C -0.012989 0.022366 -0.00663 0.025 0 0.025 
z
" style="stroke: #000000"/>
    </defs>
    <g clip-path="url(#pa2596ae01f)">
     <use xlink:href="#m92e884ceee" x="158.722013" y="377.829223" style="stroke: #000000"/>
     <use xlink:href="#m92e884ceee" x="158.722013" y="377.829223" style="stroke: #000000"/>
    </g>
   </g>
   <g id="Poly3DCollection_1">
    <path d="M 165.589153 133.656417 
L 137.850575 99.170029 
L 198.304314 110.502407 
L 190.324148 141.7248 
z
" clip-path="url(#pa2596ae01f)" style="fill: #ff0000; fill-opacity: 0.15"/>
   </g>
   <g id="Line3DCollection_1">
    <path d="M 165.589153 133.656417 
L 137.850575 99.170029 
" clip-path="url(#pa2596ae01f)" style="fill: none; stroke: #ff0000; stroke-width: 2.2"/>
   </g>
   <g id="Poly3DCollection_2">
    <path d="M 137.850575 99.170029 
L 155.748496 67.496334 
L 234.106092 80.624458 
L 198.304314 110.502407 
z
" clip-path="url(#pa2596ae01f)" style="fill: #ff0000; fill-opacity: 0.15"/>
   </g>
   <g id="Line3DCollection_2">
    <path d="M 137.850575 99.170029 
L 155.748496 67.496334 
" clip-path="url(#pa2596ae01f)" style="fill: none; stroke: #ff0000; stroke-width: 2.2"/>
   </g>
   <g id="Poly3DCollection_3">
    <path d="M 120.74614 120.605832 
L 107.092894 87.989154 
L 162.522305 92.015479 
L 144.806486 126.741224 
z
" clip-path="url(#pa2596ae01f)" style="fill: #808080; fill-opacity: 0.15"/>
   </g>
   <g id="Line3DCollection_3">
    <path d="M 120.74614 120.605832 
L 107.092894 87.989154 
" clip-path="url(#pa2596ae01f)" style="fill: none; stroke: #000000; stroke-width: 2.2"/>
   </g>
   <g id="Poly3DCollection_4">
    <path d="M 155.748496 67.496334 
L 181.80226 48.150211 
L 268.328284 66.284486 
L 234.106092 80.624458 
z
" clip-path="url(#pa2596ae01f)" style="fill: #ff0000; fill-opacity: 0.15"/>
   </g>
   <g id="Line3DCollection_4">
    <path d="M 155.748496 67.496334 
L 181.80226 48.150211 
" clip-path="url(#pa2596ae01f)" style="fill: none; stroke: #ff0000; stroke-width: 2.2"/>
   </g>
   <g id="Poly3DCollection_5">
    <path d="M 107.092894 87.989154 
L 130.551995 60.56066 
L 198.037154 59.227935 
L 162.522305 92.015479 
z
" clip-path="url(#pa2596ae01f)" style="fill: #808080; fill-opacity: 0.15"/>
   </g>
   <g id="Line3DCollection_5">
    <path d="M 107.092894 87.989154 
L 130.551995 60.56066 
" clip-path="url(#pa2596ae01f)" style="fill: none; stroke: #000000; stroke-width: 2.2"/>
   </g>
   <g id="Poly3DCollection_6">
    <path d="M 181.80226 48.150211 
L 208.94549 44.389322 
L 298.781543 66.054087 
L 268.328284 66.284486 
z
" clip-path="url(#pa2596ae01f)" style="fill: #ff0000; fill-opacity: 0.15"/>
   </g>
   <g id="Line3DCollection_6">
    <path d="M 181.80226 48.150211 
L 208.94549 44.389322 
" clip-path="url(#pa2596ae01f)" style="fill: none; stroke: #ff0000; stroke-width: 2.2"/>
   </g>
   <g id="Poly3DCollection_7">
    <path d="M 130.551995 60.56066 
L 160.957831 45.330894 
L 236.929815 48.803428 
L 198.037154 59.227935 
z
" clip-path="url(#pa2596ae01f)" style="fill: #808080; fill-opacity: 0.15"/>
   </g>
   <g id="Line3DCollection_7">
    <path d="M 130.551995 60.56066 
L 160.957831 45.330894 
" clip-path="url(#pa2596ae01f)" style="fill: none; stroke: #000000; stroke-width: 2.2"/>
   </g>
   <g id="Poly3DCollection_8">
    <path d="M 208.94549 44.389322 
L 232.002605 47.180958 
L 323.390649 66.441872 
L 298.781543 66.054087 
z
" clip-path="url(#pa2596ae01f)" style="fill: #ff0000; fill-opacity: 0.15"/>
   </g>
   <g id="Line3DCollection_8">
    <path d="M 208.94549 44.389322 
L 232.002605 47.180958 
" clip-path="url(#pa2596ae01f)" style="fill: none; stroke: #ff0000; stroke-width: 2.2"/>
   </g>
   <g id="Poly3DCollection_9">
    <path d="M 160.957831 45.330894 
L 194.810397 46.392826 
L 274.278745 46.682869 
L 236.929815 48.803428 
z
" clip-path="url(#pa2596ae01f)" style="fill: #808080; fill-opacity: 0.15"/>
   </g>
   <g id="Line3DCollection_9">
    <path d="M 160.957831 45.330894 
L 194.810397 46.392826 
" clip-path="url(#pa2596ae01f)" style="fill: none; stroke: #000000; stroke-width: 2.2"/>
   </g>
   <g id="Poly3DCollection_10">
    <path d="M 232.002605 47.180958 
L 252.400299 59.327214 
L 337.493064 81.503633 
L 323.390649 66.441872 
z
" clip-path="url(#pa2596ae01f)" style="fill: #ff0000; fill-opacity: 0.15"/>
   </g>
   <g id="Line3DCollection_10">
    <path d="M 232.002605 47.180958 
L 252.400299 59.327214 
" clip-path="url(#pa2596ae01f)" style="fill: none; stroke: #ff0000; stroke-width: 2.2"/>
   </g>
   <g id="Poly3DCollection_11">
    <path d="M 194.810397 46.392826 
L 229.806524 55.563762 
L 309.226506 55.625509 
L 274.278745 46.682869 
z
" clip-path="url(#pa2596ae01f)" style="fill: #808080; fill-opacity: 0.15"/>
   </g>
   <g id="Line3DCollection_11">
    <path d="M 194.810397 46.392826 
L 229.806524 55.563762 
" clip-path="url(#pa2596ae01f)" style="fill: none; stroke: #000000; stroke-width: 2.2"/>
   </g>
   <g id="Poly3DCollection_12">
    <path d="M 252.400299 59.327214 
L 270.118852 90.667725 
L 348.052063 108.829524 
L 337.493064 81.503633 
z
" clip-path="url(#pa2596ae01f)" style="fill: #ff0000; fill-opacity: 0.15"/>
   </g>
   <g id="Line3DCollection_12">
    <path d="M 252.400299 59.327214 
L 270.118852 90.667725 
" clip-path="url(#pa2596ae01f)" style="fill: none; stroke: #ff0000; stroke-width: 2.2"/>
   </g>
   <g id="Poly3DCollection_13">
    <path d="M 229.806524 55.563762 
L 265.156924 72.889969 
L 339.343287 75.372996 
L 309.226506 55.625509 
z
" clip-path="url(#pa2596ae01f)" style="fill: #808080; fill-opacity: 0.15"/>
   </g>
   <g id="Line3DCollection_13">
    <path d="M 229.806524 55.563762 
L 265.156924 72.889969 
" clip-path="url(#pa2596ae01f)" style="fill: none; stroke: #000000; stroke-width: 2.2"/>
   </g>
   <g id="Poly3DCollection_14">
    <path d="M 265.156924 72.889969 
L 296.854373 105.760384 
L 366.031184 103.871088 
L 339.343287 75.372996 
z
" clip-path="url(#pa2596ae01f)" style="fill: #808080; fill-opacity: 0.15"/>
   </g>
   <g id="Line3DCollection_14">
    <path d="M 265.156924 72.889969 
L 296.854373 105.760384 
" clip-path="url(#pa2596ae01f)" style="fill: none; stroke: #000000; stroke-width: 2.2"/>
   </g>
   <g id="Poly3DCollection_15">
    <path d="M 270.118852 90.667725 
L 291.866319 132.286983 
L 348.233848 143.992175 
L 348.052063 108.829524 
z
" clip-path="url(#pa2596ae01f)" style="fill: #ff0000; fill-opacity: 0.15"/>
   </g>
   <g id="Line3DCollection_15">
    <path d="M 270.118852 90.667725 
L 291.866319 132.286983 
" clip-path="url(#pa2596ae01f)" style="fill: none; stroke: #ff0000; stroke-width: 2.2"/>
   </g>
   <g id="Poly3DCollection_16">
    <path d="M 291.866319 132.286983 
L 303.211099 168.610086 
L 330.745356 171.332519 
L 348.233848 143.992175 
z
" clip-path="url(#pa2596ae01f)" style="fill: #ff0000; fill-opacity: 0.15"/>
   </g>
   <g id="Line3DCollection_16">
    <path d="M 291.866319 132.286983 
L 303.211099 168.610086 
" clip-path="url(#pa2596ae01f)" style="fill: none; stroke: #ff0000; stroke-width: 2.2"/>
   </g>
   <g id="Poly3DCollection_17">
    <path d="M 296.854373 105.760384 
L 326.556095 149.984494 
L 373.054688 150.726655 
L 366.031184 103.871088 
z
" clip-path="url(#pa2596ae01f)" style="fill: #808080; fill-opacity: 0.15"/>
   </g>
   <g id="Line3DCollection_17">
    <path d="M 296.854373 105.760384 
L 326.556095 149.984494 
" clip-path="url(#pa2596ae01f)" style="fill: none; stroke: #000000; stroke-width: 2.2"/>
   </g>
   <g id="Poly3DCollection_18">
    <path d="M 326.556095 149.984494 
L 346.929276 186.548426 
L 358.730083 189.050806 
L 373.054688 150.726655 
z
" clip-path="url(#pa2596ae01f)" style="fill: #808080; fill-opacity: 0.15"/>
   </g>
   <g id="Line3DCollection_18">
    <path d="M 326.556095 149.984494 
L 346.929276 186.548426 
" clip-path="url(#pa2596ae01f)" style="fill: none; stroke: #000000; stroke-width: 2.2"/>
   </g>
  </g>
 </g>
 <defs>
  <clipPath id="pa2596ae01f">
   <rect x="-133.2" y="-133.2" width="698.4" height="698.4"/>
  </clipPath>
 </defs>
</svg>
